<svg id="Capa_1" enable-background="new 0 0 512 512" height="512" viewBox="0 0 512 512" width="512" xmlns="http://www.w3.org/2000/svg"><g><path d="m444.5 117.5 30 167 30-80v-57z" fill="#a94525"/><path d="m331 117.5h143.5v167h-143.5z" fill="#ff3c19"/><path d="m489.5 102.5-60-30 45 75h30z" fill="#302c4c"/><path d="m429.5 72.5h-98.5l-28.5 75h172l-15-45z" fill="#5b3364"/><path d="m391 102.5-60-30-60 30-15 45v137h150v-137z" fill="#ff5f21"/><path d="m308.5 147.5h45v107h-45z" fill="#fffacc"/><path d="m131.75 7.5v90c24.853 0 45-20.147 45-45s-20.147-45-45-45z" fill="#ffa630"/><path d="m146.75 52.5c0-24.853-6.716-45-15-45-24.853 0-45 20.147-45 45s20.147 45 45 45c8.284 0 15-20.147 15-45z" fill="#ffc938"/><path d="m311.152 277.079c-66.963-32.336-150.299-72.579-303.652-72.579v30l308.5 78.563v-33.644c-1.605-.773-3.219-1.553-4.848-2.34z" fill="#5b9b40"/><path d="m296.621 303.776c-32.225-15.562-68.749-33.199-114.784-46.589-52.487-15.266-109.513-22.687-174.337-22.687v30l308.5 81.62v-33.057c-6.369-3.006-12.796-6.109-19.379-9.287z" fill="#468943"/><path d="m283.575 330.79c-64.344-31.072-137.274-66.29-276.075-66.29v30l308.5 51.62c-10.807-4.892-21.479-10.045-32.425-15.33z" fill="#5b9b40"/><path d="m7.5 324.5 225.973 15.836c-54.803-24.631-118.877-45.836-225.973-45.836z" fill="#468943"/><path d="m504.5 204.5c-10.315 0-20.302.188-30 .537l-30 38.188 60-8.725z" fill="#5b9b40"/><path d="m200.848 277.079c-57.011 27.53-98.2 47.42-193.348 47.42v30l50 10 417-121.274v-38.188c-134.479 4.846-211.193 41.881-273.652 72.042z" fill="#70ae3e"/><path d="m504.5 354.5-60-10 30 40.67c9.506-.439 19.484-.67 30-.67z" fill="#70ae3e"/><path d="m27.5 414.5-20 60v29.999h.261c138.629-.044 211.51-35.236 275.814-66.289 53.961-26.057 101.272-48.899 190.925-53.04v-40.67z" fill="#9dcb3b"/><path d="m504.5 384.5c-10.516 0-20.494.231-30 .67l-30 38.342 60-9.012z" fill="#5b9b40"/><path d="m283.575 438.21c-64.304 31.052-137.185 66.244-275.814 66.289h197.151l269.588-80.987v-38.342c-89.652 4.14-136.964 26.983-190.925 53.04z" fill="#70ae3e"/><path d="m504.5 414.5c-10.575 0-20.544.24-30 .696l-30 37.497 60-8.193z" fill="#70ae3e"/><path d="m296.621 465.224c-26.642 12.866-56.242 27.144-91.708 39.274h79.878l189.709-51.806v-37.497c-82.489 3.975-125.223 24.603-177.879 50.029z" fill="#9dcb3b"/><path d="m504.5 444.5c-10.644 0-20.609.251-30 .731l-30 35.278 60-6.009z" fill="#5b9b40"/><path d="m311.152 491.919c-8.488 4.099-17.238 8.324-26.361 12.579h69.943l119.767-23.99v-35.278c-74.558 3.817-112.716 22.24-163.349 46.689z" fill="#70ae3e"/><path d="m504.5 474.5c-10.725 0-20.674.266-30 .772l-20 14.614 20 14.614h30z" fill="#70ae3e"/><path d="m354.733 504.499h119.767v-29.227c-52.602 2.856-84.974 13.518-119.767 29.227z" fill="#9dcb3b"/><path d="m504.5 234.5c-10.196 0-20.177.206-30 .574l-30 38.15 60-8.725z" fill="#70ae3e"/><path d="m330.163 257.187c-46.036 13.39-82.56 31.027-114.784 46.589-58.69 28.34-105.045 50.724-207.879 50.724v30l50 20 417-131.275v-38.15c-52.629 1.976-100.105 9.248-144.337 22.112z" fill="#9dcb3b"/><path d="m504.5 264.5c-10.362 0-20.349.2-30 .576l-30 38.776 60-9.353z" fill="#5b9b40"/><path d="m228.425 330.79c-59.683 28.82-111.226 53.71-220.925 53.71v30l80 10 387-120.646v-38.776c-119.634 4.661-186.535 36.96-246.075 65.712z" fill="#70ae3e"/><path d="m504.5 294.5c-10.396 0-20.384.201-30 .584l-30 38.734 60-9.319z" fill="#70ae3e"/><path d="m241.467 357.807c-60.377 29.154-117.405 56.693-233.967 56.693v30l78.5 10 388.5-120.681v-38.734c-112.425 4.481-173.659 34.05-233.033 62.722z" fill="#9dcb3b"/><path d="m504.5 324.5c-10.429 0-20.41.216-30 .621l-20 15.015 20 15.015c9.553-.425 19.533-.651 30-.651z" fill="#5b9b40"/><path d="m7.5 444.5v30c131.938 0 198.581-32.183 263.035-63.308 54.955-26.536 107.142-51.73 203.965-56.042v-30.029c-218.928 9.244-228.929 119.379-467 119.379z" fill="#70ae3e"/><circle cx="331" cy="117.5" r="7.5"/><path d="m131.75 105c28.949 0 52.5-23.552 52.5-52.5s-23.551-52.5-52.5-52.5-52.5 23.552-52.5 52.5 23.551 52.5 52.5 52.5zm0-90c20.678 0 37.5 16.822 37.5 37.5s-16.822 37.5-37.5 37.5-37.5-16.822-37.5-37.5 16.822-37.5 37.5-37.5z"/><path d="m511.615 145.128-15-45c-.629-1.887-1.982-3.446-3.761-4.336l-60-30c-1.041-.52-2.189-.792-3.354-.792h-98.492c-1.152-.001-2.304.262-3.362.792l-60 30c-1.779.89-3.132 2.449-3.761 4.336l-15 45c-.255.765-.385 1.566-.385 2.372v92.95c-52.209-21.092-126.29-43.45-241-43.45-4.142 0-7.5 3.357-7.5 7.5v300c0 4.143 3.358 7.5 7.5 7.5h497c4.142 0 7.5-3.357 7.5-7.5v-357c0-.805-.13-1.607-.385-2.372zm-451.583 297.447c.358 3.891 3.627 6.813 7.459 6.813.23 0 .462-.01.696-.031 87.398-8.044 140.101-33.493 191.069-58.104 61.802-29.843 120.256-58.06 237.744-59.212v15.002c-113.239 1.157-169.862 28.489-229.729 57.397-62.455 30.159-127.004 61.321-252.271 62.52v-14.999c7.72-.078 15.366-.274 22.817-.589 4.138-.175 7.351-3.671 7.176-7.81-.175-4.14-3.661-7.363-7.81-7.177-7.242.306-14.676.499-22.183.576v-15.004c113.24-1.157 169.864-28.489 229.73-57.397 62.455-30.159 127.003-61.322 252.27-62.52v15.001c-121.023 1.202-183.66 31.439-244.266 60.704-52.057 25.137-101.227 48.879-185.922 56.674-4.124.379-7.16 4.031-6.78 8.156zm-45.032 39.386c128.693-1.196 194.816-33.119 258.799-64.016 58.268-28.136 113.386-54.742 223.201-55.901v15c-106.283 1.111-157.547 25.855-216.686 54.413-62.448 30.156-133.082 64.258-265.314 65.504zm163.226-202.361c-49.162-14.591-102.67-21.981-163.226-22.544v-15.002c61.004.553 114.981 7.861 164.742 22.334 6.12 1.78 12.193 3.676 18.313 5.712-.157.076-.316.153-.473.228-6.632 3.203-13.046 6.299-19.356 9.272zm-21.331 9.645c-8.06 3.45-16.161 6.653-24.549 9.564-35.75-7.504-74.233-11.369-117.346-11.768v-14.985c52.119.494 98.824 6.132 141.895 17.189zm-57.484 18.95c-23.326 5.227-50.243 8.361-84.411 8.759v-14.914c30.286.286 58.191 2.32 84.411 6.155zm104.698-24.361c65.172-31.472 146.018-70.511 292.891-71.8v15.02c-62.45.556-117.797 8.059-168.932 22.931-46.638 13.564-83.462 31.347-115.951 47.036-56.373 27.223-101.208 48.864-197.117 49.933v-14.999c91.559-1.023 132.718-20.891 189.109-48.121zm141.891-69.736c-10.455 2.475-20.436 5.152-30 7.984v-67.082h30zm67.5-59.098h83.5v42.033c-30.476.261-58.163 2.11-83.5 5.158zm-194.86 155.53c31.96-15.434 68.184-32.927 113.618-46.142 49.761-14.473 103.738-21.78 164.742-22.334v14.984c-135.659 1.243-207.937 36.141-271.838 67-57.472 27.752-107.299 51.803-210.162 52.917v-14.999c99.33-1.066 145.533-23.368 203.64-51.426zm13.046 27.014c62.448-30.157 133.082-64.259 265.314-65.505v15c-128.693 1.196-194.816 33.119-258.797 64.015-58.268 28.136-113.386 54.742-223.203 55.902v-15c106.285-1.111 157.55-25.855 216.686-54.412zm251.681-229.724 10.727 32.18h-82.688l-13.291-39.872c-.629-1.887-1.982-3.446-3.761-4.336l-31.584-15.792h64.959zm-206.234 0 53.867-26.935 53.867 26.935 13.633 40.897v55.457c-13.133 1.891-25.612 4.105-37.5 6.586v-63.26c0-4.143-3.358-7.5-7.5-7.5h-45c-4.142 0-7.5 3.357-7.5 7.5v79.249c-13.275 4.338-25.724 8.951-37.5 13.696v-91.728zm-40.437 144.08c-6.681 3.005-13.157 6.016-19.461 9.001-11.294-4.108-22.223-7.693-33.303-10.916-51.135-14.872-106.482-22.374-168.932-22.93v-15.021c103.511.905 172.322 20.522 221.696 39.866zm50.146 193.06c57.47-27.751 107.297-51.802 210.158-52.916v14.999c-99.329 1.066-145.532 23.368-203.64 51.427-25.831 12.474-55.079 26.591-89.722 38.529h-53.895c56.838-13.28 98.496-33.396 137.099-52.039zm21.048 40.206c-7.981 3.855-16.228 7.833-24.775 11.834h-37.605c19.898-8.374 37.825-17.031 54.372-25.021 56.375-27.222 101.21-48.864 197.118-49.933v15c-91.559 1.022-132.718 20.889-189.11 48.12zm189.11-33.121v15.001c-65.522.764-102.982 11.633-143.869 29.954h-35.25c52.838-25.497 92.856-43.949 179.119-44.955zm-102.842 44.955c27.944-9.143 58.753-14.418 102.842-14.95v14.95z"/></g></svg>