<?xml version="1.0"?>
<svg xmlns="http://www.w3.org/2000/svg" viewBox="0 0 512 512" width="512" height="512"><g id="Filled_outline" data-name="Filled outline"><rect x="24" y="24" width="464" height="200" rx="24" ry="24" style="fill:#dfdfdd"/><rect x="64" y="176" width="384" height="48" style="fill:#bebebc"/><rect x="288" y="208" width="160" height="280" rx="16" ry="16" style="fill:#348ed8"/><path d="M488,496V384.569a40,40,0,0,0-11.716-28.285L448,328v80l-27.029-27.029a16.972,16.972,0,0,0-12-4.971h0A16.971,16.971,0,0,0,392,392.971h0a16.972,16.972,0,0,0,4.971,12L424,432h0a49.7,49.7,0,0,0-3.1,49.8L424,488v8" style="fill:#fdc8a2"/><path d="M496,48V200a32.059,32.059,0,0,1-21.332,30.175l-5.336-15.084A16.032,16.032,0,0,0,480,200V48a16.019,16.019,0,0,0-16-16H48A16.019,16.019,0,0,0,32,48V72H16V48A32.036,32.036,0,0,1,48,16H464A32.036,32.036,0,0,1,496,48ZM16,200V88H32V200a16.019,16.019,0,0,0,16,16h8V176a8,8,0,0,1,8-8H448a8,8,0,0,1,8,8v8H264v48H48A32.036,32.036,0,0,1,16,200Zm200,16h32V184H216Zm-48,0h32V184H168Zm-48,0h32V184H120Zm-48,0h32V184H72Zm384-80H440v16h16Zm-48,0v16h16V136Zm-32,0v16h16V136Zm80,160V224a24.027,24.027,0,0,0-24-24H304a24.027,24.027,0,0,0-24,24V472a24.027,24.027,0,0,0,24,24h96V480H304a8.009,8.009,0,0,1-8-8V224a8.009,8.009,0,0,1,8-8H432a8.009,8.009,0,0,1,8,8v72Zm0,28.687V312H440v76.686l-13.373-13.372a24.97,24.97,0,1,0-35.313,35.313l22.669,22.67a57.848,57.848,0,0,0-.239,52.08L416,489.889V496h16v-8a7.994,7.994,0,0,0-.845-3.578l-3.1-6.2a41.794,41.794,0,0,1,2.6-41.784,8,8,0,0,0-1-10.095l-27.03-27.029a8.971,8.971,0,0,1,12.687-12.687l27.029,27.03,16,16,11.314-11.314L456,404.687V347.314l14.627,14.627A31.791,31.791,0,0,1,480,384.568V496h16V384.568a47.686,47.686,0,0,0-14.059-33.941Zm-42.133-31.12,4.266-15.421-13.577-3.757,3.694-14.236-15.487-4.019-4.846,18.677L376,281.916V267.239l13.241-13.674-11.494-11.13L368,252.5l-9.747-10.065-11.494,11.13L360,267.239v14.677l-11.917-7.105-4.846-18.677-15.487,4.019,3.694,14.236-13.577,3.757,4.266,15.421L340,288.622,352.378,296,340,303.378l-17.871-4.945-4.266,15.421,13.577,3.757-3.694,14.236,15.487,4.019,4.846-18.677L360,310.084v14.677l-13.241,13.674,11.494,11.13L368,339.5l9.747,10.065,11.494-11.13L376,324.761V310.084l11.917,7.105,4.846,18.677,15.487-4.019-3.694-14.236,13.577-3.757-4.266-15.421L396,303.378,383.622,296,396,288.622ZM328,376H312v16h16Zm16,0v16h24V376Zm-16,32H312v16h16Zm56,0H344v16h40Zm-72,48h16V440H312Zm32,0h40V440H344ZM328,232H312v16h16ZM50,408H66c0-4.305,1.473-6.072,4.146-9.28C73.46,394.742,78,389.294,78,379.2s-4.54-15.545-7.854-19.523C67.473,356.467,66,354.7,66,350.4s1.473-6.071,4.146-9.278C73.46,337.14,78,331.693,78,321.6s-4.54-15.544-7.854-19.521C67.473,298.868,66,297.1,66,292.8s1.473-6.07,4.146-9.277C73.46,279.543,78,274.1,78,264H62c0,4.3-1.473,6.07-4.146,9.277C54.54,277.254,50,282.7,50,292.8s4.54,15.543,7.854,19.521C60.527,315.526,62,317.293,62,321.6s-1.473,6.07-4.146,9.278C54.54,334.852,50,340.3,50,350.4s4.54,15.544,7.854,19.521C60.527,373.126,62,374.893,62,379.2s-1.473,6.071-4.146,9.28C54.54,392.455,50,397.9,50,408ZM158,264H142c0,4.3-1.473,6.07-4.146,9.277C134.54,277.254,130,282.7,130,292.8s4.54,15.543,7.854,19.521c2.673,3.207,4.146,4.974,4.146,9.278s-1.473,6.07-4.146,9.278C134.54,334.852,130,340.3,130,350.4s4.54,15.544,7.854,19.521c2.673,3.209,4.146,4.976,4.146,9.281s-1.473,6.071-4.146,9.28C134.54,392.455,130,397.9,130,408h16c0-4.305,1.473-6.072,4.146-9.28C153.46,394.742,158,389.294,158,379.2s-4.54-15.545-7.854-19.523C147.473,356.467,146,354.7,146,350.4s1.473-6.071,4.146-9.278C153.46,337.14,158,331.693,158,321.6s-4.54-15.544-7.854-19.521C147.473,298.868,146,297.1,146,292.8s1.473-6.07,4.146-9.277C153.46,279.543,158,274.1,158,264Zm80,0H222c0,4.3-1.473,6.07-4.146,9.277C214.54,277.254,210,282.7,210,292.8s4.54,15.543,7.854,19.521c2.673,3.207,4.146,4.974,4.146,9.278s-1.473,6.07-4.146,9.278C214.54,334.852,210,340.3,210,350.4s4.54,15.544,7.854,19.521c2.673,3.209,4.146,4.976,4.146,9.281s-1.473,6.071-4.146,9.28C214.54,392.455,210,397.9,210,408h16c0-4.305,1.473-6.072,4.146-9.28C233.46,394.742,238,389.294,238,379.2s-4.54-15.545-7.854-19.523C227.473,356.467,226,354.7,226,350.4s1.473-6.071,4.146-9.278C233.46,337.14,238,331.693,238,321.6s-4.54-15.544-7.854-19.521C227.473,298.868,226,297.1,226,292.8s1.473-6.07,4.146-9.277C233.46,279.543,238,274.1,238,264ZM56,128H72V80H56ZM72,48H56V64H72Z"/></g></svg>
