<svg id="Layer_3" enable-background="new 0 0 64 64" height="512" viewBox="0 0 64 64" width="512" xmlns="http://www.w3.org/2000/svg"><g><g><path d="m4 2h56v34h-56z" fill="#604832"/></g><g><path d="m8 6h14v30h-14z" fill="#e3aa75"/></g><g><path d="m26 6h12v30h-12z" fill="#e3aa75"/></g><g><path d="m30 20h4v6h-4z" fill="#c4deff"/></g><g><path d="m30 30h4v6h-4z" fill="#c4deff"/></g><g><path d="m26 30h4v6h-4z" fill="#93a7bf"/></g><g><path d="m26 10h4v6h-4z" fill="#c4deff"/></g><g><path d="m30 10h4v6h-4z" fill="#93a7bf"/></g><g><path d="m34 10h4v6h-4z" fill="#c4deff"/></g><g><path d="m8 10h4v6h-4z" fill="#c4deff"/></g><g><path d="m42 6h14v30h-14z" fill="#e3aa75"/></g><g><path d="m12 20h6v6h-6z" fill="#bf6065"/></g><g><path d="m12 20h3v6h-3z" fill="#ff8087"/></g><g><path d="m12 10h6v6h-6z" fill="#bf6065"/></g><g><path d="m12 10h3v6h-3z" fill="#ff8087"/></g><g><path d="m46 30h6v6h-6z" fill="#bf6065"/></g><g><path d="m46 30h3v6h-3z" fill="#ff8087"/></g><g><path d="m57 36h-2v-29h-46v29h-2v-30c0-.553.448-1 1-1h48c.552 0 1 .447 1 1z"/></g><g><circle cx="15" cy="33" fill="#9ab878" r="3"/></g><g><ellipse cx="13.5" cy="33" fill="#cdf5a0" rx="1.5" ry="2.584"/></g><g><circle cx="49" cy="23" fill="#9ab878" r="3"/></g><g><ellipse cx="47.5" cy="23" fill="#cdf5a0" rx="1.5" ry="2.584"/></g><g><circle cx="49" cy="13" fill="#9ab878" r="3"/></g><g><ellipse cx="47.5" cy="13" fill="#cdf5a0" rx="1.5" ry="2.584"/></g><g><path d="m22 40h20v18h-20z" fill="#806042"/></g><g><path d="m22 40h17v18h-17z" fill="#aa8058"/></g><g><path d="m4 40h18v18h-18z" fill="#806042"/></g><g><path d="m4 40h15v18h-15z" fill="#aa8058"/></g><g><path d="m42 40h18v18h-18z" fill="#806042"/></g><g><path d="m42 40h15v18h-15z" fill="#aa8058"/></g><g><path d="m2 58h60v4h-60z" fill="#aa8058"/></g><g><path d="m2 58h57v4h-57z" fill="#e3aa75"/></g><g><path d="m2 36h60v4h-60z" fill="#aa8058"/></g><g><path d="m2 36h57v4h-57z" fill="#e3aa75"/></g><g><path d="m62 41h-60c-.552 0-1-.447-1-1v-4c0-.553.448-1 1-1h60c.552 0 1 .447 1 1v4c0 .553-.448 1-1 1zm-59-2h58v-2h-58z"/></g><g><path d="m62 63h-60c-.552 0-1-.447-1-1v-4c0-.553.448-1 1-1h60c.552 0 1 .447 1 1v4c0 .553-.448 1-1 1zm-59-2h58v-2h-58z"/></g><g><path d="m3 40h2v18h-2z"/></g><g><path d="m59 40h2v18h-2z"/></g><g><path d="m61 36h-2v-33h-54v33h-2v-34c0-.553.448-1 1-1h56c.552 0 1 .447 1 1z"/></g><g><path d="m21 40h2v18h-2z"/></g><g><path d="m41 40h2v18h-2z"/></g><g><path d="m22 45h20v2h-20z"/></g><g><path d="m22 51h20v2h-20z"/></g><g><path d="m7 47h2v4h-2z"/></g><g><path d="m55 47h2v4h-2z"/></g><g><path d="m21 6h2v30h-2z"/></g><g><path d="m41 6h2v30h-2z"/></g><g><path d="m25 6h2v30h-2z"/></g><g><path d="m37 6h2v30h-2z"/></g><g><path d="m8 15h14v2h-14z"/></g><g><path d="m8 25h14v2h-14z"/></g><g><path d="m42 15h14v2h-14z"/></g><g><path d="m42 25h14v2h-14z"/></g><g><path d="m26 15h12v2h-12z"/></g><g><path d="m26 25h12v2h-12z"/></g><g><path d="m19 26h-2v-5h-4v5h-2v-6c0-.553.448-1 1-1h6c.552 0 1 .447 1 1z"/></g><g><path d="m15 37c-2.206 0-4-1.794-4-4s1.794-4 4-4 4 1.794 4 4-1.794 4-4 4zm0-6c-1.103 0-2 .897-2 2s.897 2 2 2 2-.897 2-2-.897-2-2-2z"/></g><g><path d="m26 9h12v2h-12z"/></g><g><path d="m29 10h2v6h-2z"/></g><g><path d="m33 10h2v6h-2z"/></g><g><path d="m35 26h-2v-5h-2v5h-2v-6c0-.553.448-1 1-1h4c.552 0 1 .447 1 1z"/></g><g><path d="m53 36h-2v-5h-4v5h-2v-6c0-.553.448-1 1-1h6c.552 0 1 .447 1 1z"/></g><g><path d="m35 36h-2v-5h-6v5h-2v-6c0-.553.448-1 1-1h8c.552 0 1 .447 1 1z"/></g><g><path d="m29 30h2v6h-2z"/></g><g><path d="m49 17c-2.206 0-4-1.794-4-4s1.794-4 4-4 4 1.794 4 4-1.794 4-4 4zm0-6c-1.103 0-2 .897-2 2s.897 2 2 2 2-.897 2-2-.897-2-2-2z"/></g><g><path d="m49 27c-2.206 0-4-1.794-4-4s1.794-4 4-4 4 1.794 4 4-1.794 4-4 4zm0-6c-1.103 0-2 .897-2 2s.897 2 2 2 2-.897 2-2-.897-2-2-2z"/></g><g><path d="m19 16h-2v-5h-9v-2h10c.552 0 1 .447 1 1z"/></g><g><path d="m11 10h2v6h-2z"/></g></g></svg>