<svg height="512" viewBox="0 0 512 512" width="512" xmlns="http://www.w3.org/2000/svg"><g id="filled_outline" data-name="filled outline"><rect fill="#eaeae8" height="464" rx="36" width="464" x="24" y="24"/><path d="m72 152h368v288h-368z" fill="#6ee7f5"/><path d="m263 368a8 8 0 0 1 -8-8c0-4.994-1.89-7.154-5.021-10.732-3.789-4.33-8.979-10.262-8.979-21.268s5.19-16.938 8.979-21.268c3.131-3.578 5.021-5.738 5.021-10.732a8 8 0 0 1 16 0c0 11.006-5.19 16.938-8.979 21.268-3.131 3.578-5.021 5.738-5.021 10.732s1.89 7.154 5.021 10.732c3.789 4.33 8.979 10.262 8.979 21.268a8 8 0 0 1 -8 8z" fill="#43aece"/><path d="m311 368a8 8 0 0 1 -8-8c0-4.994-1.89-7.154-5.021-10.732-3.789-4.33-8.979-10.262-8.979-21.268s5.19-16.938 8.979-21.268c3.131-3.578 5.021-5.738 5.021-10.732a8 8 0 0 1 16 0c0 11.006-5.19 16.938-8.979 21.268-3.131 3.578-5.021 5.738-5.021 10.732s1.89 7.154 5.021 10.732c3.789 4.33 8.979 10.262 8.979 21.268a8 8 0 0 1 -8 8z" fill="#43aece"/><path d="m215 368a8 8 0 0 1 -8-8c0-4.994-1.89-7.154-5.021-10.732-3.789-4.33-8.979-10.262-8.979-21.268s5.19-16.938 8.979-21.268c3.131-3.578 5.021-5.738 5.021-10.732a8 8 0 0 1 16 0c0 11.006-5.19 16.938-8.979 21.268-3.131 3.578-5.021 5.738-5.021 10.732s1.89 7.154 5.021 10.732c3.789 4.33 8.979 10.262 8.979 21.268a8 8 0 0 1 -8 8z" fill="#43aece"/><path d="m60 24h392a36 36 0 0 1 36 36v44a0 0 0 0 1 0 0h-464a0 0 0 0 1 0 0v-44a36 36 0 0 1 36-36z" fill="#cbcbcb"/><path d="m200 48h112v32h-112z" fill="#43aece"/><rect fill="#eaeae8" height="32" rx="16" width="304" x="104" y="216"/><path d="m120 184h32v32h-32z" fill="#cbcbcb"/><path d="m120 200h32v16h-32z" fill="#a8a8a8"/><path d="m360 184h32v32h-32z" fill="#cbcbcb"/><g fill="#eaeae8"><circle cx="152" cy="64" r="16"/><circle cx="88" cy="64" r="16"/><circle cx="424" cy="64" r="16"/><circle cx="360" cy="64" r="16"/><path d="m328 416h-144a8 8 0 0 1 0-16h144a8 8 0 0 1 0 16z"/><path d="m368 416h-8a8 8 0 0 1 0-16h8a8 8 0 0 1 0 16z"/></g><path d="m360 200h32v16h-32z" fill="#a8a8a8"/><path d="m271 296a8 8 0 0 0 -16 0c0 4.994-1.89 7.154-5.021 10.732-3.789 4.33-8.979 10.262-8.979 21.268s5.19 16.938 8.979 21.268c3.131 3.578 5.021 5.738 5.021 10.732a8 8 0 0 0 16 0c0-11.006-5.19-16.938-8.979-21.268-3.131-3.578-5.021-5.738-5.021-10.732s1.89-7.154 5.021-10.732c3.789-4.33 8.979-10.262 8.979-21.268z"/><path d="m319 296a8 8 0 0 0 -16 0c0 4.994-1.89 7.154-5.021 10.732-3.789 4.33-8.979 10.262-8.979 21.268s5.19 16.938 8.979 21.268c3.131 3.578 5.021 5.738 5.021 10.732a8 8 0 0 0 16 0c0-11.006-5.19-16.938-8.979-21.268-3.131-3.578-5.021-5.738-5.021-10.732s1.89-7.154 5.021-10.732c3.789-4.33 8.979-10.262 8.979-21.268z"/><path d="m223 296a8 8 0 0 0 -16 0c0 4.994-1.89 7.154-5.021 10.732-3.789 4.33-8.979 10.262-8.979 21.268s5.19 16.938 8.979 21.268c3.131 3.578 5.021 5.738 5.021 10.732a8 8 0 0 0 16 0c0-11.006-5.19-16.938-8.979-21.268-3.131-3.578-5.021-5.738-5.021-10.732s1.89-7.154 5.021-10.732c3.789-4.33 8.979-10.262 8.979-21.268z"/><path d="m440 144h-368a8 8 0 0 0 -8 8v288a8 8 0 0 0 8 8h368a8 8 0 0 0 8-8v-288a8 8 0 0 0 -8-8zm-8 288h-352v-272h352z"/><path d="m452 16h-392a44.049 44.049 0 0 0 -44 44v392a44.049 44.049 0 0 0 44 44h392a44.049 44.049 0 0 0 44-44v-392a44.049 44.049 0 0 0 -44-44zm-420 44a28.032 28.032 0 0 1 28-28h392a28.032 28.032 0 0 1 28 28v36h-448zm420 420h-392a28.032 28.032 0 0 1 -28-28v-340h448v340a28.032 28.032 0 0 1 -28 28z"/><path d="m312 40h-112a8 8 0 0 0 -8 8v32a8 8 0 0 0 8 8h112a8 8 0 0 0 8-8v-32a8 8 0 0 0 -8-8zm-8 32h-96v-16h96z"/><path d="m120 256h272a24 24 0 0 0 8-46.624v-25.376a8 8 0 0 0 -8-8h-32a8 8 0 0 0 -8 8v24h-192v-24a8 8 0 0 0 -8-8h-32a8 8 0 0 0 -8 8v25.376a24 24 0 0 0 8 46.624zm248-64h16v16h-16zm-240 0h16v16h-16zm-8 32h272a8 8 0 0 1 0 16h-272a8 8 0 0 1 0-16z"/><path d="m152 40a24 24 0 1 0 24 24 24.027 24.027 0 0 0 -24-24zm0 32a8 8 0 1 1 8-8 8.009 8.009 0 0 1 -8 8z"/><path d="m88 40a24 24 0 1 0 24 24 24.027 24.027 0 0 0 -24-24zm0 32a8 8 0 1 1 8-8 8.009 8.009 0 0 1 -8 8z"/><path d="m424 40a24 24 0 1 0 24 24 24.027 24.027 0 0 0 -24-24zm0 32a8 8 0 1 1 8-8 8.009 8.009 0 0 1 -8 8z"/><path d="m360 40a24 24 0 1 0 24 24 24.027 24.027 0 0 0 -24-24zm0 32a8 8 0 1 1 8-8 8.009 8.009 0 0 1 -8 8z"/><path d="m328 400h-144a8 8 0 0 0 0 16h144a8 8 0 0 0 0-16z"/><path d="m368 400h-8a8 8 0 0 0 0 16h8a8 8 0 0 0 0-16z"/></g></svg>