<?xml version="1.0" encoding="iso-8859-1"?>
<!-- Generator: Adobe Illustrator 19.0.0, SVG Export Plug-In . SVG Version: 6.00 Build 0)  -->
<svg version="1.1" id="Capa_1" xmlns="http://www.w3.org/2000/svg" xmlns:xlink="http://www.w3.org/1999/xlink" x="0px" y="0px"
	 viewBox="0 0 480 480" style="enable-background:new 0 0 480 480;" xml:space="preserve">
<path style="fill:#D1E3EE;" d="M256,8H64v432h192h160V8H256z"/>
<g>
	<path style="fill:#4FB86A;" d="M112,288h32v48h-32V288z"/>
	<path style="fill:#4FB86A;" d="M176,288h32v48h-32V288z"/>
	<path style="fill:#4FB86A;" d="M128,296c-4.418,0-8-3.582-8-8v-24c0-4.418,3.582-8,8-8s8,3.582,8,8v24
		C136,292.418,132.418,296,128,296z"/>
	<path style="fill:#4FB86A;" d="M192,296c-4.418,0-8-3.582-8-8v-24c0-4.418,3.582-8,8-8s8,3.582,8,8v24
		C200,292.418,196.418,296,192,296z"/>
</g>
<path style="fill:#7FCCCB;" d="M64,336h192v104H64V336z"/>
<g>
	<path style="fill:#5A6570;" d="M368,440h32v32h-32V440z"/>
	<path style="fill:#5A6570;" d="M80,440h32v32H80V440z"/>
</g>
<g>
	<path style="fill:#88D0EF;" d="M64,8h72v40H64V8z"/>
	<path style="fill:#88D0EF;" d="M184,64h16v16h-16V64z"/>
	<path style="fill:#88D0EF;" d="M152,64h16v16h-16V64z"/>
	<path style="fill:#88D0EF;" d="M216,64h16v16h-16V64z"/>
</g>
<g>
	<path style="fill:#4FB86A;" d="M208,272h-32c-4.418,0-8-3.582-8-8s3.582-8,8-8h32c4.418,0,8,3.582,8,8S212.418,272,208,272z"/>
	<path style="fill:#4FB86A;" d="M144,272h-32c-4.418,0-8-3.582-8-8s3.582-8,8-8h32c4.418,0,8,3.582,8,8S148.418,272,144,272z"/>
</g>
<path style="fill:#7D8F9F;" d="M256,240H96c-4.418,0-8-3.582-8-8s3.582-8,8-8h160c4.418,0,8,3.582,8,8S260.418,240,256,240z"/>
<path style="fill:#F6F6E7;" d="M196,144c-8.517,0.624-16.094,5.638-20,13.232c-3.906-7.594-11.483-12.608-20-13.232
	c-15.464,0-28,19.696-28,44s12.536,44,28,44c8.517-0.624,16.094-5.638,20-13.232c3.906,7.594,11.483,12.608,20,13.232
	c15.464,0,28-19.696,28-44S211.464,144,196,144z"/>
<g>
	<path style="fill:#9A615B;" d="M160,200c-4.418,0-8-3.582-8-8v-8c0-4.418,3.582-8,8-8s8,3.582,8,8v8
		C168,196.418,164.418,200,160,200z"/>
	<path style="fill:#9A615B;" d="M192,200c-4.418,0-8-3.582-8-8v-8c0-4.418,3.582-8,8-8s8,3.582,8,8v8
		C200,196.418,196.418,200,192,200z"/>
</g>
<path style="fill:#A9BFD1;" d="M256,8h160v432H256V8z"/>
<path style="fill:#D1E3EE;" d="M288,384c-4.418-0.001-7.999-3.583-7.998-8.002c0-2.121,0.843-4.154,2.342-5.654
	c8.714-8.763,13.621-20.61,13.656-32.968V110.624c-0.035-12.358-4.942-24.205-13.656-32.968c-3.069-3.178-2.982-8.243,0.196-11.312
	c3.1-2.994,8.015-2.994,11.116,0c11.704,11.771,18.295,27.681,18.344,44.28v226.752c-0.049,16.599-6.64,32.509-18.344,44.28
	C292.156,383.156,290.122,384,288,384z"/>
<path d="M56,8v432c0,4.418,3.582,8,8,8h8v24c0,4.418,3.582,8,8,8h32c4.418,0,8-3.582,8-8v-24h240v24c0,4.418,3.582,8,8,8h32
	c4.418,0,8-3.582,8-8v-24h8c4.418,0,8-3.582,8-8V8c0-4.418-3.582-8-8-8H64C59.582,0,56,3.582,56,8z M104,464H88v-16h16V464z
	 M392,464h-16v-16h16V464z M264,16h144v416H264V16z M72,16h56v24H72V16z M72,56h64c4.418,0,8-3.582,8-8V16h104v80H96
	c-4.418,0-8,3.582-8,8s3.582,8,8,8h152v112h-25.84c6.682-10.8,10.099-23.302,9.84-36c0-29.16-15.816-52-36-52
	c-7.527,0.164-14.696,3.241-20,8.584c-5.304-5.343-12.473-8.42-20-8.584c-20.184,0-36,22.84-36,52c-0.259,12.698,3.158,25.2,9.84,36
	H96c-4.418,0-8,3.582-8,8s3.582,8,8,8h152v88h-32v-40c0-4.418-3.582-8-8-8h-8v-8h8c4.418,0,8-3.582,8-8s-3.582-8-8-8h-32
	c-4.418,0-8,3.582-8,8s3.582,8,8,8h8v8h-8c-4.418,0-8,3.582-8,8v40h-16v-40c0-4.418-3.582-8-8-8h-8v-8h8c4.418,0,8-3.582,8-8
	s-3.582-8-8-8h-32c-4.418,0-8,3.582-8,8s3.582,8,8,8h8v8h-8c-4.418,0-8,3.582-8,8v40H72V56z M216,188c0,21.216-10.536,36-20,36
	c-5.688-0.805-10.622-4.343-13.208-9.472c-2.327-3.756-7.259-4.913-11.014-2.586c-1.05,0.651-1.935,1.536-2.586,2.586
	c-2.583,5.125-7.51,8.663-13.192,9.472c-9.464,0-20-14.784-20-36s10.536-36,20-36c5.688,0.805,10.622,4.343,13.208,9.472
	c2.648,3.756,7.838,4.654,11.594,2.006c0.779-0.549,1.457-1.227,2.006-2.006c2.583-5.125,7.51-8.663,13.192-9.472
	C205.464,152,216,166.784,216,188L216,188z M200,296v32h-16v-32H200z M136,296v32h-16v-32H136z M72,344h176v88H72V344z"/>
<path d="M282.344,66.344c-3.123,3.124-3.123,8.188,0,11.312c8.714,8.763,13.621,20.61,13.656,32.968v226.752
	c-0.035,12.358-4.942,24.205-13.656,32.968c-3.178,3.07-3.266,8.134-0.196,11.312c3.07,3.178,8.134,3.266,11.312,0.196
	c0.066-0.064,0.132-0.129,0.196-0.196c11.704-11.771,18.295-27.681,18.344-44.28V110.624c-0.049-16.599-6.64-32.509-18.344-44.28
	C290.532,63.221,285.468,63.221,282.344,66.344z"/>
<path d="M136,392c4.418,0,8-3.582,8-8v-8h32v8c0,4.418,3.582,8,8,8s8-3.582,8-8v-16c0-4.418-3.582-8-8-8h-48c-4.418,0-8,3.582-8,8
	v16C128,388.418,131.582,392,136,392z"/>
<path d="M184,64h16v16h-16V64z"/>
<path d="M152,64h16v16h-16V64z"/>
<path d="M216,64h16v16h-16V64z"/>
<path d="M160,176c-4.418,0-8,3.582-8,8v8c0,4.418,3.582,8,8,8s8-3.582,8-8v-8C168,179.582,164.418,176,160,176z"/>
<path d="M184,184v8c0,4.418,3.582,8,8,8s8-3.582,8-8v-8c0-4.418-3.582-8-8-8S184,179.582,184,184z"/>
<g>
</g>
<g>
</g>
<g>
</g>
<g>
</g>
<g>
</g>
<g>
</g>
<g>
</g>
<g>
</g>
<g>
</g>
<g>
</g>
<g>
</g>
<g>
</g>
<g>
</g>
<g>
</g>
<g>
</g>
</svg>
