<svg height="512" viewBox="0 0 512 512" width="512" xmlns="http://www.w3.org/2000/svg"><g id="filled_outline" data-name="filled outline"><path d="m124 136h112a20 20 0 0 1 20 20v124a0 0 0 0 1 0 0h-152a0 0 0 0 1 0 0v-124a20 20 0 0 1 20-20z" fill="#0bafea"/><path d="m276 136h112a20 20 0 0 1 20 20v124a0 0 0 0 1 0 0h-152a0 0 0 0 1 0 0v-124a20 20 0 0 1 20-20z" fill="#0bafea"/><path d="m256 280h-152v-28a20 20 0 0 1 20-20h112a20 20 0 0 1 20 20z" fill="#0296e5"/><path d="m408 280h-152v-28a20 20 0 0 1 20-20h112a20 20 0 0 1 20 20z" fill="#0296e5"/><path d="m472.881 180.22-32.313-8.078a16 16 0 0 0 -19.623 12.66l-8.654 47.6a265.954 265.954 0 0 0 -4.291 47.583v.015h-304v-.015a265.954 265.954 0 0 0 -4.291-47.585l-8.654-47.6a16 16 0 0 0 -19.623-12.66l-32.313 8.08a16 16 0 0 0 -11.738 18.993l3.094 13.924a400 400 0 0 1 9.525 86.772v24.091a20 20 0 0 0 20 20h392a20 20 0 0 0 20-20v-24.091a400 400 0 0 1 9.525-86.772l3.094-13.924a16 16 0 0 0 -11.738-18.993z" fill="#0bafea"/><path d="m88 376h-24l8-32h40z" fill="#683b0d"/><path d="m440 376h24l-8-32h-40z" fill="#683b0d"/><g fill="#0296e5"><path d="m160 192h-8a8 8 0 0 1 0-16h8a8 8 0 0 1 0 16z"/><path d="m208 192h-8a8 8 0 0 1 0-16h8a8 8 0 0 1 0 16z"/><path d="m312 192h-8a8 8 0 0 1 0-16h8a8 8 0 0 1 0 16z"/><path d="m360 192h-8a8 8 0 0 1 0-16h8a8 8 0 0 1 0 16z"/></g><path d="m388 128h-112a27.912 27.912 0 0 0 -20 8.431 27.912 27.912 0 0 0 -20-8.431h-112a28.032 28.032 0 0 0 -28 28v19.518a23.965 23.965 0 0 0 -26.508-11.137l-32.313 8.078a23.872 23.872 0 0 0 -17.608 28.49l3.094 13.924a392.666 392.666 0 0 1 9.335 85.036v24.091a28.032 28.032 0 0 0 28 28h1.754l-5.515 22.06a8 8 0 0 0 7.761 9.94h24a8 8 0 0 0 6.4-3.2l21.6-28.8h296l21.6 28.8a8 8 0 0 0 6.4 3.2h24a8 8 0 0 0 7.761-9.94l-6.369-25.477a28.022 28.022 0 0 0 14.608-24.583v-24.091a392.666 392.666 0 0 1 9.335-85.036l3.094-13.924a23.87 23.87 0 0 0 -17.608-28.49l-32.313-8.078a23.965 23.965 0 0 0 -26.508 11.137v-19.518a28.032 28.032 0 0 0 -28-28zm-124 28a12.013 12.013 0 0 1 12-12h112a12.013 12.013 0 0 1 12 12v70.707a27.838 27.838 0 0 0 -12-2.707h-112a27.838 27.838 0 0 0 -12 2.707zm0 96a12.013 12.013 0 0 1 12-12h112a12.013 12.013 0 0 1 12 12v20h-136zm-152-96a12.013 12.013 0 0 1 12-12h112a12.013 12.013 0 0 1 12 12v70.707a27.838 27.838 0 0 0 -12-2.707h-112a27.838 27.838 0 0 0 -12 2.707zm0 96a12.013 12.013 0 0 1 12-12h112a12.013 12.013 0 0 1 12 12v20h-136zm-28 116h-9.754l4-16h17.754zm360 0-12-16h17.754l4 16zm-23.838-134.167 8.654-47.6a8 8 0 0 1 9.811-6.329l32.313 8.078a7.956 7.956 0 0 1 5.87 9.5l-3.094 13.918a408.674 408.674 0 0 0 -9.716 88.509v24.091a12.013 12.013 0 0 1 -12 12h-392a12.013 12.013 0 0 1 -12-12v-24.091a408.674 408.674 0 0 0 -9.716-88.509l-3.094-13.921a7.959 7.959 0 0 1 5.87-9.5s33.625-8.322 34.277-8.322a8.014 8.014 0 0 1 7.847 6.574l8.654 47.6a258.616 258.616 0 0 1 4.162 46.169 8 8 0 0 0 8 8h304a8 8 0 0 0 8-8v-.015a258.575 258.575 0 0 1 4.162-46.152z"/><path d="m152 192h8a8 8 0 0 0 0-16h-8a8 8 0 0 0 0 16z"/><path d="m200 192h8a8 8 0 0 0 0-16h-8a8 8 0 0 0 0 16z"/><path d="m304 192h8a8 8 0 0 0 0-16h-8a8 8 0 0 0 0 16z"/><path d="m352 192h8a8 8 0 0 0 0-16h-8a8 8 0 0 0 0 16z"/></g></svg>