<?xml version="1.0"?>
<svg xmlns="http://www.w3.org/2000/svg" xmlns:xlink="http://www.w3.org/1999/xlink" version="1.1" id="Capa_1" x="0px" y="0px" viewBox="0 0 480 480" style="enable-background:new 0 0 480 480;" xml:space="preserve" width="512px" height="512px"><g><path style="fill:#FF9275;" d="M408,160H24L8,256h464l-16-96H408z M112,232c-13.255,0-24-10.745-24-24c0-13.255,10.745-24,24-24  s24,10.745,24,24C136,221.255,125.255,232,112,232z M272,224h-64v-32h64V224z M368,232c-13.255,0-24-10.745-24-24  c0-13.255,10.745-24,24-24s24,10.745,24,24C392,221.255,381.255,232,368,232z" data-original="#FF9275"/><g>
	<circle style="fill:#FFCD00;" cx="112" cy="208" r="24" data-original="#FFCD00"/>
	<circle style="fill:#FFCD00;" cx="368" cy="208" r="24" data-original="#FFCD00"/>
	<path style="fill:#FFCD00;" d="M208,192h64v32h-64V192z" data-original="#FFCD00"/>
</g><path style="fill:#FCC470;" d="M8,432h464V256H8V432z M48,304h384v88H48V304z" data-original="#FCC470"/><path style="fill:#FFEB99;" d="M48,304v88h384v-24v-24v-40H48z" data-original="#FFEB99"/><g>
	<path style="fill:#000000" d="M68.64,96h16c-0.043-1.736,0.628-3.413,1.856-4.64c6.478-8.209,6.478-19.791,0-28   c-2.474-2.62-2.474-6.716,0-9.336c3.198-3.97,4.917-8.927,4.864-14.024h-16c0.042,1.743-0.628,3.427-1.856,4.664   c-6.472,8.211-6.472,19.789,0,28c2.475,2.611,2.475,6.701,0,9.312C70.304,85.944,68.584,90.902,68.64,96z" data-original="#353535" class="active-path" data-old_color="#353535"/>
	<path style="fill:#000000" d="M100.64,96h16c-0.043-1.736,0.628-3.413,1.856-4.64c6.478-8.209,6.478-19.791,0-28   c-2.474-2.62-2.474-6.716,0-9.336c3.198-3.97,4.917-8.927,4.864-14.024h-16c0.042,1.743-0.628,3.427-1.856,4.664   c-6.472,8.211-6.472,19.789,0,28c2.475,2.611,2.475,6.701,0,9.312C102.304,85.944,100.584,90.902,100.64,96z" data-original="#353535" class="active-path" data-old_color="#353535"/>
	<path style="fill:#000000" d="M132.64,96h16c-0.043-1.736,0.628-3.413,1.856-4.64c6.478-8.209,6.478-19.791,0-28   c-2.474-2.62-2.474-6.716,0-9.336c3.198-3.97,4.917-8.927,4.864-14.024h-16c0.042,1.743-0.628,3.427-1.856,4.664   c-6.472,8.211-6.472,19.789,0,28c2.475,2.611,2.475,6.701,0,9.312C134.304,85.944,132.584,90.902,132.64,96z" data-original="#353535" class="active-path" data-old_color="#353535"/>
	<path style="fill:#000000" d="M388.64,96h16c-0.043-1.736,0.628-3.413,1.856-4.64c6.478-8.209,6.478-19.791,0-28   c-2.474-2.62-2.474-6.716,0-9.336c3.198-3.97,4.917-8.927,4.864-14.024h-16c0.042,1.743-0.628,3.427-1.856,4.664   c-6.472,8.211-6.472,19.789,0,28c2.475,2.611,2.475,6.701,0,9.312C390.304,85.944,388.584,90.902,388.64,96z" data-original="#353535" class="active-path" data-old_color="#353535"/>
	<path style="fill:#000000" d="M356.64,96h16c-0.043-1.736,0.628-3.413,1.856-4.64c6.478-8.209,6.478-19.791,0-28   c-2.474-2.62-2.474-6.716,0-9.336c3.198-3.97,4.917-8.927,4.864-14.024h-16c0.042,1.743-0.628,3.427-1.856,4.664   c-6.472,8.211-6.472,19.789,0,28c2.475,2.611,2.475,6.701,0,9.312C358.304,85.944,356.584,90.902,356.64,96z" data-original="#353535" class="active-path" data-old_color="#353535"/>
	<path style="fill:#000000" d="M324.64,96h16c-0.043-1.736,0.628-3.413,1.856-4.64c6.478-8.209,6.478-19.791,0-28   c-2.474-2.62-2.474-6.716,0-9.336c3.198-3.97,4.917-8.927,4.864-14.024h-16c0.042,1.743-0.628,3.427-1.856,4.664   c-6.472,8.211-6.472,19.789,0,28c2.475,2.611,2.475,6.701,0,9.312C326.304,85.944,324.584,90.902,324.64,96z" data-original="#353535" class="active-path" data-old_color="#353535"/>
	<path style="fill:#000000" d="M112,176c-17.673,0-32,14.327-32,32s14.327,32,32,32s32-14.327,32-32S129.673,176,112,176z M112,224   c-8.837,0-16-7.163-16-16c0-8.837,7.163-16,16-16s16,7.163,16,16C128,216.837,120.837,224,112,224z" data-original="#353535" class="active-path" data-old_color="#353535"/>
	<path style="fill:#000000" d="M368,176c-17.673,0-32,14.327-32,32s14.327,32,32,32s32-14.327,32-32S385.673,176,368,176z M368,224   c-8.837,0-16-7.163-16-16c0-8.837,7.163-16,16-16s16,7.163,16,16C384,216.837,376.837,224,368,224z" data-original="#353535" class="active-path" data-old_color="#353535"/>
	<path style="fill:#000000" d="M272,184h-64c-4.418,0-8,3.582-8,8v32c0,4.418,3.582,8,8,8h64c4.418,0,8-3.582,8-8v-32   C280,187.582,276.418,184,272,184z M264,216h-48v-16h48V216z" data-original="#353535" class="active-path" data-old_color="#353535"/>
	<path style="fill:#000000" d="M479.856,255.304c0.012-0.205,0.012-0.411,0-0.616l-16-96c-0.639-3.846-3.958-6.671-7.856-6.688h-40   v-16h16v-16h-8v-8h-16v8h-32v-8h-16v8h-32v-8h-16v8h-8v16h16v16H160v-16h16v-16h-8v-8h-16v8h-32v-8h-16v8H72v-8H56v8h-8v16h16v16   H24c-3.911,0.002-7.247,2.83-7.888,6.688l-16,96c-0.012,0.205-0.012,0.411,0,0.616C0.062,255.534,0.025,255.766,0,256v176   c0,4.418,3.582,8,8,8l0,0h464c4.418,0,8-3.582,8-8V256C479.964,255.766,479.916,255.533,479.856,255.304z M336,136h64v16h-64V136z    M80,136h64v16H80V136z M30.776,168h418.448l13.328,80H17.448L30.776,168z M464,424H16V264h448V424z" data-original="#353535" class="active-path" data-old_color="#353535"/>
	<path style="fill:#000000" d="M48,400h384c4.418,0,8-3.582,8-8v-88c0-4.418-3.582-8-8-8H48c-4.418,0-8,3.582-8,8v88   C40,396.418,43.582,400,48,400z M56,312h368v24h-56v16h56v8h-40v16h40v8H56V312z" data-original="#353535" class="active-path" data-old_color="#353535"/>
	<path style="fill:#000000" d="M352,360h16v16h-16V360z" data-original="#353535" class="active-path" data-old_color="#353535"/>
</g></g> </svg>
