<svg id="Capa_1" enable-background="new 0 0 512 512" height="512" viewBox="0 0 512 512" width="512" xmlns="http://www.w3.org/2000/svg"><g><g><path d="m498.69 360.129h-485.38c-3.209 0-5.81-2.601-5.81-5.81v-306.698c0-3.209 2.601-5.81 5.81-5.81h485.381c3.208 0 5.809 2.601 5.809 5.809v306.7c0 3.208-2.601 5.809-5.81 5.809z" fill="#4a80aa"/></g><g><path d="m32.5 334.093v-266.246c0-.572.464-1.036 1.036-1.036h444.927c.572 0 1.036.464 1.036 1.036v266.246c0 .572-.464 1.036-1.036 1.036h-444.927c-.572 0-1.036-.464-1.036-1.036z" fill="#365e7d"/></g><g><path d="m478.464 66.811h-38.964v160.791c0 48.34-39.188 87.528-87.528 87.528h-319.472v18.964c0 .572.464 1.036 1.036 1.036h444.927c.572 0 1.036-.464 1.036-1.036v-266.247c.001-.572-.463-1.036-1.035-1.036z" fill="#2b4d66"/></g><g><path d="m120.404 443.658c-.165.557-.25 1.136-.25 1.722v18.737c0 3.354 2.719 6.072 6.072 6.072h259.547c3.354 0 6.072-2.719 6.072-6.072v-18.737c0-.586-.086-1.165-.25-1.722z" fill="#a2b9e2"/></g><g><path d="m274.625 418.018c-12.189 3.363-25.061 3.363-37.25 0-1.478-.408-2.502-1.753-2.502-3.286v-16.37c0-13.46-3.639-26.67-10.532-38.232h63.319c-6.893 11.561-10.532 24.772-10.532 38.232v16.37c-.001 1.533-1.025 2.878-2.503 3.286z" fill="#a2b9e2"/></g><g><path d="m390.942 442.192-26.098-42.315c-1.106-1.793-3.062-2.885-5.168-2.885h-82.536c-.008.456-.013.912-.013 1.369v16.37c0 1.534-1.024 2.878-2.502 3.286-12.189 3.363-25.061 3.363-37.25 0-1.478-.408-2.502-1.753-2.502-3.286v-16.37c0-.457-.005-.913-.013-1.369h-82.535c-2.107 0-4.063 1.092-5.168 2.885l-26.098 42.315c-.283.46-.502.953-.654 1.466h271.191c-.152-.513-.371-1.006-.654-1.466z" fill="#b9cbea"/></g><path d="m498.691 34.311h-485.381c-7.339 0-13.31 5.971-13.31 13.31v306.698c0 7.339 5.971 13.31 13.31 13.31h206.618c3.525 6.849 5.841 14.248 6.856 21.863h-74.459c-4.743 0-9.062 2.41-11.552 6.448l-26.099 42.317c-1.313 2.13-2.019 4.599-2.019 7.123v18.737c0 7.484 6.088 13.572 13.572 13.572h259.547c7.483 0 13.572-6.088 13.572-13.572v-18.737c0-2.535-.715-5.012-2.021-7.125l-26.098-42.314c-2.489-4.038-6.809-6.449-11.553-6.449h-74.459c1.015-7.614 3.331-15.013 6.856-21.863h134.126c4.143 0 7.5-3.358 7.5-7.5s-3.357-7.5-7.5-7.5h-411.197v-303.318h482v303.318h-35.802c-4.143 0-7.5 3.358-7.5 7.5s3.357 7.5 7.5 7.5h37.492c7.339 0 13.31-5.971 13.31-13.31v-306.699c0-7.339-5.971-13.309-13.309-13.309zm-120.283 401.847h-168.784c-4.142 0-7.5 3.358-7.5 7.5s3.358 7.5 7.5 7.5h174.722v11.531h-256.692v-11.531h46.969c4.142 0 7.5-3.358 7.5-7.5s-3.358-7.5-7.5-7.5h-41.032l19.53-31.666h74.251v10.239c0 4.891 3.293 9.215 8.007 10.516 13.545 3.737 27.803 3.707 41.239 0 4.715-1.3 8.008-5.625 8.008-10.516v-10.239h74.252zm-102.815-68.529c-3.925 9.732-5.966 20.167-5.966 30.732v13.175c-8.974 2.004-18.283 2.003-27.254 0v-13.175c0-10.565-2.041-21.001-5.965-30.732z"/><path d="m51.94 74.311c4.142 0 7.5-3.358 7.5-7.5s-3.358-7.5-7.5-7.5h-18.404c-4.707 0-8.536 3.829-8.536 8.536v266.246c0 4.707 3.829 8.536 8.536 8.536h444.928c4.707 0 8.536-3.829 8.536-8.536v-266.246c0-4.707-3.829-8.536-8.536-8.536h-391.524c-4.142 0-7.5 3.358-7.5 7.5s3.358 7.5 7.5 7.5h385.06v253.318h-432v-253.318z"/></g></svg>