<svg height="512" viewBox="0 0 512 512" width="512" xmlns="http://www.w3.org/2000/svg"><g><g><path d="m32 16h448v32h-448z" fill="#5f4d37"/><path d="m40 48h432v424h-432z" fill="#a0815c"/><path d="m80 496h-24v-24h32z" fill="#5f4d37"/><path d="m440 496h24v-24h-32z" fill="#5f4d37"/><path d="m64 72h184v376h-184z" fill="#3d9ae2"/><path d="m272 384h176v64h-176z" fill="#5f4d37"/><path d="m272 296h176v64h-176z" fill="#5f4d37"/><path d="m272 72h176v200h-176z" fill="#3d9ae2"/><g fill="#a0815c"><path d="m316 220 72-72"/><path d="m324 176 40-40"/><path d="m360 216 32-32"/></g></g><g><path d="m480 8h-448a8 8 0 0 0 -8 8v32a8 8 0 0 0 8 8v416a8 8 0 0 0 8 8h8v16a8 8 0 0 0 8 8h24a8 8 0 0 0 7.59-5.47l6.18-18.53h332.46l6.18 18.53a8 8 0 0 0 7.59 5.47h24a8 8 0 0 0 8-8v-16a8 8 0 0 0 8-8v-416a8 8 0 0 0 8-8v-32a8 8 0 0 0 -8-8zm-405.77 480h-10.23v-8h12.9zm381.77 0h-10.23l-2.67-8h12.9zm8-24h-416v-408h416zm8-424h-432v-16h432z"/><path d="m64 456h184a8 8 0 0 0 8-8v-376a8 8 0 0 0 -8-8h-184a8 8 0 0 0 -8 8v376a8 8 0 0 0 8 8zm8-376h168v360h-168z"/><path d="m224 224a8 8 0 0 0 -8 8v48a8 8 0 0 0 16 0v-48a8 8 0 0 0 -8-8z"/><path d="m272 456h176a8 8 0 0 0 8-8v-64a8 8 0 0 0 -8-8h-176a8 8 0 0 0 -8 8v64a8 8 0 0 0 8 8zm8-64h160v48h-160z"/><path d="m376 400h-32a8 8 0 0 0 0 16h32a8 8 0 0 0 0-16z"/><path d="m272 368h176a8 8 0 0 0 8-8v-64a8 8 0 0 0 -8-8h-176a8 8 0 0 0 -8 8v64a8 8 0 0 0 8 8zm8-64h160v48h-160z"/><path d="m376 312h-32a8 8 0 0 0 0 16h32a8 8 0 0 0 0-16z"/><path d="m272 280h176a8 8 0 0 0 8-8v-200a8 8 0 0 0 -8-8h-176a8 8 0 0 0 -8 8v200a8 8 0 0 0 8 8zm8-200h160v184h-160z"/><path d="m393.657 142.343a8 8 0 0 0 -11.314 0l-72 72a8 8 0 0 0 11.314 11.314l72-72a8 8 0 0 0 0-11.314z"/><path d="m324 184a7.974 7.974 0 0 0 5.657-2.343l40-40a8 8 0 0 0 -11.314-11.314l-40 40a8 8 0 0 0 5.657 13.657z"/><path d="m386.343 178.343-32 32a8 8 0 0 0 11.314 11.314l32-32a8 8 0 0 0 -11.314-11.314z"/></g></g></svg>