<svg height="512" viewBox="0 0 512 512" width="512" xmlns="http://www.w3.org/2000/svg"><g id="filled_outline" data-name="filled outline"><path d="m74 24h364a18 18 0 0 1 18 18v446a0 0 0 0 1 0 0h-400a0 0 0 0 1 0 0v-446a18 18 0 0 1 18-18z" fill="#eaeae8"/><path d="m56 120h400v336h-400z" fill="#cbcbcb"/><path d="m88 88v-16a16 16 0 0 1 16-16h48a16 16 0 0 1 16 16v16z" fill="#cbcbcb"/><path d="m232 56h96v32h-96z" fill="#43dcfe"/><circle cx="360" cy="72" fill="#6ee7f5" r="8"/><circle cx="392" cy="72" fill="#6ee7f5" r="8"/><circle cx="424" cy="72" fill="#6ee7f5" r="8"/><path d="m192 24h16v96h-16z" fill="#cbcbcb"/><path d="m56 456h400v32h-400z" fill="#eaeae8"/><circle cx="256" cy="288" fill="#a8a8a8" r="128"/><circle cx="256" cy="288" fill="#6ee7f5" r="96"/><g fill="#43dcfe"><path d="m216 296a8 8 0 0 1 -8-8 48.055 48.055 0 0 1 48-48 8 8 0 0 1 0 16 32.036 32.036 0 0 0 -32 32 8 8 0 0 1 -8 8z"/><path d="m256 336a8 8 0 0 1 0-16 32.036 32.036 0 0 0 32-32 8 8 0 0 1 16 0 48.055 48.055 0 0 1 -48 48z"/><path d="m384 288a127.67 127.67 0 0 1 -8.06 44.79l-31.93-6.39a96.27 96.27 0 0 0 0-76.8l31.93-6.39a127.67 127.67 0 0 1 8.06 44.79z"/></g><path d="m232 56h88v24h-88z" fill="#6ee7f5"/><path d="m256 152c-74.991 0-136 61.009-136 136s61.009 136 136 136 136-61.009 136-136-61.009-136-136-136zm88 136a88 88 0 1 1 -88-88 88.1 88.1 0 0 1 88 88zm10.824-32.406 15.8-3.161a120.235 120.235 0 0 1 0 71.134l-15.8-3.161a104.032 104.032 0 0 0 0-64.812zm-98.824 152.406a120 120 0 1 1 108.743-170.708l-16.22 3.247a104 104 0 1 0 0 94.922l16.22 3.247a120.154 120.154 0 0 1 -108.743 69.292z"/><path d="m438 16h-364a26.03 26.03 0 0 0 -26 26v446a8 8 0 0 0 8 8h400a8 8 0 0 0 8-8v-446a26.03 26.03 0 0 0 -26-26zm-374 112h384v320h-384zm384-86v70h-240v-80h230a10.011 10.011 0 0 1 10 10zm-374-10h118v80h-128v-70a10.011 10.011 0 0 1 10-10zm374 448h-384v-16h384z"/><path d="m88 96h80a8 8 0 0 0 8-8v-16a24.027 24.027 0 0 0 -24-24h-48a24.027 24.027 0 0 0 -24 24v16a8 8 0 0 0 8 8zm8-24a8.009 8.009 0 0 1 8-8h48a8.009 8.009 0 0 1 8 8v8h-64z"/><path d="m232 96h96a8 8 0 0 0 8-8v-32a8 8 0 0 0 -8-8h-96a8 8 0 0 0 -8 8v32a8 8 0 0 0 8 8zm8-32h80v16h-80z"/><path d="m264 248a8 8 0 0 0 -8-8 48.055 48.055 0 0 0 -48 48 8 8 0 0 0 16 0 32.036 32.036 0 0 1 32-32 8 8 0 0 0 8-8z"/><path d="m296 280a8 8 0 0 0 -8 8 32.036 32.036 0 0 1 -32 32 8 8 0 0 0 0 16 48.055 48.055 0 0 0 48-48 8 8 0 0 0 -8-8z"/><circle cx="360" cy="72" r="8"/><circle cx="392" cy="72" r="8"/><circle cx="424" cy="72" r="8"/></g></svg>