<svg id="Layer_1_1_" enable-background="new 0 0 64 64" height="512" viewBox="0 0 64 64" width="512" xmlns="http://www.w3.org/2000/svg"><path d="m54 3h-44c-1.657 0-3 1.343-3 3v11 41c0 1.657 1.343 3 3 3h44c1.657 0 3-1.343 3-3v-41-11c0-1.657-1.343-3-3-3z" fill="#cfcfcf"/><circle cx="32" cy="39" fill="#fff" r="14"/><g fill="#606060"><path d="m11 7h10v4h-10z"/><circle cx="38" cy="10" r="3"/><path d="m32 57c9.941 0 18-8.059 18-18s-8.059-18-18-18-18 8.059-18 18 8.059 18 18 18zm0-32c7.732 0 14 6.268 14 14s-6.268 14-14 14c-5.388 0-10.057-3.048-12.398-7.509-1.019-1.941-1.602-4.147-1.602-6.491 0-7.732 6.268-14 14-14z"/></g><path d="m45.64 42.114c-.749-.94-1.623-1.704-3.043-1.704-3.701 0-3.701 5.18-7.403 5.18-3.699 0-3.699-5.18-7.398-5.18-3.7 0-3.7 5.18-7.4 5.18-.289 0-.548-.041-.795-.099 2.342 4.461 7.011 7.509 12.399 7.509 6.66 0 12.223-4.655 13.64-10.886z" fill="#57a7e6"/><path d="m54 58h-44c-1.657 0-3-1.343-3-3v3c0 1.657 1.343 3 3 3h44c1.657 0 3-1.343 3-3v-3c0 1.657-1.343 3-3 3z" fill="#b8b8b8"/><path d="m44 11h2v2h-2z"/><path d="m48 11h2v2h-2z"/><path d="m52 11h2v2h-2z"/><path d="m11 12h10c.553 0 1-.448 1-1v-4c0-.552-.447-1-1-1h-10c-.553 0-1 .448-1 1v4c0 .552.447 1 1 1zm1-4h8v2h-8z"/><path d="m32 24c-8.271 0-15 6.729-15 15s6.729 15 15 15 15-6.729 15-15-6.729-15-15-15zm0 28c-4.386 0-8.264-2.189-10.62-5.527 1.728-.388 2.718-1.754 3.531-2.892.962-1.346 1.615-2.171 2.886-2.171s1.924.825 2.886 2.171c.957 1.34 2.148 3.008 4.512 3.008 2.365 0 3.558-1.668 4.516-3.009.962-1.346 1.616-2.171 2.888-2.171.741 0 1.315.297 1.94.973-1.496 5.532-6.543 9.618-12.539 9.618zm12.945-11.91c-.62-.4-1.385-.68-2.347-.68-2.365 0-3.557 1.668-4.515 3.008-.962 1.346-1.616 2.171-2.889 2.171-1.27 0-1.923-.825-2.885-2.171-.957-1.34-2.148-3.009-4.513-3.009s-3.556 1.668-4.513 3.008c-.962 1.346-1.615 2.171-2.887 2.171-.04 0-.08-.005-.12-.008-.809-1.692-1.276-3.58-1.276-5.58 0-7.168 5.832-13 13-13s13 5.832 13 13c0 .368-.025.73-.055 1.09z"/><path d="m10 62h44c2.206 0 4-1.794 4-4v-52c0-2.206-1.794-4-4-4h-44c-2.206 0-4 1.794-4 4v52c0 2.206 1.794 4 4 4zm44-2h-44c-1.103 0-2-.897-2-2v-40h48v40c0 1.103-.897 2-2 2zm-44-56h44c1.103 0 2 .897 2 2v10h-48v-10c0-1.103.897-2 2-2z"/><path d="m44 7h2v2h-2z"/><path d="m48 7h2v2h-2z"/><path d="m52 7h2v2h-2z"/><path d="m38 14c2.206 0 4-1.794 4-4s-1.794-4-4-4-4 1.794-4 4 1.794 4 4 4zm0-6c1.103 0 2 .897 2 2s-.897 2-2 2-2-.897-2-2 .897-2 2-2z"/><path d="m32 27v2c3.775 0 7.189 2.09 8.91 5.455l1.781-.91c-2.064-4.037-6.161-6.545-10.691-6.545z"/><path d="m32 20c-10.477 0-19 8.523-19 19s8.523 19 19 19 19-8.523 19-19-8.523-19-19-19zm0 36c-9.374 0-17-7.626-17-17s7.626-17 17-17 17 7.626 17 17-7.626 17-17 17z"/></svg>