<?xml version="1.0" encoding="iso-8859-1"?>
<!-- Generator: Adobe Illustrator 19.0.0, SVG Export Plug-In . SVG Version: 6.00 Build 0)  -->
<svg version="1.1" id="Capa_1" xmlns="http://www.w3.org/2000/svg" xmlns:xlink="http://www.w3.org/1999/xlink" x="0px" y="0px"
	 viewBox="0 0 512.004 512.004" style="enable-background:new 0 0 512.004 512.004;" xml:space="preserve">
<path style="fill:#F6BB42;" d="M103.999,416.004c2.8,0,5.52-0.488,8-1.448v33.448h-24v-32H103.999z"/>
<path style="fill:#5D9CEC;" d="M143.999,414.556v33.448h-32v-33.448c9.36-3.192,16-12.08,16-22.552
	C127.999,402.484,134.639,411.364,143.999,414.556z"/>
<g>
	<path style="fill:#EDAB37;" d="M167.999,416.004v32h-24v-33.448c2.48,0.96,5.2,1.448,8,1.448H167.999z"/>
	<path style="fill:#EDAB37;" d="M167.999,264.004v32h-24v-33.448c2.48,0.96,5.2,1.448,8,1.448H167.999z"/>
</g>
<path style="fill:#F6BB42;" d="M167.999,192.004v72h-16c-2.8,0-5.52-0.488-8-1.448c-9.36-3.192-16-12.08-16-22.552v-48H167.999z"/>
<path style="fill:#FFCE54;" d="M87.999,264.004v-72h40v48c0,10.48-6.64,19.36-16,22.552c-2.48,0.96-5.2,1.448-8,1.448H87.999z"/>
<path style="fill:#F6BB42;" d="M87.999,264.004h16c2.8,0,5.52-0.488,8-1.448v33.448h-24V264.004z"/>
<path style="fill:#5D9CEC;" d="M143.999,262.556v33.448h-32v-33.448c9.36-3.192,16-12.08,16-22.552
	C127.999,250.484,134.639,259.364,143.999,262.556z"/>
<path style="fill:#FFCE54;" d="M111.999,414.556c-2.48,0.96-5.2,1.448-8,1.448h-16v-72h40v48
	C127.999,402.484,121.359,411.364,111.999,414.556z"/>
<path style="fill:#F6BB42;" d="M167.999,344.004v72h-16c-2.8,0-5.52-0.488-8-1.448c-9.36-3.192-16-12.08-16-22.552v-48H167.999z"/>
<path style="fill:#5D9CEC;" d="M399.999,414.556v33.448h-32v-33.448c9.36-3.192,16-12.08,16-22.552
	C383.999,402.484,390.639,411.364,399.999,414.556z"/>
<rect x="215.999" y="344.004" style="fill:#656D78;" width="80" height="160"/>
<path style="fill:#FFCE54;" d="M343.999,416.004v-72h40v48c0,10.48-6.64,19.36-16,22.552c-2.48,0.96-5.2,1.448-8,1.448H343.999z"/>
<path style="fill:#F6BB42;" d="M359.999,416.004c2.8,0,5.52-0.488,8-1.448v33.448h-24v-32H359.999z"/>
<path style="fill:#EDAB37;" d="M423.999,416.004v32h-24v-33.448c2.48,0.96,5.2,1.448,8,1.448H423.999z"/>
<path style="fill:#F6BB42;" d="M423.999,344.004v72h-16c-2.8,0-5.52-0.488-8-1.448c-9.36-3.192-16-12.08-16-22.552v-48H423.999z"/>
<path style="fill:#EDAB37;" d="M423.999,264.004v32h-24v-33.448c2.48,0.96,5.2,1.448,8,1.448H423.999z"/>
<path style="fill:#F6BB42;" d="M343.999,264.004h16c2.8,0,5.52-0.488,8-1.448v33.448h-24V264.004z"/>
<path style="fill:#5D9CEC;" d="M399.999,262.556v33.448h-32v-33.448c9.36-3.192,16-12.08,16-22.552
	C383.999,250.484,390.639,259.364,399.999,262.556z"/>
<path style="fill:#F6BB42;" d="M423.999,192.004v72h-16c-2.8,0-5.52-0.488-8-1.448c-9.36-3.192-16-12.08-16-22.552v-48H423.999z"/>
<path style="fill:#FFCE54;" d="M343.999,264.004v-72h40v48c0,10.48-6.64,19.36-16,22.552c-2.48,0.96-5.2,1.448-8,1.448H343.999z"/>
<path style="fill:#5D9CEC;" d="M271.999,262.556v33.448h-32v-33.448c9.36-3.192,16-12.08,16-22.552
	C255.999,250.484,262.639,259.364,271.999,262.556z"/>
<path style="fill:#F6BB42;" d="M231.999,264.004c2.8,0,5.52-0.488,8-1.448v33.448h-24v-32H231.999z"/>
<path style="fill:#EDAB37;" d="M295.999,264.004v32h-24v-33.448c2.48,0.96,5.2,1.448,8,1.448H295.999z"/>
<path style="fill:#F6BB42;" d="M295.999,192.004v72h-16c-2.8,0-5.52-0.488-8-1.448c-9.36-3.192-16-12.08-16-22.552v-48H295.999z"/>
<path style="fill:#FFCE54;" d="M239.999,262.556c-2.48,0.96-5.2,1.448-8,1.448h-16v-72h40v48
	C255.999,250.484,249.359,259.364,239.999,262.556z"/>
<path style="fill:#E6E9ED;" d="M295.999,296.004v-32v-72h-40h-40v72v32h24h32H295.999z M343.999,448.004h24h32h24v-32v-72h-40h-40
	v72V448.004z M343.999,296.004h24h32h24v-32v-72h-40h-40v72V296.004z M87.999,448.004h24h32h24v-32v-72h-40h-40v72V448.004z
	 M87.999,296.004h24h32h24v-32v-72h-40h-40v72V296.004z M471.999,144.004v360h-176v-160h-80v160h-176v-360H471.999z"/>
<rect x="439.999" y="144.004" style="fill:#CCD1D9;" width="32" height="360"/>
<polygon style="fill:#DA4453;" points="495.999,120.004 495.999,144.004 471.999,144.004 39.999,144.004 15.999,144.004 
	15.999,120.004 151.999,120.004 195.679,120.004 316.319,120.004 359.999,120.004 "/>
<polygon style="fill:#D3374E;" points="463.999,120.004 463.999,144.004 471.999,144.004 495.999,144.004 495.999,120.004 "/>
<polygon style="fill:#ED5565;" points="495.999,120.004 359.999,120.004 293.119,48.004 471.999,48.004 "/>
<polygon style="fill:#DA4453;" points="471.999,48.004 439.999,48.004 463.999,120.004 495.999,120.004 "/>
<polygon style="fill:#D3374E;" points="255.999,55.044 316.319,120.004 195.679,120.004 "/>
<polygon style="fill:#DA4453;" points="293.119,48.004 359.999,120.004 316.319,120.004 255.999,55.044 195.679,120.004 
	151.999,120.004 218.879,48.004 255.999,8.004 "/>
<polygon style="fill:#ED5565;" points="39.999,48.004 218.879,48.004 151.999,120.004 15.999,120.004 "/>
<path d="M495.999,128.004h-480c-4.424,0-8-3.576-8-8s3.576-8,8-8h480c4.424,0,8,3.576,8,8S500.423,128.004,495.999,128.004z"/>
<path d="M495.999,152.004h-480c-4.424,0-8-3.576-8-8s3.576-8,8-8h480c4.424,0,8,3.576,8,8S500.423,152.004,495.999,152.004z"/>
<path d="M15.999,128.004c-0.832,0-1.688-0.136-2.528-0.416c-4.184-1.392-6.456-5.92-5.056-10.12l24-72
	c1.4-4.184,5.88-6.456,10.112-5.048c4.184,1.392,6.456,5.92,5.056,10.12l-24,72C22.471,125.884,19.351,128.004,15.999,128.004z"/>
<path d="M495.999,128.004c-3.352,0-6.472-2.12-7.584-5.472l-24-72c-1.4-4.192,0.864-8.728,5.056-10.12
	c4.232-1.408,8.72,0.864,10.12,5.056l24,72c1.4,4.192-0.864,8.728-5.056,10.12C497.687,127.868,496.831,128.004,495.999,128.004z"/>
<path d="M218.855,56.004H39.999c-4.424,0-8-3.576-8-8s3.576-8,8-8h178.856c4.424,0,8,3.576,8,8S223.279,56.004,218.855,56.004z"/>
<path d="M151.999,128.004c-1.952,0-3.904-0.712-5.448-2.144c-3.232-3-3.424-8.064-0.416-11.304l104.008-112
	c2.992-3.24,8.072-3.424,11.304-0.416c3.232,3,3.424,8.064,0.416,11.304l-104.008,112
	C156.287,127.148,154.151,128.004,151.999,128.004z"/>
<path d="M359.999,128.004c-2.152,0-4.288-0.856-5.856-2.552l-103.992-112c-3.008-3.24-2.824-8.304,0.416-11.304
	c3.224-3.008,8.296-2.832,11.304,0.416l103.992,112c3.008,3.24,2.824,8.304-0.416,11.304
	C363.903,127.292,361.951,128.004,359.999,128.004z"/>
<path d="M471.999,56.004H293.151c-4.424,0-8-3.576-8-8s3.576-8,8-8h178.848c4.424,0,8,3.576,8,8S476.423,56.004,471.999,56.004z"/>
<path d="M39.999,512.004c-4.424,0-8-3.576-8-8v-360c0-4.424,3.576-8,8-8s8,3.576,8,8v360
	C47.999,508.428,44.423,512.004,39.999,512.004z"/>
<path d="M472.007,512.004c-4.424,0-8-3.576-8-8v-360c0-4.424,3.576-8,8-8s8,3.576,8,8v360
	C480.007,508.428,476.431,512.004,472.007,512.004z"/>
<path d="M495.999,512.004h-480c-4.424,0-8-3.576-8-8s3.576-8,8-8h480c4.424,0,8,3.576,8,8S500.423,512.004,495.999,512.004z"/>
<path d="M167.999,304.004c-4.424,0-8-3.576-8-8v-96h-64v96c0,4.424-3.576,8-8,8s-8-3.576-8-8v-104c0-4.424,3.576-8,8-8h80
	c4.424,0,8,3.576,8,8v104C175.999,300.428,172.423,304.004,167.999,304.004z"/>
<path d="M175.999,304.004h-96c-4.424,0-8-3.576-8-8s3.576-8,8-8h96c4.424,0,8,3.576,8,8S180.423,304.004,175.999,304.004z"/>
<path d="M295.999,304.004c-4.424,0-8-3.576-8-8v-96h-64v96c0,4.424-3.576,8-8,8s-8-3.576-8-8v-104c0-4.424,3.576-8,8-8h80
	c4.424,0,8,3.576,8,8v104C303.999,300.428,300.423,304.004,295.999,304.004z"/>
<path d="M295.999,512.004c-4.424,0-8-3.576-8-8v-152h-64v152c0,4.424-3.576,8-8,8s-8-3.576-8-8v-160c0-4.424,3.576-8,8-8h80
	c4.424,0,8,3.576,8,8v160C303.999,508.428,300.423,512.004,295.999,512.004z"/>
<path d="M303.999,304.004h-96c-4.424,0-8-3.576-8-8s3.576-8,8-8h96c4.424,0,8,3.576,8,8S308.423,304.004,303.999,304.004z"/>
<path d="M423.999,304.004c-4.424,0-8-3.576-8-8v-96h-64v96c0,4.424-3.576,8-8,8s-8-3.576-8-8v-104c0-4.424,3.576-8,8-8h80
	c4.424,0,8,3.576,8,8v104C431.999,300.428,428.423,304.004,423.999,304.004z"/>
<path d="M431.999,304.004h-96c-4.424,0-8-3.576-8-8s3.576-8,8-8h96c4.424,0,8,3.576,8,8S436.423,304.004,431.999,304.004z"/>
<path d="M167.999,456.004c-4.424,0-8-3.576-8-8v-96h-64v96c0,4.424-3.576,8-8,8s-8-3.576-8-8v-104c0-4.424,3.576-8,8-8h80
	c4.424,0,8,3.576,8,8v104C175.999,452.428,172.423,456.004,167.999,456.004z"/>
<path d="M175.999,456.004h-96c-4.424,0-8-3.576-8-8s3.576-8,8-8h96c4.424,0,8,3.576,8,8S180.423,456.004,175.999,456.004z"/>
<path d="M423.999,456.004c-4.424,0-8-3.576-8-8v-96h-64v96c0,4.424-3.576,8-8,8s-8-3.576-8-8v-104c0-4.424,3.576-8,8-8h80
	c4.424,0,8,3.576,8,8v104C431.999,452.428,428.423,456.004,423.999,456.004z"/>
<path d="M431.999,456.004h-96c-4.424,0-8-3.576-8-8s3.576-8,8-8h96c4.424,0,8,3.576,8,8S436.423,456.004,431.999,456.004z"/>
<path d="M15.999,152.004c-4.424,0-8-3.576-8-8v-24c0-4.424,3.576-8,8-8s8,3.576,8,8v24
	C23.999,148.428,20.423,152.004,15.999,152.004z"/>
<path d="M495.999,152.004c-4.424,0-8-3.576-8-8v-24c0-4.424,3.576-8,8-8s8,3.576,8,8v24
	C503.999,148.428,500.423,152.004,495.999,152.004z"/>
<path d="M447.999,80.004h-92.568c-4.424,0-8-3.576-8-8s3.576-8,8-8h92.568c4.424,0,8,3.576,8,8S452.423,80.004,447.999,80.004z"/>
<path d="M455.999,104.004h-78.28c-4.424,0-8-3.576-8-8s3.576-8,8-8h78.28c4.424,0,8,3.576,8,8S460.423,104.004,455.999,104.004z"/>
<path d="M156.575,80.004H63.999c-4.424,0-8-3.576-8-8s3.576-8,8-8h92.576c4.424,0,8,3.576,8,8S160.999,80.004,156.575,80.004z"/>
<path d="M134.287,104.004H55.999c-4.424,0-8-3.576-8-8s3.576-8,8-8h78.288c4.424,0,8,3.576,8,8S138.711,104.004,134.287,104.004z"/>
<path d="M127.999,248.004c-4.424,0-8-3.576-8-8v-48c0-4.424,3.576-8,8-8s8,3.576,8,8v48
	C135.999,244.428,132.423,248.004,127.999,248.004z"/>
<path d="M103.999,272.004c-4.424,0-8-3.576-8-8s3.576-8,8-8c8.824,0,16-7.176,16-16c0-4.424,3.576-8,8-8s8,3.576,8,8
	C135.999,257.652,121.647,272.004,103.999,272.004z"/>
<path d="M103.999,272.004h-16c-4.424,0-8-3.576-8-8s3.576-8,8-8h16c4.424,0,8,3.576,8,8S108.423,272.004,103.999,272.004z"/>
<path d="M111.999,304.004c-4.424,0-8-3.576-8-8v-33.392c0-4.424,3.576-8,8-8s8,3.576,8,8v33.392
	C119.999,300.428,116.423,304.004,111.999,304.004z"/>
<path d="M151.999,272.004c-17.648,0-32-14.352-32-32c0-4.424,3.576-8,8-8s8,3.576,8,8c0,8.824,7.176,16,16,16c4.424,0,8,3.576,8,8
	S156.423,272.004,151.999,272.004z"/>
<path d="M167.999,272.004h-16c-4.424,0-8-3.576-8-8s3.576-8,8-8h16c4.424,0,8,3.576,8,8S172.423,272.004,167.999,272.004z"/>
<path d="M143.999,304.004c-4.424,0-8-3.576-8-8v-33.392c0-4.424,3.576-8,8-8s8,3.576,8,8v33.392
	C151.999,300.428,148.423,304.004,143.999,304.004z"/>
<path d="M256.007,248.004c-4.424,0-8-3.576-8-8v-48c0-4.424,3.576-8,8-8s8,3.576,8,8v48
	C264.007,244.428,260.431,248.004,256.007,248.004z"/>
<path d="M232.007,272.004c-4.424,0-8-3.576-8-8s3.576-8,8-8c8.824,0,16-7.176,16-16c0-4.424,3.576-8,8-8s8,3.576,8,8
	C264.007,257.652,249.655,272.004,232.007,272.004z"/>
<path d="M232.007,272.004h-16c-4.424,0-8-3.576-8-8s3.576-8,8-8h16c4.424,0,8,3.576,8,8S236.431,272.004,232.007,272.004z"/>
<path d="M240.007,304.004c-4.424,0-8-3.576-8-8v-33.392c0-4.424,3.576-8,8-8s8,3.576,8,8v33.392
	C248.007,300.428,244.431,304.004,240.007,304.004z"/>
<path d="M280.007,272.004c-17.648,0-32-14.352-32-32c0-4.424,3.576-8,8-8s8,3.576,8,8c0,8.824,7.176,16,16,16c4.424,0,8,3.576,8,8
	S284.431,272.004,280.007,272.004z"/>
<path d="M296.007,272.004h-16c-4.424,0-8-3.576-8-8s3.576-8,8-8h16c4.424,0,8,3.576,8,8S300.431,272.004,296.007,272.004z"/>
<path d="M272.007,304.004c-4.424,0-8-3.576-8-8v-33.392c0-4.424,3.576-8,8-8s8,3.576,8,8v33.392
	C280.007,300.428,276.431,304.004,272.007,304.004z"/>
<path d="M384.015,248.004c-4.424,0-8-3.576-8-8v-48c0-4.424,3.576-8,8-8s8,3.576,8,8v48
	C392.015,244.428,388.439,248.004,384.015,248.004z"/>
<path d="M360.015,272.004c-4.424,0-8-3.576-8-8s3.576-8,8-8c8.824,0,16-7.176,16-16c0-4.424,3.576-8,8-8s8,3.576,8,8
	C392.015,257.652,377.663,272.004,360.015,272.004z"/>
<path d="M360.015,272.004h-16c-4.424,0-8-3.576-8-8s3.576-8,8-8h16c4.424,0,8,3.576,8,8S364.439,272.004,360.015,272.004z"/>
<path d="M368.015,304.004c-4.424,0-8-3.576-8-8v-33.392c0-4.424,3.576-8,8-8s8,3.576,8,8v33.392
	C376.015,300.428,372.439,304.004,368.015,304.004z"/>
<path d="M408.015,272.004c-17.648,0-32-14.352-32-32c0-4.424,3.576-8,8-8s8,3.576,8,8c0,8.824,7.176,16,16,16c4.424,0,8,3.576,8,8
	S412.439,272.004,408.015,272.004z"/>
<path d="M424.015,272.004h-16c-4.424,0-8-3.576-8-8s3.576-8,8-8h16c4.424,0,8,3.576,8,8S428.439,272.004,424.015,272.004z"/>
<path d="M400.015,304.004c-4.424,0-8-3.576-8-8v-33.392c0-4.424,3.576-8,8-8s8,3.576,8,8v33.392
	C408.015,300.428,404.439,304.004,400.015,304.004z"/>
<path d="M127.999,400.004c-4.424,0-8-3.576-8-8v-48c0-4.424,3.576-8,8-8s8,3.576,8,8v48
	C135.999,396.428,132.423,400.004,127.999,400.004z"/>
<path d="M103.999,424.004c-4.424,0-8-3.576-8-8s3.576-8,8-8c8.824,0,16-7.176,16-16c0-4.424,3.576-8,8-8s8,3.576,8,8
	C135.999,409.652,121.647,424.004,103.999,424.004z"/>
<path d="M103.999,424.004h-16c-4.424,0-8-3.576-8-8s3.576-8,8-8h16c4.424,0,8,3.576,8,8S108.423,424.004,103.999,424.004z"/>
<path d="M111.999,456.004c-4.424,0-8-3.576-8-8v-33.392c0-4.424,3.576-8,8-8s8,3.576,8,8v33.392
	C119.999,452.428,116.423,456.004,111.999,456.004z"/>
<path d="M151.999,424.004c-17.648,0-32-14.352-32-32c0-4.424,3.576-8,8-8s8,3.576,8,8c0,8.824,7.176,16,16,16c4.424,0,8,3.576,8,8
	S156.423,424.004,151.999,424.004z"/>
<path d="M167.999,424.004h-16c-4.424,0-8-3.576-8-8s3.576-8,8-8h16c4.424,0,8,3.576,8,8S172.423,424.004,167.999,424.004z"/>
<path d="M143.999,456.004c-4.424,0-8-3.576-8-8v-33.392c0-4.424,3.576-8,8-8s8,3.576,8,8v33.392
	C151.999,452.428,148.423,456.004,143.999,456.004z"/>
<path d="M384.015,400.004c-4.424,0-8-3.576-8-8v-48c0-4.424,3.576-8,8-8s8,3.576,8,8v48
	C392.015,396.428,388.439,400.004,384.015,400.004z"/>
<path d="M360.015,424.004c-4.424,0-8-3.576-8-8s3.576-8,8-8c8.824,0,16-7.176,16-16c0-4.424,3.576-8,8-8s8,3.576,8,8
	C392.015,409.652,377.663,424.004,360.015,424.004z"/>
<path d="M360.015,424.004h-16c-4.424,0-8-3.576-8-8s3.576-8,8-8h16c4.424,0,8,3.576,8,8S364.439,424.004,360.015,424.004z"/>
<path d="M368.015,456.004c-4.424,0-8-3.576-8-8v-33.392c0-4.424,3.576-8,8-8s8,3.576,8,8v33.392
	C376.015,452.428,372.439,456.004,368.015,456.004z"/>
<path d="M408.015,424.004c-17.648,0-32-14.352-32-32c0-4.424,3.576-8,8-8s8,3.576,8,8c0,8.824,7.176,16,16,16c4.424,0,8,3.576,8,8
	S412.439,424.004,408.015,424.004z"/>
<path d="M424.015,424.004h-16c-4.424,0-8-3.576-8-8s3.576-8,8-8h16c4.424,0,8,3.576,8,8S428.439,424.004,424.015,424.004z"/>
<path d="M400.015,456.004c-4.424,0-8-3.576-8-8v-33.392c0-4.424,3.576-8,8-8s8,3.576,8,8v33.392
	C408.015,452.428,404.439,456.004,400.015,456.004z"/>
<path d="M239.999,440.004c-4.424,0-8-3.576-8-8v-16c0-4.424,3.576-8,8-8s8,3.576,8,8v16
	C247.999,436.428,244.423,440.004,239.999,440.004z"/>
<path d="M195.671,127.988c-1.952,0-3.904-0.712-5.448-2.144c-3.232-3.008-3.424-8.072-0.416-11.304l60.336-64.952
	c3.008-3.232,8.088-3.408,11.304-0.416c3.232,3.008,3.424,8.072,0.416,11.304l-60.336,64.952
	C199.959,127.132,197.823,127.988,195.671,127.988z"/>
<path d="M316.335,127.988c-2.152,0-4.28-0.856-5.856-2.552l-60.336-64.952c-3.008-3.232-2.824-8.296,0.416-11.304
	c3.224-3.008,8.296-2.824,11.304,0.416l60.336,64.952c3.008,3.232,2.824,8.296-0.416,11.304
	C320.239,127.276,318.287,127.988,316.335,127.988z"/>
<g>
</g>
<g>
</g>
<g>
</g>
<g>
</g>
<g>
</g>
<g>
</g>
<g>
</g>
<g>
</g>
<g>
</g>
<g>
</g>
<g>
</g>
<g>
</g>
<g>
</g>
<g>
</g>
<g>
</g>
</svg>
