<svg id="Capa_1" enable-background="new 0 0 496.075 496.075" height="512" viewBox="0 0 496.075 496.075" width="512" xmlns="http://www.w3.org/2000/svg"><g><path d="m150.376 14.937 7.814 11.009v125.205l-7.814 26.6 74.677-46.056v-116.758z" fill="#baafb9"/><path d="m438.223 407.949h-282.649v-243.646l141.325-94.74 141.324 98.754z" fill="#ee6161"/><path d="m230.178 163.215 65.692-44.305c2.086-1.407 4.817-1.407 6.902 0l135.451 91.353v-41.945l-122.351-85.497-18.974-13.258-141.324 94.74v243.646h48.927 233.722v-12.654-57.378l-45.016 23.193c-2.463 1.269-5.474.546-7.109-1.691-2.034-2.782-4.342-5.395-6.91-7.803-10.464-9.817-24.452-14.997-38.8-14.997h-66.285c-1.72 0-3.358-.777-4.408-2.139-6.365-8.25-14.217-15.302-23.203-20.778-7.974-4.851-16.647-8.333-25.667-10.356-4.483-1.006-7.624-5.056-7.624-9.651v-98.555c0-12.802 6.363-24.767 16.977-31.925z" fill="#e94444"/><path d="m348.913 315.216c0-27.389-22.203-49.591-49.591-49.591-27.389 0-49.592 22.203-49.592 49.591v77.206h99.183z" fill="#f9f7f8"/><path d="m348.913 337.244c-2.811-.409-5.66-.625-8.525-.625h-66.285c-1.72 0-3.357-.777-4.408-2.139-5.588-7.243-12.323-13.561-19.965-18.702v76.644h99.183z" fill="#e5e1e5"/><path d="m42.207 432.991c36.98.805 121.969 3.261 121.969 3.261l85.554 42.15 56.348 7.438 48.597-23.802 98.577-68.062 40.387-35.946c-.377-.857-.806-1.7-1.302-2.522-5.95-9.86-18.53-13.43-28.77-8.15l-85.92 44.266c-.425.219-.921-.085-.935-.563-.548-19.12-16.212-34.443-35.465-34.443h-81.07c-5.61-10.86-14.02-19.7-24.08-25.83-10.06-6.12-21.77-9.53-33.99-9.53h-20.61c-16.12 0-31.67 5.95-43.66 16.72l-11.16 10.01h-23.52-77.8v59.96h16.85z" fill="#fed2a4"/><path d="m25.357 380.004h16.85v27.944h-16.85z" fill="#ffbd86"/><path d="m492.337 355.509c-.574-.951-1.206-1.839-1.895-2.67-1.234 1.484-2.698 2.845-4.355 3.996l-130.83 90.93c-34.13 23.72-78.48 26.96-115.71 8.46l-69.325-34.456c-1.831-.91-3.849-1.384-5.894-1.384h-24.012c-9.477 0-17.16-7.683-17.16-17.16v-55.236h-20-77.8v59.96h16.85v12.436 12.607 15.338h60.95 64.28l72.11 35.84c37.23 18.5 81.58 15.26 115.71-8.46l130.83-90.93c6.09-4.23 9.4-11.04 9.4-17.99.001-3.851-1.019-7.751-3.149-11.281z" fill="#ffbd86"/><g id="XMLID_143_"><g><path d="m80.927 321.489h-72.187c-4.503 0-8.153 3.65-8.153 8.153v34.957l29.579 19.37h59.886l13.104-19.37v-20.88c.001-12.278-9.951-22.23-22.229-22.23z" fill="#9b8e99"/><path d="m19.778 468.341c-.086 0 68.784-1.935 68.784-1.935l10.833-14.4 3.763-43.169v-44.239h-102.571v58.306l5.95 40.407s13.326 5.03 13.241 5.03z" fill="#aa9ea9"/><path d="m80.937 431.058h-72.197c-4.503 0-8.153-3.65-8.153-8.153v42.401c0 4.503 3.65 8.153 8.153 8.153h72.197c12.272 0 22.22-9.948 22.22-22.22v-42.401c0 12.271-9.948 22.22-22.22 22.22z" fill="#9b8e99"/></g></g><circle cx="37.753" cy="423.257" fill="#d7d0d6" r="16.919"/><g><path d="m192.391 59.096h32.661v-44.159h-74.677v162.814l23.785-14.669 50.891-31.387v-56.693l-40.777 27.502c-2.221 1.498-5.213-.093-5.213-2.772v-27.307c.001-7.362 5.969-13.329 13.33-13.329z" fill="#aa9ea9"/><path d="m460.57 201.21-158.827-107.118c-1.464-.987-3.381-.987-4.845 0l-158.825 107.118c-1.984 1.338-4.676.814-6.014-1.169l-15.284-22.663c-1.338-1.984-.814-4.676 1.169-6.014l171.313-115.541c6.082-4.103 14.047-4.103 20.129 0l171.314 115.541c1.984 1.338 2.507 4.03 1.169 6.014l-15.284 22.663c-1.339 1.984-4.031 2.507-6.015 1.169z" fill="#baafb9"/></g><path d="m261.437 225.588h-28.18c-5.273 0-9.547-4.274-9.547-9.547v-28.18c0-5.273 4.274-9.547 9.547-9.547h28.18c5.273 0 9.547 4.274 9.547 9.547v28.18c0 5.273-4.274 9.547-9.547 9.547z" fill="#a6e7f0"/><path d="m337.206 225.588h28.18c5.273 0 9.547-4.274 9.547-9.547v-28.18c0-5.273-4.274-9.547-9.547-9.547h-28.18c-5.273 0-9.547 4.274-9.547 9.547v28.18c0 5.273 4.274 9.547 9.547 9.547z" fill="#a6e7f0"/><path d="m368.559 412.081c10.777 0 20.078-6.731 22.098-15.936l2.922-12.728-15.931 8.208c-.425.219-.921-.085-.935-.563-.01-.33-.034-.655-.052-.983l-.638 2.779c-.494 2.249-3.981 4.222-7.463 4.222h-124.87c-4.143 0-7.5 3.358-7.5 7.5s3.357 7.5 7.5 7.5h124.869z" fill="#ffbd86"/><path d="m157.347 2.042-13.167 3s-1.667 25.5-1.667 26.667 6.333 2.5 6.333 2.5l82.167-1.5 5.906-8.602v-12.239c.002-6.555-5.312-11.868-11.866-11.868h-62.789z" fill="#baafb9"/><path d="m174.132 24.107c-6.554 0-11.868-5.313-11.868-11.868v-12.239h-11.888c-6.555 0-11.868 5.313-11.868 11.868v15.359c0 6.555 5.313 11.868 11.868 11.868h74.677c6.554 0 11.868-5.313 11.868-11.868v-3.121h-62.789z" fill="#aa9ea9"/></g></svg>