<?xml version="1.0" encoding="iso-8859-1"?>
<!-- Generator: Adobe Illustrator 19.0.0, SVG Export Plug-In . SVG Version: 6.00 Build 0)  -->
<svg version="1.1" id="Capa_1" xmlns="http://www.w3.org/2000/svg" xmlns:xlink="http://www.w3.org/1999/xlink" x="0px" y="0px"
	 viewBox="0 0 512 512" style="enable-background:new 0 0 512 512;" xml:space="preserve">
<path style="fill:#CCD1D9;" d="M424,480v8c0,8.88-7.12,16-16,16H104c-8.88,0-16-7.12-16-16v-8h48h48h48h48h48h48H424z"/>
<path style="fill:#AAB2BD;" d="M392,480v8c0,8.88-7.12,16-16,16h32c8.88,0,16-7.12,16-16v-8H392z"/>
<path style="fill:#E6E9ED;" d="M56,248c8.8,0,16,7.2,16,16c0,8.808-7.2,16-16,16s-16-7.192-16-16C40,255.2,47.2,248,56,248z"/>
<path style="fill:#CCD1D9;" d="M456,248c8.8,0,16,7.2,16,16c0,8.808-7.2,16-16,16s-16-7.192-16-16C440,255.2,447.2,248,456,248z"/>
<polygon style="fill:#E6E9ED;" points="424,312 400,312 376,312 352,312 328,312 280,312 232,312 184,312 160,312 136,312 112,312 
	88,312 56,312 56,480 88,480 136,480 184,480 232,480 280,480 328,480 376,480 424,480 456,480 456,312 "/>
<rect x="424" y="312" style="fill:#CCD1D9;" width="32" height="168"/>
<path style="fill:#D3374E;" d="M400,256v56h-24h-24v-64.16C367.04,253.128,383.2,256,400,256z"/>
<path style="fill:#DA4453;" d="M400,152v104c-16.8,0-32.96-2.872-48-8.16c-55.92-19.76-96-73.04-96-135.84v-8V8
	C335.52,8,400,72.488,400,152z"/>
<path style="fill:#BC2E49;" d="M368,256v56h8h24v-56c-11,0-21.68-1.344-32-3.68V256z"/>
<path style="fill:#D3374E;" d="M256,8v3.696C320.104,26.264,368,83.504,368,152v100.32c10.32,2.336,21,3.68,32,3.68V152
	C400,72.488,335.52,8,256,8z"/>
<path style="fill:#ED5565;" d="M256,104v8c0,62.808-40.08,116.088-96,135.84c-15.04,5.28-31.2,8.16-48,8.16V152
	C112,72.488,176.48,8,256,8V104z"/>
<g>
	<path style="fill:#DA4453;" d="M240.016,8.936c0,0-0.008,0-0.016,0c5.448,0.6,10.76,1.608,16,2.8V8
		c-4.176,0-8.296,0.272-12.392,0.624C242.416,8.736,241.2,8.808,240.016,8.936z"/>
	<path style="fill:#DA4453;" d="M160,247.84V312h-24h-24v-56C128.8,256,144.96,253.128,160,247.84z"/>
</g>
<path style="fill:#5D9CEC;" d="M352,247.84V312h-24h-48h-48h-48h-24v-64.16c55.92-19.76,96-73.04,96-135.84
	C256,174.808,296.08,228.088,352,247.84z"/>
<path d="M400,160c-4.424,0-8-3.576-8-8c0-74.992-61.008-136-136-136S120,77.008,120,152c0,4.424-3.576,8-8,8s-8-3.576-8-8
	C104,68.184,172.184,0,256,0s152,68.184,152,152C408,156.424,404.424,160,400,160z"/>
<path d="M456,320H56c-4.424,0-8-3.576-8-8s3.576-8,8-8h400c4.424,0,8,3.576,8,8S460.424,320,456,320z"/>
<path d="M456,488H56c-4.424,0-8-3.576-8-8s3.576-8,8-8h400c4.424,0,8,3.576,8,8S460.424,488,456,488z"/>
<path d="M88,488c-4.424,0-8-3.576-8-8V312c0-4.424,3.576-8,8-8s8,3.576,8,8v168C96,484.424,92.424,488,88,488z"/>
<path d="M136,488c-4.424,0-8-3.576-8-8V312c0-4.424,3.576-8,8-8s8,3.576,8,8v168C144,484.424,140.424,488,136,488z"/>
<path d="M184,488c-4.424,0-8-3.576-8-8V312c0-4.424,3.576-8,8-8s8,3.576,8,8v168C192,484.424,188.424,488,184,488z"/>
<path d="M232,488c-4.424,0-8-3.576-8-8V312c0-4.424,3.576-8,8-8s8,3.576,8,8v168C240,484.424,236.424,488,232,488z"/>
<path d="M280,488c-4.424,0-8-3.576-8-8V312c0-4.424,3.576-8,8-8s8,3.576,8,8v168C288,484.424,284.424,488,280,488z"/>
<path d="M328,488c-4.424,0-8-3.576-8-8V312c0-4.424,3.576-8,8-8s8,3.576,8,8v168C336,484.424,332.424,488,328,488z"/>
<path d="M376,488c-4.424,0-8-3.576-8-8V312c0-4.424,3.576-8,8-8s8,3.576,8,8v168C384,484.424,380.424,488,376,488z"/>
<path d="M424,488c-4.424,0-8-3.576-8-8V312c0-4.424,3.576-8,8-8s8,3.576,8,8v168C432,484.424,428.424,488,424,488z"/>
<path d="M104,512c-13.232,0-24-10.768-24-24c0-4.424,3.576-8,8-8s8,3.576,8,8c0,4.416,3.584,8,8,8c4.424,0,8,3.576,8,8
	S108.424,512,104,512z"/>
<path d="M88,496c-4.424,0-8-3.576-8-8v-8c0-4.424,3.576-8,8-8s8,3.576,8,8v8C96,492.424,92.424,496,88,496z"/>
<path d="M408,512c-4.424,0-8-3.576-8-8s3.576-8,8-8c4.416,0,8-3.584,8-8c0-4.424,3.576-8,8-8s8,3.576,8,8
	C432,501.232,421.232,512,408,512z"/>
<path d="M424,496c-4.424,0-8-3.576-8-8v-8c0-4.424,3.576-8,8-8s8,3.576,8,8v8C432,492.424,428.424,496,424,496z"/>
<path d="M408,512H104c-4.424,0-8-3.576-8-8s3.576-8,8-8h304c4.424,0,8,3.576,8,8S412.424,512,408,512z"/>
<path d="M112,320c-4.424,0-8-3.576-8-8V152c0-4.424,3.576-8,8-8s8,3.576,8,8v160C120,316.424,116.424,320,112,320z"/>
<path d="M400,320c-4.424,0-8-3.576-8-8V152c0-4.424,3.576-8,8-8s8,3.576,8,8v160C408,316.424,404.424,320,400,320z"/>
<path d="M256,120c-4.424,0-8-3.576-8-8V8c0-4.424,3.576-8,8-8c4.424,0,8,3.576,8,8v104C264,116.424,260.424,120,256,120z"/>
<path d="M112,264c-4.424,0-8-3.576-8-8s3.576-8,8-8c74.992,0,136-61.008,136-136c0-4.424,3.576-8,8-8c4.424,0,8,3.576,8,8
	C264,195.816,195.816,264,112,264z"/>
<path d="M400,264c-83.816,0-152-68.184-152-152c0-4.424,3.576-8,8-8c4.424,0,8,3.576,8,8c0,74.992,61.008,136,136,136
	c4.424,0,8,3.576,8,8C408,260.424,404.424,264,400,264z"/>
<path d="M352,320c-4.424,0-8-3.576-8-8v-64.192c0-4.424,3.576-8,8-8s8,3.576,8,8V312C360,316.424,356.424,320,352,320z"/>
<path d="M160,320c-4.424,0-8-3.576-8-8v-64.192c0-4.424,3.576-8,8-8s8,3.576,8,8V312C168,316.424,164.424,320,160,320z"/>
<path d="M56,288c-13.232,0-24-10.768-24-24s10.768-24,24-24s24,10.768,24,24S69.232,288,56,288z M56,256c-4.416,0-8,3.584-8,8
	s3.584,8,8,8s8-3.584,8-8S60.416,256,56,256z"/>
<path d="M456,288c-13.232,0-24-10.768-24-24s10.768-24,24-24s24,10.768,24,24S469.232,288,456,288z M456,256c-4.416,0-8,3.584-8,8
	s3.584,8,8,8s8-3.584,8-8S460.416,256,456,256z"/>
<path d="M56,488c-4.424,0-8-3.576-8-8V280c0-4.424,3.576-8,8-8s8,3.576,8,8v200C64,484.424,60.424,488,56,488z"/>
<path d="M456,488c-4.424,0-8-3.576-8-8V280c0-4.424,3.576-8,8-8s8,3.576,8,8v200C464,484.424,460.424,488,456,488z"/>
<g>
</g>
<g>
</g>
<g>
</g>
<g>
</g>
<g>
</g>
<g>
</g>
<g>
</g>
<g>
</g>
<g>
</g>
<g>
</g>
<g>
</g>
<g>
</g>
<g>
</g>
<g>
</g>
<g>
</g>
</svg>
