<?xml version="1.0" encoding="iso-8859-1"?>
<!-- Generator: Adobe Illustrator 19.0.0, SVG Export Plug-In . SVG Version: 6.00 Build 0)  -->
<svg version="1.1" id="Capa_1" xmlns="http://www.w3.org/2000/svg" xmlns:xlink="http://www.w3.org/1999/xlink" x="0px" y="0px"
	 viewBox="0 0 511.998 511.998" style="enable-background:new 0 0 511.998 511.998;" xml:space="preserve">
<path style="fill:#9C5F7C;" d="M63.985,268.485h384.028V114.717H343.255c-21.078-15.754-47.237-25.082-75.575-25.082h-23.361
	c-28.338,0-54.497,9.329-75.575,25.082H63.985V268.485z"/>
<path style="fill:#CCECFB;" d="M327.06,268.485H184.938v-44.141c0-20.006,16.218-36.225,36.225-36.225h69.673
	c20.006,0,36.225,16.218,36.225,36.225v44.141H327.06z"/>
<g>
	<path style="fill:#A7DEF2;" d="M187.59,210.713h-67.454c-20.006,0-36.225,16.218-36.225,36.225v21.548h101.026v-44.141
		C184.938,219.522,185.88,214.921,187.59,210.713z"/>
	<path style="fill:#A7DEF2;" d="M391.861,210.713h-67.453c1.71,4.208,2.652,8.81,2.652,13.631v44.141h101.026v-21.548
		C428.086,226.931,411.867,210.713,391.861,210.713z"/>
</g>
<rect x="10" y="360.639" style="fill:#9C5F7C;" width="492" height="59.48"/>
<path style="fill:#E697B4;" d="M501.998,321.721c0-29.402-23.835-53.236-53.236-53.236H63.236C33.834,268.485,10,292.32,10,321.721
	v38.914h491.998V321.721z"/>
<g>
	<path style="fill:#FDD6B7;" d="M448.013,103.466v165.019h0.749c16.188,0,30.689,7.226,40.453,18.627V103.467l2.908-2.932
		c6.199-6.247,9.613-14.532,9.613-23.327c0-18.263-14.858-33.122-33.122-33.122s-33.122,14.859-33.122,33.122
		c0,8.796,3.414,17.08,9.614,23.328L448.013,103.466z"/>
	<rect x="448.01" y="420.119" style="fill:#FDD6B7;" width="41.2" height="47.794"/>
	<path style="fill:#FDD6B7;" d="M22.783,103.466v183.647c9.764-11.402,24.265-18.628,40.453-18.628h0.749V103.467l2.908-2.932
		c6.199-6.247,9.613-14.532,9.613-23.327c0-18.263-14.858-33.122-33.122-33.122S10.262,58.945,10.262,77.208
		c0,8.796,3.414,17.08,9.614,23.328L22.783,103.466z"/>
	<rect x="22.783" y="420.119" style="fill:#FDD6B7;" width="41.2" height="47.794"/>
</g>
<path d="M433.569,310.107c-0.65,0-1.31-0.06-1.95-0.189c-0.64-0.13-1.27-0.32-1.88-0.57c-0.6-0.25-1.18-0.56-1.72-0.92
	c-0.55-0.37-1.06-0.79-1.52-1.25s-0.88-0.97-1.25-1.52c-0.36-0.54-0.67-1.12-0.92-1.721c-0.25-0.609-0.44-1.239-0.57-1.87
	c-0.13-0.649-0.19-1.3-0.19-1.96c0-0.649,0.06-1.31,0.19-1.949c0.13-0.641,0.32-1.271,0.57-1.87c0.25-0.61,0.56-1.19,0.92-1.73
	c0.37-0.55,0.79-1.06,1.25-1.52s0.97-0.88,1.52-1.24c0.54-0.36,1.12-0.67,1.72-0.92c0.61-0.25,1.24-0.44,1.88-0.57
	c1.28-0.26,2.61-0.26,3.9,0c0.64,0.13,1.27,0.32,1.87,0.57c0.61,0.25,1.19,0.56,1.73,0.92c0.55,0.36,1.06,0.78,1.52,1.24
	s0.88,0.97,1.24,1.52c0.36,0.54,0.67,1.12,0.92,1.73c0.25,0.6,0.44,1.229,0.57,1.87c0.13,0.64,0.2,1.3,0.2,1.949
	c0,2.631-1.07,5.21-2.93,7.07c-0.46,0.46-0.97,0.88-1.52,1.25c-0.539,0.36-1.12,0.67-1.73,0.92c-0.6,0.25-1.23,0.44-1.87,0.57
	C434.879,310.048,434.219,310.107,433.569,310.107z"/>
<path d="M499.215,283.64V107.585l0.006-0.006c8.071-8.133,12.516-18.919,12.516-30.371c0-23.777-19.344-43.121-43.122-43.121
	s-43.122,19.344-43.122,43.121c0,10.155,3.496,19.787,9.915,27.509h-88.896c-23.119-16.421-50.3-25.082-78.831-25.082H244.32
	c-28.531,0-55.712,8.661-78.831,25.082H76.591c6.419-7.722,9.915-17.354,9.915-27.509c0-23.777-19.344-43.121-43.122-43.121
	S0.262,53.431,0.262,77.208c0,11.452,4.445,22.238,12.516,30.372l0.005,176.06C4.762,294.24,0,307.435,0,321.722v98.394
	c0,5.522,4.477,10,10,10h2.783v37.794c0,5.522,4.477,10,10,10h41.202c5.523,0,10-4.478,10-10v-37.794h364.028v37.794
	c0,5.522,4.477,10,10,10h41.202c5.523,0,10-4.478,10-10v-37.794h2.783c5.523,0,10-4.478,10-10v-98.394
	C511.998,307.435,507.236,294.24,499.215,283.64z M53.985,457.909H32.783v-27.793h21.202V457.909z M479.215,457.909h-21.202v-27.793
	h21.202V457.909z M491.998,410.115H20v-39.48h471.998V410.115z M20,350.636v-28.914c0-4.021,0.552-7.915,1.584-11.611h369.927
	c5.523,0,10-4.478,10-10s-4.477-10-10-10H33.768c4.355-4.062,9.547-7.237,15.286-9.236c0.132-0.046,0.263-0.091,0.396-0.136
	c0.006-0.002,0.011-0.004,0.017-0.005c3.642-1.223,7.46-1.964,11.362-2.181c0.022-0.001,0.043-0.003,0.065-0.004
	c0.161-0.009,0.322-0.016,0.483-0.023c0.037-0.002,0.075-0.003,0.112-0.005c0.15-0.006,0.3-0.011,0.45-0.015
	c0.045-0.001,0.091-0.003,0.136-0.004c0.148-0.004,0.296-0.007,0.445-0.009c0.046-0.001,0.092-0.002,0.138-0.003
	c0.193-0.003,0.386-0.004,0.579-0.004h385.526c0.193,0,0.386,0.001,0.579,0.004c0.046,0.001,0.092,0.002,0.138,0.003
	c0.148,0.002,0.296,0.005,0.445,0.009c0.045,0.001,0.091,0.003,0.136,0.004c0.15,0.004,0.301,0.009,0.451,0.015
	c0.037,0.001,0.074,0.003,0.111,0.005c0.161,0.007,0.323,0.014,0.484,0.023c0.021,0.001,0.043,0.002,0.064,0.003
	c4.072,0.226,8.053,1.024,11.837,2.344c0.034,0.012,0.068,0.023,0.101,0.035c0.033,0.011,0.065,0.023,0.097,0.035
	c16.76,5.957,28.793,21.977,28.793,40.755v28.914L20,350.636L20,350.636z M174.954,223.102c-0.001,0.043-0.002,0.086-0.003,0.129
	c-0.003,0.14-0.006,0.281-0.008,0.421c-0.001,0.05-0.002,0.1-0.002,0.15c-0.002,0.181-0.003,0.361-0.003,0.542v34.141H93.912
	v-11.548c0-14.46,11.764-26.225,26.225-26.225h54.941C175.016,221.506,174.975,222.302,174.954,223.102z M194.938,224.345
	c0-0.111,0.001-0.221,0.002-0.331c0-0.022,0.001-0.044,0.001-0.066c0.001-0.092,0.003-0.184,0.005-0.276
	c0-0.006,0-0.012,0.001-0.018c0.367-14.143,11.986-25.535,26.216-25.535h69.673c14.23,0,25.85,11.393,26.216,25.538
	c0,0.005,0,0.01,0,0.015c0.002,0.092,0.004,0.185,0.005,0.277c0,0.021,0.001,0.043,0.001,0.064c0.001,0.11,0.002,0.221,0.002,0.331
	v34.141H194.938V224.345z M337.06,224.345c0-0.181-0.001-0.362-0.003-0.542c-0.001-0.05-0.001-0.1-0.002-0.15
	c-0.002-0.141-0.005-0.281-0.008-0.421c-0.001-0.043-0.002-0.086-0.003-0.129c-0.021-0.8-0.062-1.596-0.123-2.389h54.941
	c14.461,0,26.225,11.765,26.225,26.225v11.548H337.06V224.345z M468.614,54.087c12.75,0,23.122,10.372,23.122,23.121
	c0,6.139-2.384,11.922-6.714,16.285l-2.908,2.932c-1.857,1.873-2.9,4.404-2.9,7.042v162.828c-3.126-1.718-6.394-3.168-9.767-4.335
	c-0.151-0.052-0.302-0.104-0.453-0.155c-0.03-0.01-0.06-0.02-0.09-0.03c-3.505-1.181-7.146-2.062-10.892-2.614V103.466
	c0-2.639-1.043-5.17-2.901-7.043l-2.907-2.931c-4.329-4.361-6.712-10.146-6.712-16.284
	C445.492,64.459,455.865,54.087,468.614,54.087z M168.743,124.717c2.158,0,4.258-0.698,5.987-1.99
	c20.212-15.106,44.275-23.092,69.588-23.092h23.361c25.313,0,49.376,7.985,69.588,23.092c1.729,1.292,3.829,1.99,5.987,1.99h94.753
	l0.004,119.605c-1.361-24.276-21.54-43.609-46.151-43.609h-61.31c-8.075-13.52-22.855-22.594-39.715-22.594h-69.673
	c-16.86,0-31.64,9.074-39.715,22.594h-61.311c-24.618,0-44.802,19.344-46.152,43.631V124.717H168.743z M43.384,54.087
	c12.75,0,23.122,10.372,23.122,23.121c0,6.139-2.383,11.922-6.713,16.285l-2.908,2.932c-1.857,1.873-2.9,4.404-2.9,7.042v155.694
	c-3.744,0.551-7.381,1.432-10.883,2.611c-0.035,0.012-0.069,0.023-0.104,0.035c-0.149,0.051-0.298,0.102-0.447,0.153
	c-3.374,1.167-6.641,2.618-9.768,4.336v-162.83c0-2.639-1.043-5.171-2.902-7.044l-2.907-2.93
	c-4.329-4.361-6.712-10.146-6.712-16.284C20.262,64.459,30.634,54.087,43.384,54.087z"/>
<g>
</g>
<g>
</g>
<g>
</g>
<g>
</g>
<g>
</g>
<g>
</g>
<g>
</g>
<g>
</g>
<g>
</g>
<g>
</g>
<g>
</g>
<g>
</g>
<g>
</g>
<g>
</g>
<g>
</g>
</svg>
