<?xml version="1.0" encoding="iso-8859-1"?>
<!-- Generator: Adobe Illustrator 19.0.0, SVG Export Plug-In . SVG Version: 6.00 Build 0)  -->
<svg version="1.1" id="Capa_1" xmlns="http://www.w3.org/2000/svg" xmlns:xlink="http://www.w3.org/1999/xlink" x="0px" y="0px"
	 viewBox="0 0 512 512" style="enable-background:new 0 0 512 512;" xml:space="preserve">
<rect x="16" y="16" style="fill:#E6E9ED;" width="480" height="479.92"/>
<polygon style="fill:#656D78;" points="496,160.04 496,255.96 352,255.96 352,208.04 400,208.04 440,208.04 448,208.04 448,160.04 
	"/>
<g>
	<path style="fill:#F5F7FA;" d="M52,288.04c6.64,0,12,5.36,12,12c0,6.56-5.36,12-12,12s-12-5.44-12-12
		C40,293.4,45.36,288.04,52,288.04z"/>
	<polygon style="fill:#F5F7FA;" points="40,320.04 16,320.04 16,280.04 40,280.04 40,300.04 	"/>
</g>
<path style="fill:#656D78;" d="M68,424.04c6.64,0,12,5.36,12,12c0,6.56-5.36,12-12,12s-12-5.44-12-12
	C56,429.4,61.36,424.04,68,424.04z"/>
<rect x="16" y="408.08" style="fill:#965353;" width="24" height="56"/>
<polygon style="fill:#656D78;" points="256,368.04 256,464.04 216,464.04 216,416.04 216,368.04 "/>
<rect x="256" y="368.08" style="fill:#FFD2A6;" width="40" height="96"/>
<g>
	<path style="fill:#965353;" d="M300,160.04c6.64,0,12,5.36,12,12c0,6.56-5.36,12-12,12s-12-5.44-12-12
		C288,165.4,293.36,160.04,300,160.04z"/>
	<path style="fill:#965353;" d="M300,48.04c6.64,0,12,5.36,12,12c0,6.56-5.36,12-12,12s-12-5.44-12-12
		C288,53.4,293.36,48.04,300,48.04z"/>
	<path style="fill:#965353;" d="M252,48.04c6.64,0,12,5.36,12,12c0,6.56-5.36,12-12,12s-12-5.44-12-12
		C240,53.4,245.36,48.04,252,48.04z"/>
	<path style="fill:#965353;" d="M204,48.04c6.64,0,12,5.36,12,12c0,6.56-5.36,12-12,12s-12-5.44-12-12
		C192,53.4,197.36,48.04,204,48.04z"/>
	<path style="fill:#965353;" d="M204,160.04c6.64,0,12,5.36,12,12c0,6.56-5.36,12-12,12s-12-5.44-12-12
		C192,165.4,197.36,160.04,204,160.04z"/>
	<path style="fill:#965353;" d="M252,160.04c6.64,0,12,5.36,12,12c0,6.56-5.36,12-12,12s-12-5.44-12-12
		C240,165.4,245.36,160.04,252,160.04z"/>
</g>
<rect x="192" y="96.08" style="fill:#FFD2A6;" width="120" height="40"/>
<rect x="56" y="48" style="fill:#F5F7FA;" width="64" height="32"/>
<rect x="56" y="80.08" style="fill:#ED5565;" width="64" height="72"/>
<g>
	<rect x="368" y="288.08" style="fill:#F5F7FA;" width="48" height="32"/>
	<rect x="416" y="288.08" style="fill:#F5F7FA;" width="48" height="32"/>
</g>
<polygon style="fill:#ED5565;" points="464,320.04 464,416.04 368,416.04 368,320.04 416,320.04 "/>
<path d="M16,512c-4.424,0-8-3.576-8-8V8.032c0-4.416,3.576-8,8-8s8,3.584,8,8V504C24,508.424,20.424,512,16,512z"/>
<path d="M80,503.984H8c-4.424,0-8-3.576-8-8s3.576-8,8-8h72c4.424,0,8,3.576,8,8S84.424,503.984,80,503.984z"/>
<path d="M72,511.984c-4.424,0-8-3.576-8-8v-16c0-4.424,3.576-8,8-8s8,3.576,8,8v16C80,508.408,76.424,511.984,72,511.984z"/>
<path d="M504,503.984h-72c-4.424,0-8-3.576-8-8s3.576-8,8-8h72c4.424,0,8,3.576,8,8S508.424,503.984,504,503.984z"/>
<path d="M440,511.984c-4.424,0-8-3.576-8-8v-16c0-4.424,3.576-8,8-8s8,3.576,8,8v16C448,508.408,444.424,511.984,440,511.984z"/>
<path d="M72,384H16c-4.424,0-8-3.576-8-8s3.576-8,8-8h56c4.424,0,8,3.576,8,8S76.424,384,72,384z"/>
<path d="M160,192c-4.424,0-8-3.584-8-8V8c0-4.416,3.576-8,8-8s8,3.584,8,8v176C168,188.416,164.424,192,160,192z"/>
<path d="M288,263.984h-56c-4.424,0-8-3.584-8-8s3.576-8,8-8h56c4.424,0,8,3.584,8,8C296,260.4,292.424,263.984,288,263.984z"/>
<path d="M256,511.984c-4.424,0-8-3.576-8-8v-248c0-4.416,3.576-8,8-8c4.424,0,8,3.584,8,8v248
	C264,508.408,260.424,511.984,256,511.984z"/>
<path d="M496,511.984c-4.424,0-8-3.576-8-8V8c0-4.416,3.576-8,8-8s8,3.584,8,8v495.984C504,508.408,500.424,511.984,496,511.984z"/>
<path d="M504,263.984H328c-4.424,0-8-3.584-8-8s3.576-8,8-8h176c4.424,0,8,3.584,8,8C512,260.4,508.424,263.984,504,263.984z"/>
<path d="M216,503.984H112c-4.424,0-8-3.576-8-8s3.576-8,8-8h104c4.424,0,8,3.576,8,8S220.424,503.984,216,503.984z"/>
<path d="M400,503.984H296c-4.424,0-8-3.576-8-8s3.576-8,8-8h104c4.424,0,8,3.576,8,8S404.424,503.984,400,503.984z"/>
<path d="M503.992,24h-72c-4.424,0-8-3.584-8-8s3.576-8,8-8h72c4.424,0,8,3.584,8,8S508.416,24,503.992,24z"/>
<path d="M439.992,32c-4.424,0-8-3.584-8-8V8c0-4.416,3.576-8,8-8s8,3.584,8,8v16C447.992,28.416,444.416,32,439.992,32z"/>
<path d="M168,24H8c-4.424,0-8-3.584-8-8s3.576-8,8-8h160c4.424,0,8,3.584,8,8S172.424,24,168,24z"/>
<path d="M400,24H200c-4.424,0-8-3.584-8-8s3.576-8,8-8h200c4.424,0,8,3.584,8,8S404.424,24,400,24z"/>
<path d="M192,303.984c-4.424,0-8-3.576-8-8s3.576-8,8-8c17.648,0,32-14.352,32-32c0-4.416,3.576-8,8-8s8,3.584,8,8
	C240,282.456,218.472,303.984,192,303.984z"/>
<path d="M72,384c-4.424,0-8-3.576-8-8c0-26.472,21.528-48,48-48c4.424,0,8,3.576,8,8s-3.576,8-8,8c-17.648,0-32,14.352-32,32
	C80,380.424,76.424,384,72,384z"/>
<path d="M192,303.984c-4.424,0-8-3.576-8-8v-40c0-4.416,3.576-8,8-8s8,3.584,8,8v40C200,300.408,196.424,303.984,192,303.984z"/>
<path d="M160,232c-26.472,0-48-21.528-48-48c0-4.416,3.576-8,8-8s8,3.584,8,8c0,17.648,14.352,32,32,32c4.424,0,8,3.584,8,8
	S164.424,232,160,232z"/>
<path d="M160,192h-40c-4.424,0-8-3.584-8-8s3.576-8,8-8h40c4.424,0,8,3.584,8,8S164.424,192,160,192z"/>
<path d="M288,303.984c-4.424,0-8-3.576-8-8s3.576-8,8-8c17.648,0,32-14.352,32-32c0-4.416,3.576-8,8-8s8,3.584,8,8
	C336,282.456,314.472,303.984,288,303.984z"/>
<path d="M288,303.984c-4.424,0-8-3.576-8-8v-40c0-4.416,3.576-8,8-8s8,3.584,8,8v40C296,300.408,292.424,303.984,288,303.984z"/>
<path d="M112,384c-4.424,0-8-3.576-8-8v-40c0-4.424,3.576-8,8-8s8,3.576,8,8v40C120,380.424,116.424,384,112,384z"/>
<path d="M192,263.984H8c-4.424,0-8-3.584-8-8s3.576-8,8-8h184c4.424,0,8,3.584,8,8C200,260.4,196.424,263.984,192,263.984z"/>
<path d="M160,384h-48c-4.424,0-8-3.576-8-8s3.576-8,8-8h48c4.424,0,8,3.576,8,8S164.424,384,160,384z"/>
<path d="M160,392c-4.424,0-8-3.576-8-8V224c0-4.416,3.576-8,8-8s8,3.584,8,8v160C168,388.424,164.424,392,160,392z"/>
<path d="M464,112c-4.424,0-8-3.584-8-8V64c0-4.416,3.576-8,8-8s8,3.584,8,8v40C472,108.416,468.424,112,464,112z"/>
<path d="M432,112c-4.424,0-8-3.584-8-8V64c0-4.416,3.576-8,8-8s8,3.584,8,8v40C440,108.416,436.424,112,432,112z"/>
<path d="M400,112c-4.424,0-8-3.584-8-8V64c0-4.416,3.576-8,8-8s8,3.584,8,8v40C408,108.416,404.424,112,400,112z"/>
<path d="M368,112c-4.424,0-8-3.584-8-8V64c0-4.416,3.576-8,8-8s8,3.584,8,8v40C376,108.416,372.424,112,368,112z"/>
<path d="M464,424h-96c-4.424,0-8-3.576-8-8V288c0-4.424,3.576-8,8-8h96c4.424,0,8,3.576,8,8v128C472,420.424,468.424,424,464,424z
	 M376,408h80V296h-80V408z"/>
<path d="M464,328h-96c-4.424,0-8-3.576-8-8s3.576-8,8-8h96c4.424,0,8,3.576,8,8S468.424,328,464,328z"/>
<path d="M416,328c-4.424,0-8-3.576-8-8v-32c0-4.424,3.576-8,8-8s8,3.576,8,8v32C424,324.424,420.424,328,416,328z"/>
<path d="M120,160H56c-4.424,0-8-3.584-8-8V48c0-4.416,3.576-8,8-8h64c4.424,0,8,3.584,8,8v104C128,156.416,124.424,160,120,160z
	 M64,144h48V56H64V144z"/>
<path d="M120,88H56c-4.424,0-8-3.584-8-8s3.576-8,8-8h64c4.424,0,8,3.584,8,8S124.424,88,120,88z"/>
<path d="M312,144H192c-4.424,0-8-3.584-8-8V96c0-4.416,3.576-8,8-8h120c4.424,0,8,3.584,8,8v40C320,140.416,316.424,144,312,144z
	 M200,128h104v-24H200V128z"/>
<path d="M252,192c-11.032,0-20-8.976-20-20s8.968-20,20-20c11.032,0,20,8.976,20,20S263.032,192,252,192z M252,168
	c-2.2,0-4,1.792-4,4s1.8,4,4,4s4-1.792,4-4S254.2,168,252,168z"/>
<path d="M204,192c-11.032,0-20-8.976-20-20s8.968-20,20-20s20,8.976,20,20S215.032,192,204,192z M204,168c-2.2,0-4,1.792-4,4
	s1.8,4,4,4s4-1.792,4-4S206.2,168,204,168z"/>
<path d="M300,192c-11.032,0-20-8.976-20-20s8.968-20,20-20s20,8.976,20,20S311.032,192,300,192z M300,168c-2.2,0-4,1.792-4,4
	s1.8,4,4,4s4-1.792,4-4S302.2,168,300,168z"/>
<path d="M252,80c-11.032,0-20-8.976-20-20s8.968-20,20-20c11.032,0,20,8.976,20,20S263.032,80,252,80z M252,56c-2.2,0-4,1.792-4,4
	s1.8,4,4,4s4-1.792,4-4S254.2,56,252,56z"/>
<path d="M204,80c-11.032,0-20-8.976-20-20s8.968-20,20-20s20,8.976,20,20S215.032,80,204,80z M204,56c-2.2,0-4,1.792-4,4s1.8,4,4,4
	s4-1.792,4-4S206.2,56,204,56z"/>
<path d="M300,80c-11.032,0-20-8.976-20-20s8.968-20,20-20s20,8.976,20,20S311.032,80,300,80z M300,56c-2.2,0-4,1.792-4,4s1.8,4,4,4
	s4-1.792,4-4S302.2,56,300,56z"/>
<path d="M352,263.984c-4.424,0-8-3.584-8-8V208c0-4.416,3.576-8,8-8s8,3.584,8,8v47.984C360,260.4,356.424,263.984,352,263.984z"/>
<path d="M447.992,216H352c-4.424,0-8-3.584-8-8s3.576-8,8-8h95.992c4.424,0,8,3.584,8,8S452.416,216,447.992,216z"/>
<path d="M447.992,216c-4.424,0-8-3.584-8-8v-48c0-4.416,3.576-8,8-8s8,3.584,8,8v48C455.992,212.416,452.416,216,447.992,216z"/>
<path d="M496,168h-48.008c-4.424,0-8-3.584-8-8s3.576-8,8-8H496c4.424,0,8,3.584,8,8S500.424,168,496,168z"/>
<path d="M480,216h-40.008c-4.424,0-8-3.584-8-8s3.576-8,8-8H480c4.424,0,8,3.584,8,8S484.424,216,480,216z"/>
<path d="M448,247.984c-4.424,0-8-3.584-8-8V208c0-4.416,3.576-8,8-8s8,3.584,8,8v31.984C456,244.4,452.424,247.984,448,247.984z"/>
<path d="M400,247.984c-4.424,0-8-3.584-8-8V208c0-4.416,3.576-8,8-8s8,3.584,8,8v31.984C408,244.4,404.424,247.984,400,247.984z"/>
<path d="M40,288H16c-4.424,0-8-3.576-8-8s3.576-8,8-8h24c4.424,0,8,3.576,8,8S44.424,288,40,288z"/>
<path d="M40,328c-4.424,0-8-3.576-8-8v-40c0-4.424,3.576-8,8-8s8,3.576,8,8v40C48,324.424,44.424,328,40,328z"/>
<path d="M40,328H16c-4.424,0-8-3.576-8-8s3.576-8,8-8h24c4.424,0,8,3.576,8,8S44.424,328,40,328z"/>
<path d="M52,320c-11.032,0-20-8.968-20-20s8.968-20,20-20s20,8.968,20,20S63.032,320,52,320z M52,296c-2.2,0-4,1.8-4,4s1.8,4,4,4
	s4-1.8,4-4S54.2,296,52,296z"/>
<path d="M256,472h-40c-4.424,0-8-3.576-8-8v-96c0-4.424,3.576-8,8-8h40c4.424,0,8,3.576,8,8v96C264,468.424,260.424,472,256,472z
	 M224,456h24v-80h-24V456z"/>
<path d="M240,424h-24c-4.424,0-8-3.576-8-8s3.576-8,8-8h24c4.424,0,8,3.576,8,8S244.424,424,240,424z"/>
<path d="M40,472H16c-4.424,0-8-3.576-8-8v-56c0-4.424,3.576-8,8-8h24c4.424,0,8,3.576,8,8v56C48,468.424,44.424,472,40,472z M24,456
	h8v-40h-8V456z"/>
<path d="M68,455.992c-11.032,0-20-8.968-20-19.992c0-11.032,8.968-20,20-20c11.024,0,19.992,8.968,19.992,20
	C87.992,447.024,79.024,455.992,68,455.992z M68,432c-2.2,0-4,1.8-4,4s1.8,3.992,4,3.992s3.992-1.792,3.992-3.992S70.2,432,68,432z"
	/>
<path d="M264,504h-16c-4.424,0-8-3.576-8-8s3.576-8,8-8h16c4.424,0,8,3.576,8,8S268.424,504,264,504z"/>
<path d="M296,472h-40c-4.424,0-8-3.576-8-8v-96c0-4.424,3.576-8,8-8h40c4.424,0,8,3.576,8,8v96C304,468.424,300.424,472,296,472z
	 M264,456h24v-80h-24V456z"/>
<g>
</g>
<g>
</g>
<g>
</g>
<g>
</g>
<g>
</g>
<g>
</g>
<g>
</g>
<g>
</g>
<g>
</g>
<g>
</g>
<g>
</g>
<g>
</g>
<g>
</g>
<g>
</g>
<g>
</g>
</svg>
