<svg enable-background="new 0 0 256 256" height="512" viewBox="0 0 256 256" width="512" xmlns="http://www.w3.org/2000/svg"><path d="m165.197 19.864-15.765-15.765c-2.132-2.132-5.589-2.132-7.721 0s-2.132 5.589 0 7.721l6.444 6.444c-21.4 0-80.396 0-101.78 0l6.444-6.444c2.132-2.132 2.132-5.589 0-7.721s-5.589-2.132-7.721 0l-15.764 15.765c-2.132 2.132-2.132 5.589 0 7.721l15.764 15.764c2.132 2.132 5.589 2.132 7.721 0s2.132-5.589 0-7.721l-6.444-6.444h101.78l-6.444 6.444c-2.132 2.132-2.132 5.589 0 7.721s5.589 2.132 7.721 0l15.764-15.764c2.133-2.133 2.133-5.589.001-7.721z" fill="#facb35"/><path d="m210.902 251.901 15.764-15.764c2.132-2.132 2.132-5.589 0-7.721s-5.589-2.132-7.721 0l-6.444 6.444c0-21.4 0-130.396 0-151.78l6.444 6.444c2.132 2.132 5.589 2.132 7.721 0s2.132-5.589 0-7.721l-15.764-15.764c-2.132-2.132-5.589-2.132-7.721 0l-15.764 15.764c-2.132 2.132-2.132 5.589 0 7.721s5.589 2.132 7.721 0l6.444-6.444v151.78l-6.444-6.444c-2.132-2.132-5.589-2.132-7.721 0s-2.132 5.589 0 7.721l15.764 15.764c2.132 2.132 5.588 2.132 7.721 0z" fill="#facb35"/><path d="m162.925 253.5h-131.32c-2.138 0-3.87-1.733-3.87-3.87v-181.045c0-2.138 1.733-3.87 3.87-3.87h131.32c2.138 0 3.87 1.733 3.87 3.87v181.045c.001 2.137-1.732 3.87-3.87 3.87z" fill="#45bdf0"/><path d="m38.735 75.714h117.061v166.786h-117.061z" fill="#1387ce"/><path d="m40.606 67.057c-1.381 0-2.5-1.119-2.5-2.5v-4.214c0-1.381 1.119-2.5 2.5-2.5s2.5 1.119 2.5 2.5v4.214c0 1.381-1.119 2.5-2.5 2.5z"/><path d="m56.696 67.057c-1.381 0-2.5-1.119-2.5-2.5v-4.214c0-1.381 1.119-2.5 2.5-2.5s2.5 1.119 2.5 2.5v4.214c0 1.381-1.119 2.5-2.5 2.5z"/><path d="m72.786 67.057c-1.381 0-2.5-1.119-2.5-2.5v-8.843c0-1.381 1.119-2.5 2.5-2.5s2.5 1.119 2.5 2.5v8.843c0 1.381-1.119 2.5-2.5 2.5z"/><path d="m88.876 67.057c-1.381 0-2.5-1.119-2.5-2.5v-4.214c0-1.381 1.119-2.5 2.5-2.5s2.5 1.119 2.5 2.5v4.214c0 1.381-1.119 2.5-2.5 2.5z"/><path d="m121.055 67.057c-1.381 0-2.5-1.119-2.5-2.5v-8.843c0-1.381 1.119-2.5 2.5-2.5s2.5 1.119 2.5 2.5v8.843c0 1.381-1.119 2.5-2.5 2.5z"/><path d="m153.234 67.057c-1.381 0-2.5-1.119-2.5-2.5v-4.214c0-1.381 1.119-2.5 2.5-2.5s2.5 1.119 2.5 2.5v4.214c0 1.381-1.119 2.5-2.5 2.5z"/><path d="m104.966 67.057c-1.381 0-2.5-1.119-2.5-2.5v-4.214c0-1.381 1.119-2.5 2.5-2.5s2.5 1.119 2.5 2.5v4.214c0 1.381-1.119 2.5-2.5 2.5z"/><path d="m137.145 67.057c-1.381 0-2.5-1.119-2.5-2.5v-4.214c0-1.381 1.119-2.5 2.5-2.5s2.5 1.119 2.5 2.5v4.214c0 1.381-1.12 2.5-2.5 2.5z"/><path d="m171.167 81.052h-4.214c-1.381 0-2.5-1.119-2.5-2.5s1.119-2.5 2.5-2.5h4.214c1.381 0 2.5 1.119 2.5 2.5s-1.119 2.5-2.5 2.5z"/><path d="m171.167 97.141h-4.214c-1.381 0-2.5-1.119-2.5-2.5s1.119-2.5 2.5-2.5h4.214c1.381 0 2.5 1.119 2.5 2.5s-1.119 2.5-2.5 2.5z"/><path d="m175.796 113.231h-8.843c-1.381 0-2.5-1.119-2.5-2.5s1.119-2.5 2.5-2.5h8.843c1.381 0 2.5 1.119 2.5 2.5s-1.119 2.5-2.5 2.5z"/><path d="m171.167 129.321h-4.214c-1.381 0-2.5-1.119-2.5-2.5s1.119-2.5 2.5-2.5h4.214c1.381 0 2.5 1.119 2.5 2.5s-1.119 2.5-2.5 2.5z"/><path d="m171.167 145.41h-4.214c-1.381 0-2.5-1.119-2.5-2.5s1.119-2.5 2.5-2.5h4.214c1.381 0 2.5 1.119 2.5 2.5s-1.119 2.5-2.5 2.5z"/><path d="m175.796 161.5h-8.843c-1.381 0-2.5-1.119-2.5-2.5s1.119-2.5 2.5-2.5h8.843c1.381 0 2.5 1.119 2.5 2.5s-1.119 2.5-2.5 2.5z"/><path d="m171.167 177.59h-4.214c-1.381 0-2.5-1.119-2.5-2.5s1.119-2.5 2.5-2.5h4.214c1.381 0 2.5 1.119 2.5 2.5s-1.119 2.5-2.5 2.5z"/><path d="m175.796 209.769h-8.843c-1.381 0-2.5-1.119-2.5-2.5s1.119-2.5 2.5-2.5h8.843c1.381 0 2.5 1.119 2.5 2.5s-1.119 2.5-2.5 2.5z"/><path d="m171.167 241.948h-4.214c-1.381 0-2.5-1.119-2.5-2.5s1.119-2.5 2.5-2.5h4.214c1.381 0 2.5 1.119 2.5 2.5s-1.119 2.5-2.5 2.5z"/><path d="m171.167 193.679h-4.214c-1.381 0-2.5-1.119-2.5-2.5s1.119-2.5 2.5-2.5h4.214c1.381 0 2.5 1.119 2.5 2.5s-1.119 2.5-2.5 2.5z"/><path d="m171.167 225.859h-4.214c-1.381 0-2.5-1.119-2.5-2.5s1.119-2.5 2.5-2.5h4.214c1.381 0 2.5 1.119 2.5 2.5s-1.119 2.5-2.5 2.5z"/><path d="m48.959 47.448c-2.126 0-4.125-.828-5.628-2.332l-15.765-15.763c-3.104-3.104-3.104-8.153 0-11.256l15.765-15.765c1.503-1.503 3.502-2.332 5.628-2.332s4.125.828 5.628 2.332c3.104 3.103 3.104 8.153 0 11.256l-2.177 2.177h89.71l-2.177-2.177c-3.104-3.103-3.104-8.153 0-11.256s8.153-3.104 11.257 0l15.764 15.765c1.504 1.503 2.332 3.502 2.332 5.629 0 2.126-.828 4.125-2.332 5.628l-15.764 15.763c-3.102 3.103-8.151 3.104-11.257 0-3.104-3.104-3.104-8.153 0-11.257l2.176-2.176h-89.708l2.176 2.176c3.104 3.104 3.104 8.154 0 11.257-1.503 1.503-3.502 2.331-5.628 2.331zm0-42.448c-.79 0-1.533.308-2.093.867l-15.764 15.764c-1.153 1.154-1.153 3.032 0 4.186l15.765 15.764c1.119 1.118 3.066 1.118 4.186 0 1.153-1.154 1.153-3.032 0-4.186l-6.444-6.443c-.715-.715-.929-1.791-.542-2.725.387-.935 1.299-1.543 2.31-1.543h101.78c1.011 0 1.923.609 2.31 1.543s.173 2.009-.542 2.725l-6.444 6.444c-1.153 1.154-1.153 3.032 0 4.186 1.155 1.154 3.033 1.153 4.187 0l15.764-15.764c.56-.56.867-1.303.867-2.093 0-.791-.308-1.534-.867-2.093l-15.767-15.765c-1.154-1.154-3.032-1.152-4.187 0-1.153 1.153-1.153 3.031 0 4.185l6.444 6.444c.715.715.929 1.79.542 2.724-.387.935-1.299 1.543-2.31 1.543h-101.779c-1.011 0-1.923-.609-2.31-1.543s-.173-2.009.542-2.724l6.444-6.444c1.153-1.154 1.153-3.032 0-4.186-.559-.558-1.302-.866-2.092-.866z"/><path d="m207.041 256c-2.126 0-4.125-.828-5.628-2.332l-15.765-15.765c-1.504-1.503-2.331-3.502-2.331-5.628s.827-4.125 2.331-5.628c1.503-1.503 3.502-2.332 5.628-2.332s4.125.828 5.629 2.331l2.176 2.176v-139.707l-2.176 2.176c-1.504 1.504-3.503 2.332-5.629 2.332s-4.125-.828-5.628-2.332c-3.104-3.103-3.104-8.153 0-11.256l15.765-15.765c1.503-1.503 3.502-2.332 5.628-2.332 2.126 0 4.125.828 5.628 2.332l15.765 15.765c3.104 3.103 3.104 8.153 0 11.256-1.503 1.503-3.502 2.332-5.628 2.332s-4.125-.828-5.628-2.332l-2.177-2.176v139.709l2.177-2.177c1.503-1.503 3.502-2.331 5.628-2.331s4.125.828 5.628 2.332c1.504 1.503 2.331 3.502 2.331 5.628s-.827 4.125-2.331 5.628l-15.765 15.765c-1.503 1.503-3.502 2.331-5.628 2.331zm-15.765-26.684c-.79 0-1.533.308-2.093.867-1.153 1.154-1.153 3.032 0 4.186l15.765 15.765c1.119 1.118 3.066 1.118 4.186 0l15.765-15.765c1.153-1.154 1.153-3.032 0-4.186-1.119-1.118-3.066-1.118-4.186 0l-6.444 6.444c-.714.714-1.786.931-2.725.542-.934-.387-1.543-1.298-1.543-2.31v-151.779c0-1.011.609-1.923 1.543-2.31.938-.388 2.011-.172 2.725.542l6.444 6.444c1.119 1.119 3.066 1.119 4.186 0 1.153-1.154 1.153-3.032 0-4.186l-15.765-15.765c-1.119-1.117-3.066-1.117-4.186 0l-15.764 15.765c-1.153 1.154-1.153 3.032 0 4.186 1.12 1.12 3.068 1.117 4.187 0l6.443-6.443c.713-.714 1.788-.93 2.725-.542.934.387 1.543 1.298 1.543 2.31v151.78c0 1.011-.609 1.923-1.543 2.31-.937.389-2.012.172-2.725-.542l-6.443-6.444c-.56-.561-1.304-.869-2.095-.869z"/><path d="m162.926 256h-131.321c-3.513 0-6.37-2.858-6.37-6.371v-181.045c0-3.513 2.857-6.371 6.37-6.371h131.32c3.513 0 6.37 2.858 6.37 6.371v181.045c.001 3.513-2.857 6.371-6.369 6.371zm-131.321-188.786c-.756 0-1.37.615-1.37 1.371v181.045c0 .756.614 1.371 1.37 1.371h131.32c.756 0 1.37-.615 1.37-1.371v-181.046c0-.756-.614-1.371-1.37-1.371h-131.32z"/><path d="m155.796 245h-117.061c-1.381 0-2.5-1.119-2.5-2.5v-166.786c0-1.381 1.119-2.5 2.5-2.5h117.061c1.381 0 2.5 1.119 2.5 2.5v166.786c0 1.381-1.119 2.5-2.5 2.5zm-114.561-5h112.061v-161.786h-112.061z"/></svg>