<svg height="512" viewBox="0 0 512 512" width="512" xmlns="http://www.w3.org/2000/svg"><g><g><path d="m88 264h208a24 24 0 0 1 24 24v72a0 0 0 0 1 0 0h-256a0 0 0 0 1 0 0v-72a24 24 0 0 1 24-24z" fill="#957856"/><path d="m56 392h272v48h-272z" fill="#5f4d37"/><rect fill="#e0e0e2" height="32" rx="16" width="64" x="208" y="328"/><rect fill="#e0e0e2" height="32" rx="16" width="64" x="112" y="328"/><path d="m72 360h240a24 24 0 0 1 24 24v8a0 0 0 0 1 0 0h-288a0 0 0 0 1 0 0v-8a24 24 0 0 1 24-24z" fill="#acabb1"/><path d="m360 392h104v72h-104z" fill="#5f4d37"/><path d="m360 360h104v32h-104z" fill="#ffeb99"/><path d="m448 312h-80l8-80h64z" fill="#ffda44"/><path d="m296 155.09v44.91h-96l-35.54-39.9-2.29-2.57 68.12-68.67z" fill="#91dc5a"/><path d="m159.43 160.29 2.74-2.76 2.29 2.57z" fill="#3d9ae2"/><path d="m296 56v99.09l-65.71-66.23-68.12 68.67-19.17-21.53-55 64v-144z" fill="#3d9ae2"/><circle cx="144" cy="96" fill="#ffda44" r="16"/><path d="m200 200h-112l55-64 19.17 21.53-2.74 2.76 5.03-.19z" fill="#c2fb3b"/><g fill="#e0e0e2"><path d="m164.46 160.1-5.03.19 2.74-2.76z"/><path d="m164.46 160.1-5.03.19 2.74-2.76z"/></g></g><g><path d="m496 456h-24v-96a8 8 0 0 0 -8-8h-32a8 8 0 0 0 0-16h-16v-16h32a8 8 0 0 0 7.96-8.8l-8-80a8 8 0 0 0 -7.96-7.2h-64a8 8 0 0 0 -7.96 7.2l-8 80a8 8 0 0 0 7.96 8.8h32v16h-16a8 8 0 0 0 0 16h-24a8 8 0 0 0 -8 8v96h-16v-56a8 8 0 0 0 8-8v-8a32.01 32.01 0 0 0 -16-27.69v-68.31a32.042 32.042 0 0 0 -32-32h-208a32.042 32.042 0 0 0 -32 32v68.31a32.01 32.01 0 0 0 -16 27.69v8a8 8 0 0 0 8 8v56h-32a8 8 0 0 0 0 16h480a8 8 0 0 0 0-16zm-424-168a16.021 16.021 0 0 1 16-16h208a16.021 16.021 0 0 1 16 16v64h-33.38a23.982 23.982 0 0 0 -22.62-32h-32a23.982 23.982 0 0 0 -22.62 32h-18.76a23.982 23.982 0 0 0 -22.62-32h-32a23.982 23.982 0 0 0 -22.62 32h-33.38zm192 56a8.011 8.011 0 0 1 -8 8h-32a8 8 0 0 1 0-16h32a8.011 8.011 0 0 1 8 8zm-96 0a8.011 8.011 0 0 1 -8 8h-32a8 8 0 0 1 0-16h32a8.011 8.011 0 0 1 8 8zm152 112h-256v-8h256zm0-24h-256v-32h256zm-264-48a16.021 16.021 0 0 1 16-16h240a16.021 16.021 0 0 1 16 16zm320.84-80 6.4-64h49.52l6.4 64zm79.16 152h-88v-56h88zm0-72h-88v-16h88z"/><path d="m296 48h-208a8 8 0 0 0 -8 8v144a8 8 0 0 0 8 8h208a8 8 0 0 0 8-8v-144a8 8 0 0 0 -8-8zm-190.58 144 37.69-43.85 39.05 43.85zm182.58 0h-84.41l-30.9-34.69c.13-.12.26-.22.38-.34l57.18-56.79 57.75 58.21zm0-56.33-52.03-52.44a8.014 8.014 0 0 0 -5.65-2.37 8.105 8.105 0 0 0 -5.67 2.32l-62.6 62.18-13.08-14.68a8.182 8.182 0 0 0 -6.04-2.68 8.015 8.015 0 0 0 -6 2.79l-40.93 47.63v-114.42h192z"/><path d="m144 120a24 24 0 1 0 -24-24 24.028 24.028 0 0 0 24 24zm0-32a8 8 0 1 1 -8 8 8.009 8.009 0 0 1 8-8z"/></g></g></svg>