<svg id="_x33_0" enable-background="new 0 0 64 64" height="512" viewBox="0 0 64 64" width="512" xmlns="http://www.w3.org/2000/svg"><path d="m17 18c1.1 0 2 .9 2 2 0 .62-.28 1.17-.73 1.54-.35.29-.79.46-1.27.46-1.1 0-2-.9-2-2s.9-2 2-2z" fill="#ff826e"/><path d="m47 22c-.48 0-.92-.17-1.27-.46-.45-.37-.73-.92-.73-1.54 0-1.1.9-2 2-2s2 .9 2 2-.9 2-2 2z" fill="#ff826e"/><path d="m62 5v2c0 .55-.45 1-1 1h-1-6-1c-.55 0-1-.45-1-1v-2c0-.55.45-1 1-1h4 4c.55 0 1 .45 1 1z" fill="#ffc729"/><path d="m12 5v2c0 .55-.45 1-1 1h-1-6-1c-.55 0-1-.45-1-1v-2c0-.55.45-1 1-1h4 4c.55 0 1 .45 1 1z" fill="#ffc729"/><path d="m4 8 .5 4 .25 2.02c.14 1.13 1.11 1.98 2.25 1.98s2.11-.85 2.25-1.98l.25-2.02.5-4z" fill="#fcd770"/><path d="m54 8 .5 4 .25 2.02c.14 1.13 1.11 1.98 2.25 1.98s2.11-.85 2.25-1.98l.25-2.02.5-4z" fill="#fcd770"/><g fill="#ccd1d9"><path d="m32 54v8h-22v-8h4 6 6z"/><path d="m54 54v8h-22v-8h6 6 6z"/><path d="m14 29.31c-1.07.43-2.11.69-3 .69h-1v-4h1c2 0 5.54-2.54 7-4 .12-.12.24-.23.37-.35 1.95-1.75 5.32-3.41 8.06-3.63.19-.01.38-.02.57-.02h5v4h-4c-.56 0-1.26.11-2 .3-1.91.49-4.14 1.5-5.17 2.53-.3.3-.65.62-1.03.93-1.59 1.34-3.76 2.75-5.8 3.55z"/><path d="m50 29.31c-2.04-.8-4.21-2.21-5.8-3.55-.38-.31-.73-.63-1.03-.93-1.03-1.03-3.26-2.04-5.17-2.53-.74-.19-1.44-.3-2-.3h-4v-4h5c.13 0 .26 0 .39.01 2.77.15 6.25 1.85 8.24 3.64.13.12.25.23.37.35 1.46 1.46 5 4 7 4h1v4h-1c-.89 0-1.93-.26-3-.69z"/></g><path d="m10 26v4 24 8h-6v-38h6z" fill="#cf9e76"/><path d="m60 24v38h-6v-8-24-4-2z" fill="#cf9e76"/><path d="m10 20c1.1 0 2 .9 2 2 0 .55-.22 1.05-.59 1.41-.36.37-.86.59-1.41.59h-6c-1.1 0-2-.9-2-2 0-.55.22-1.05.59-1.41.36-.37.86-.59 1.41-.59h3z" fill="#b27946"/><path d="m61.41 20.59c.37.36.59.86.59 1.41 0 1.1-.9 2-2 2h-6c-.55 0-1.05-.22-1.41-.59-.37-.36-.59-.86-.59-1.41 0-1.1.9-2 2-2h3 3c.55 0 1.05.22 1.41.59z" fill="#b27946"/><path d="m38 32c-1.67-1.25-3.75-2-6-2s-4.33.75-6 2c-2.43 1.83-4 4.73-4 8s1.57 6.17 4 8c1.67 1.25 3.75 2 6 2s4.33-.75 6-2c2.43-1.83 4-4.73 4-8s-1.57-6.17-4-8z" fill="#ff826e"/><path d="m35 37h-3-3c-.55 0-1 .45-1 1v4c0 .55.45 1 1 1h3 3c.55 0 1-.45 1-1v-4c0-.55-.45-1-1-1z" fill="#fc6e51"/><path d="m60.24 14.14.643-5.14h.117c1.103 0 2-.897 2-2v-2c0-1.103-.897-2-2-2h-3v-2h-2v2h-3c-1.103 0-2 .897-2 2v2c0 1.103.897 2 2 2h.117l.642 5.14c.16 1.284 1.063 2.31 2.24 2.691v2.169h-2c-1.654 0-3 1.346-3 3 0 1.302.839 2.402 2 2.816v.184c-1.11 0-3.085-1.14-4.665-2.328.984-.493 1.666-1.5 1.666-2.672 0-3.645-1.963-6-5-6-1.833 0-3.037.903-4.1 1.7-.93.697-1.733 1.3-2.9 1.3-2.757 0-5-2.243-5-5 0-1.689 1.612-3 3-3 1.654 0 3 1.346 3 3 0 .552-.448 1-1 1s-1-.448-1-1v-1h-2v1c0 1.654 1.346 3 3 3s3-1.346 3-3c0-2.757-2.243-5-5-5-1.6 0-3.072.852-4 2.103-.928-1.251-2.4-2.103-4-2.103-2.757 0-5 2.243-5 5 0 1.654 1.346 3 3 3s3-1.346 3-3v-1h-2v1c0 .552-.448 1-1 1s-1-.448-1-1c0-1.654 1.346-3 3-3 1.388 0 3 1.311 3 3 0 2.757-2.243 5-5 5-1.167 0-1.97-.603-2.9-1.3-1.063-.797-2.267-1.7-4.1-1.7-3.037 0-5 2.355-5 6 0 1.172.682 2.179 1.665 2.672-1.58 1.188-3.555 2.328-4.665 2.328v-.184c1.161-.414 2-1.514 2-2.816 0-1.654-1.346-3-3-3h-2v-2.169c1.177-.382 2.08-1.407 2.24-2.691l.643-5.14h.117c1.103 0 2-.897 2-2v-2c0-1.103-.897-2-2-2h-3v-2h-2v2h-3c-1.103 0-2 .897-2 2v2c0 1.103.897 2 2 2h.117l.642 5.14c.16 1.284 1.063 2.31 2.24 2.691v2.169h-1.999c-1.654 0-3 1.346-3 3 0 1.302.839 2.402 2 2.816v38.184h7 1 42 1 7v-38.184c1.161-.414 2-1.514 2-2.816 0-1.654-1.346-3-3-3h-2v-2.169c1.177-.382 2.08-1.407 2.24-2.691zm-57.24-9.14h8l.002 2h-8.002zm5.867 4-.25 2h-3.234l-.25-2zm-3.234 4h2.735l-.111.892c-.08.631-.62 1.108-1.257 1.108s-1.177-.477-1.256-1.108zm47.367 16c-2.501 0-6.814-2.571-9.121-4.879-1.682-1.681-5.738-3.121-7.879-3.121h-3v-2h4c2.743 0 6.503 1.917 8.293 3.707 1.497 1.497 5.294 4.293 7.707 4.293zm0 24h-2v-22.299c.697.189 1.372.299 2 .299zm-42-22c.628 0 1.303-.11 2-.299v22.299h-2zm4-1.028c1.398-.623 2.789-1.461 4-2.329v25.357h-4zm6 10.028v-13.959c.191-.173.372-.343.535-.506.668-.668 2.054-1.38 3.465-1.881v7.868c-2.441 2.019-4 5.07-4 8.478s1.559 6.459 4 8.479v4.521h-4zm12 8.941v-4.941h2c1.103 0 2-.897 2-2v-4c0-1.103-.897-2-2-2h-2v-4.941c4.493.499 8 4.316 8 8.941s-3.507 8.442-8 8.941zm-10-8.941c0-4.625 3.507-8.442 8-8.941v4.941h-2c-1.103 0-2 .897-2 2v4c0 1.103.897 2 2 2h2v4.941c-4.493-.499-8-4.316-8-8.941zm8 2h-2v-4h2zm2-4h2v4h-2zm0-8.949v-6.051h3c.294 0 .639.045 1 .108v7.106c-1.221-.626-2.57-1.034-4-1.163zm-2 0c-1.43.13-2.779.537-4 1.164v-7.106c.361-.064.706-.109 1-.109h3zm-4 20.735c1.221.626 2.57 1.034 4 1.164v2.05h-4zm6 1.163c1.43-.13 2.779-.537 4-1.164v3.215h-4zm6-2.47c2.441-2.019 4-5.07 4-8.479s-1.559-6.459-4-8.479v-7.868c1.41.502 2.797 1.214 3.465 1.881.163.163.345.333.535.506v13.96 13h-4zm6-20.836c1.211.868 2.602 1.706 4 2.329v23.028h-4zm2-6.643c-.552 0-1-.448-1-1s.448-1 1-1 1 .448 1 1-.448 1-1 1zm-2-5c1.057 0 1.742.428 2.189 1.019-.063-.004-.124-.019-.189-.019-1.415 0-2.597.987-2.911 2.308-.878-.534-1.836-1.015-2.83-1.4.294-.199.572-.407.841-.608.93-.697 1.733-1.3 2.9-1.3zm-13-.413c.311.517.682.994 1.111 1.413h-2.221c.428-.42.799-.896 1.11-1.413zm-13 .413c1.167 0 1.97.603 2.9 1.3.269.201.546.409.841.608-.994.384-1.951.866-2.83 1.4-.314-1.321-1.496-2.308-2.911-2.308-.065 0-.126.015-.189.019.447-.591 1.132-1.019 2.189-1.019zm-2 3c.552 0 1 .448 1 1s-.448 1-1 1-1-.448-1-1 .448-1 1-1zm1.707 3.707c1.79-1.79 5.55-3.707 8.293-3.707h4v2h-3c-2.141 0-6.197 1.44-7.879 3.121-2.307 2.308-6.62 4.879-9.121 4.879v-2c2.413 0 6.21-2.796 7.707-4.293zm-14.707-1.707h6c.552 0 1 .448 1 1s-.448 1-1 1h-6c-.552 0-1-.448-1-1s.448-1 1-1zm1 40v-36h4v36zm6-6h20v6h-20zm22 6v-6h20v6zm22 0v-36h4v36zm6-39c0 .552-.448 1-1 1h-6c-.552 0-1-.448-1-1s.448-1 1-1h6c.552 0 1 .448 1 1zm-8-17h8v2h-8zm5.867 4-.25 2h-3.235l-.25-2zm-3.234 4h2.735l-.111.892c-.08.631-.62 1.108-1.257 1.108s-1.177-.477-1.256-1.108z"/></svg>