<?xml version="1.0" encoding="iso-8859-1"?>
<!-- Generator: Adobe Illustrator 19.0.0, SVG Export Plug-In . SVG Version: 6.00 Build 0)  -->
<svg version="1.1" id="Capa_1" xmlns="http://www.w3.org/2000/svg" xmlns:xlink="http://www.w3.org/1999/xlink" x="0px" y="0px"
	 viewBox="0 0 483.575 483.575" style="enable-background:new 0 0 483.575 483.575;" xml:space="preserve">
<g>
	<path style="fill:#3C9BB7;" d="M265.931,451.167l-18.488,18.488c-1.56,1.56-3.608,2.344-5.656,2.344s-4.096-0.784-5.656-2.344
		l-18.488-18.488l7.816,26.576l-7.672,2.256h48l-7.672-2.256L265.931,451.167z"/>
	<polygon style="fill:#3C9BB7;" points="126.283,359.095 184.947,476.423 177.787,479.999 209.451,479.999 172.051,352.855 	"/>
	<polygon style="fill:#3C9BB7;" points="357.291,359.095 311.523,352.855 274.123,479.999 305.787,479.999 298.627,476.423 	"/>
	<polygon style="fill:#3C9BB7;" points="2.867,375.927 1.787,367.999 1.787,479.999 168.843,479.999 109.531,361.383 	"/>
	<polygon style="fill:#3C9BB7;" points="374.043,361.383 314.731,479.999 481.787,479.999 481.787,367.999 480.707,375.927 	"/>
</g>
<polygon style="fill:#F8CF26;" points="191.403,361.943 205.291,409.183 229.019,385.455 "/>
<path style="fill:#3C9BB7;" d="M209.931,119.127l7.984-3.688l-37.784-37.784l11.312-11.312l41.952,41.952l18.68-8.624
	l-24.536-30.672l12.496-9.992l27.008,33.76l32.968-15.216l-23.88-23.888l11.312-11.312l32,32c1.512,1.512,2.296,3.552,2.296,5.656
	h0.048v4.688l18.344-18.344l11.312,11.312l-29.656,29.648v25.376l26.344-26.344l11.312,11.312l-27.824,27.824l14.296,17.872
	l31.872-38.248V67.311l-19.312-19.312h-20.688c-2.128,0-4.16-0.84-5.656-2.344l-21.504-21.496l-164.456,7.832
	c-0.76,0.016-1.432-0.024-2.12-0.184L84.219,18.511l20.888,97.496l24.68,24.68V96.943l-19.576-9.792l7.16-14.312L209.931,119.127z"
	/>
<g>
	<path style="fill:#EBAA39;" d="M273.787,335.999h-64c-2.128,0-4.16-0.84-5.656-2.344l-18.344-18.344v24.256l56,35l56-35v-24.256
		l-18.344,18.344C277.947,335.159,275.915,335.999,273.787,335.999z"/>
	<path style="fill:#EBAA39;" d="M270.475,319.999l67.312-67.312v-73.88l-30.248-37.816c-1.136-1.416-1.752-3.176-1.752-4.992V92.503
		l-92.648,42.76c-1.064,0.488-2.208,0.736-3.352,0.736c-1.224,0-2.456-0.28-3.576-0.84l-60.424-30.216v147.744l67.312,67.312
		H270.475z M241.787,279.999c30.872,0,56-25.12,56-56h16c0,39.696-32.296,72-72,72V279.999z"/>
</g>
<g>
	
		<rect x="221.473" y="403.687" transform="matrix(-0.7071 0.7071 -0.7071 -0.7071 712.4967 552.815)" style="fill:#F8CF26;" width="40.568" height="40.568"/>
	<polygon style="fill:#F8CF26;" points="278.283,409.183 292.171,361.943 254.555,385.455 	"/>
</g>
<g>
	<path style="fill:#111527;" d="M313.787,337.015v-37.704l37.656-37.656c1.504-1.496,2.344-3.536,2.344-5.656v-77.104l38.152-45.776
		c1.192-1.44,1.848-3.248,1.848-5.12v-64c0-2.12-0.84-4.16-2.344-5.656l-24-24c-1.496-1.504-3.528-2.344-5.656-2.344h-20.688
		l-21.656-21.656c-1.584-1.592-3.672-2.424-6.04-2.336l-166.928,7.952L75.523,0.191c-2.664-0.592-5.432,0.216-7.368,2.128
		c-1.936,1.92-2.76,4.688-2.184,7.352l24,112c0.32,1.504,1.072,2.888,2.168,3.984l37.648,37.656v92.688
		c0,2.12,0.84,4.16,2.344,5.656l37.656,37.656v37.704L0.707,360.071l1.08,7.928l1.08,7.928l106.664-14.544l59.312,118.616
		l1.792,3.576l7.152-3.576l7.16-3.576l-58.664-117.328l45.768-6.24l37.4,127.144l0.664,2.256l7.672-2.256l7.672-2.256l-7.816-26.576
		l18.488,18.488c1.56,1.56,3.608,2.344,5.656,2.344s4.096-0.784,5.656-2.344l18.488-18.488l-7.816,26.576l7.672,2.256l7.672,2.256
		l0.664-2.256l37.4-127.144l45.768,6.24l-58.664,117.328l7.16,3.576l7.16,3.576l1.784-3.576l59.312-118.616l106.664,14.544
		l1.08-7.928l1.08-7.928L313.787,337.015z M129.787,96.943v43.744l-24.672-24.672L84.227,18.511l59.832,13.296
		c0.688,0.16,1.36,0.2,2.12,0.184l164.448-7.832l21.504,21.496c1.496,1.504,3.528,2.344,5.656,2.344h20.688l19.312,19.312v57.792
		l-31.872,38.248l-14.296-17.872l27.824-27.824l-11.312-11.312l-26.344,26.344v-25.376l29.656-29.656l-11.312-11.312l-18.344,18.344
		v-4.688h-0.048c0-2.104-0.784-4.144-2.296-5.656l-32-32l-11.312,11.312l23.88,23.888l-32.968,15.216l-27.008-33.76l-12.496,9.992
		l24.536,30.672l-18.68,8.624l-41.952-41.952l-11.312,11.312l37.784,37.784l-7.984,3.688l-92.56-46.28l-7.16,14.312L129.787,96.943z
		 M145.787,252.687V104.943l60.424,30.208c1.12,0.568,2.352,0.848,3.576,0.848c1.144,0,2.288-0.248,3.352-0.736l92.648-42.76v43.496
		c0,1.816,0.616,3.576,1.752,5l30.248,37.808v73.88l-67.312,67.312h-57.376L145.787,252.687z M297.787,339.567l-56,35l-56-35
		v-24.256l18.344,18.344c1.496,1.504,3.528,2.344,5.656,2.344h64c2.128,0,4.16-0.84,5.656-2.344l18.344-18.344V339.567z
		 M191.403,361.943l37.616,23.512l-23.728,23.728L191.403,361.943z M241.787,452.687l-28.688-28.688l28.688-28.688l28.688,28.688
		L241.787,452.687z M278.283,409.183l-23.728-23.728l37.616-23.512L278.283,409.183z"/>
	<path style="fill:#111527;" d="M313.787,223.999h-16c0,30.88-25.128,56-56,56v16C281.491,295.999,313.787,263.695,313.787,223.999z
		"/>
</g>
<g>
</g>
<g>
</g>
<g>
</g>
<g>
</g>
<g>
</g>
<g>
</g>
<g>
</g>
<g>
</g>
<g>
</g>
<g>
</g>
<g>
</g>
<g>
</g>
<g>
</g>
<g>
</g>
<g>
</g>
</svg>
