<svg id="Layer_1_1_" enable-background="new 0 0 64 64" height="512" viewBox="0 0 64 64" width="512" xmlns="http://www.w3.org/2000/svg"><path d="m2 43h60v4h-60z" fill="#5c3d13"/><path d="m2 54h60v4h-60z" fill="#5c3d13"/><path d="m19 15h26v16h-26z" fill="#fff"/><path d="m24 23h6v8h-6z" fill="#656b76"/><path d="m32 3-17 11.999 34 .001z" fill="#656b76"/><path d="m35 19h6v4h-6z" fill="#2d72bc"/><path d="m56 35-4 4v22h8v-22z" fill="#9c6721"/><path d="m11.955 21.282-2.088-5.429c-.657-1.709-3.076-1.709-3.733 0l-2.088 5.429c-.504 1.31.462 2.718 1.866 2.718h2.088 2.088c1.404 0 2.37-1.408 1.867-2.718z" fill="#436c11"/><path d="m58 28c-.999 0-1.877.493-2.422 1.244-.652-1.325-2.002-2.244-3.578-2.244-2.209 0-4 1.791-4 4h13c0-1.657-1.343-3-3-3z" fill="#436c11"/><path d="m52 39v22h8z" fill="#5c3d13"/><path d="m44 35-4 4v22h8v-22z" fill="#9c6721"/><path d="m40 39v22h8z" fill="#5c3d13"/><path d="m32 35-4 4v22h8v-22z" fill="#9c6721"/><path d="m28 39v22h8z" fill="#5c3d13"/><path d="m20 35-4 4v22h8v-22z" fill="#9c6721"/><path d="m16 39v22h8z" fill="#5c3d13"/><path d="m8 35-4 4v22h8v-22z" fill="#9c6721"/><path d="m4 39v22h8z" fill="#5c3d13"/><path d="m49.953 15.303c.132-.416-.021-.869-.376-1.12l-17-12c-.345-.243-.807-.244-1.153 0l-17 12c-.356.251-.508.704-.376 1.12.131.414.516.697.952.697h34c.436 0 .821-.282.953-.697zm-31.802-1.303 13.849-9.776 13.849 9.776z"/><path d="m18 17v14c0 .552.448 1 1 1h26c.552 0 1-.448 1-1v-14h-2v13h-13v-7c0-.552-.448-1-1-1h-6c-.552 0-1 .448-1 1v7h-3v-13zm7 7h4v2h-1v2h1v2h-4z"/><path d="m41 24c.552 0 1-.448 1-1v-4c0-.552-.448-1-1-1h-6c-.552 0-1 .448-1 1v4c0 .552.448 1 1 1zm-5-4h4v2h-4z"/><path d="m61 39c0-.265-.105-.52-.293-.707l-4-4c-.391-.391-1.023-.391-1.414 0l-4 4c-.188.187-.293.442-.293.707v3h-2v-3c0-.265-.105-.52-.293-.707l-4-4c-.391-.391-1.023-.391-1.414 0l-4 4c-.188.187-.293.442-.293.707v3h-2v-3c0-.265-.105-.52-.293-.707l-4-4c-.391-.391-1.023-.391-1.414 0l-4 4c-.188.187-.293.442-.293.707v3h-2v-3c0-.265-.105-.52-.293-.707l-4-4c-.391-.391-1.023-.391-1.414 0l-4 4c-.188.187-.293.442-.293.707v3h-2v-3c0-.265-.105-.52-.293-.707l-4-4c-.391-.391-1.023-.391-1.414 0l-4 4c-.188.187-.293.442-.293.707v3h-1v2h1v2h-1v2h1v5h-1v2h1v2h-1v2h1v2c0 .552.448 1 1 1h8c.552 0 1-.448 1-1v-2h2v2c0 .552.448 1 1 1h8c.552 0 1-.448 1-1v-2h2v2c0 .552.448 1 1 1h8c.552 0 1-.448 1-1v-2h2v2c0 .552.448 1 1 1h8c.552 0 1-.448 1-1v-2h2v2c0 .552.448 1 1 1h8c.552 0 1-.448 1-1v-2h1v-2h-1v-2h1v-2h-1v-5h1v-2h-1v-2h1v-2h-1zm-50 21h-6v-20.586l3-3 3 3zm4-16v2h-2v-2zm0 4v5h-2v-5zm-2 9v-2h2v2zm10 3h-6v-20.586l3-3 3 3zm4-16v2h-2v-2zm0 4v5h-2v-5zm-2 9v-2h2v2zm10 3h-6v-20.586l3-3 3 3zm4-16v2h-2v-2zm0 4v5h-2v-5zm-2 9v-2h2v2zm10 3h-6v-20.586l3-3 3 3zm4-16v2h-2v-2zm0 4v5h-2v-5zm-2 9v-2h2v2zm10 3h-6v-20.586l3-3 3 3z"/><path d="m9 32v-7h1.088c.989 0 1.914-.486 2.473-1.302.56-.815.682-1.852.327-2.775l-2.088-5.428c-.449-1.168-1.548-1.923-2.8-1.923s-2.351.755-2.8 1.923l-2.087 5.429c-.355.923-.233 1.96.327 2.775.559.815 1.483 1.301 2.472 1.301h1.088v7zm-3.912-9.434c-.189-.276-.229-.613-.109-.925l2.087-5.429c.229-.594.773-.641.934-.641s.705.046.934.641l2.088 5.429c.12.313.08.649-.109.925-.19.276-.491.434-.825.434h-4.176c-.334 0-.635-.158-.824-.434z"/><path d="m58 27c-.811 0-1.596.252-2.253.704-.934-1.073-2.283-1.704-3.747-1.704-2.757 0-5 2.243-5 5 0 .552.448 1 1 1h13c.552 0 1-.448 1-1 0-2.206-1.794-4-4-4zm-8.829 3c.413-1.164 1.525-2 2.829-2 1.142 0 2.169.646 2.681 1.685.06.122.143.229.243.315zm7.061 0c.057-.049.109-.106.155-.168.384-.529.972-.832 1.613-.832.739 0 1.385.403 1.731 1z"/></svg>