<svg id="Capa_1" enable-background="new 0 0 508.221 508.221" height="512" viewBox="0 0 508.221 508.221" width="512" xmlns="http://www.w3.org/2000/svg"><g><g><path d="m254.801 163.963c93.109 52.192 167.662-11.406 187.606-31.277 3.064-3.053 3.316-7.926.568-11.266l-26.273-31.935c-2.579-3.134-7.026-3.95-10.573-1.977-109.398 60.84-165.656 8.509-182.15-11.933-2.289-2.837-6.813-1.948-7.826 1.553-4.058 14.023-2.893 29.041 3.28 42.27l3.156 6.765 12.202 29.633z" fill="#f37c7c"/><path d="m226.891 79.016c-1.078-1.219-2.053-2.375-2.913-3.441-2.289-2.837-6.813-1.948-7.826 1.553-4.058 14.023-2.893 29.041 3.28 42.27l3.156 6.765 12.202 29.633 20.01 8.167c49.286 27.627 93.388 22.804 126.927 9.203-113.953-3.849-145.899-61.36-154.836-94.15z" fill="#ee6161"/><path d="m63.769 166.562 54.781-38.937c41.805-29.714 99.86-19.306 128.741 23.079 27.847 40.868 18.219 96.462-21.749 125.586l-8.586 6.256 1.433.967c50.889 34.33 67.251 101.773 37.751 155.606-17.843 32.561-49.881 54.909-86.601 60.409-27.202 4.074-54.926-2.51-77.392-18.38-47.08-33.258-75.076-87.309-75.076-144.952v-35.346c0-4.585 6.408-5.662 7.907-1.329l13.541 39.145c14.471 41.833 53.87 69.894 98.136 69.894h29.043c11.062 0 21.709-4.214 29.774-11.786l1.789-1.679c12.804-12.02 17.124-30.559 10.954-47.001-6.828-18.192-24.893-29.65-44.26-28.072l-18.236 1.486c-1.042.085-1.996-.584-2.272-1.591l-15.405-56.18c-.282-1.027.222-2.106 1.19-2.55l51.866-23.789c12.952-5.941 17.616-21.992 9.865-33.949-6.457-9.959-19.354-13.495-29.987-8.222l-63.255 31.37c-4.031 1.999-8.921.477-11.105-3.457l-25.33-45.626c-2.083-3.751-1.014-8.467 2.483-10.952z" fill="#f37c7c"/><g><path d="m196.517 461.798c-27.202 4.074-54.927-2.51-77.392-18.38-24.33-17.187-43.546-39.935-56.453-65.854-10.619-10.778-18.983-23.952-24.153-38.898l-13.541-39.145c-1.499-4.333-7.907-3.256-7.907 1.329v35.346c0 57.642 27.995 111.694 75.076 144.952 22.465 15.87 50.19 22.454 77.392 18.379 36.72-5.5 68.758-27.848 86.601-60.408 1.478-2.697 2.845-5.436 4.094-8.196-17.4 16.327-39.548 27.255-63.717 30.875z" fill="#ee6161"/></g><path d="m367.311 249.49c9.397-19.647 21.356-22.926 30.966-21.293 10.471 1.779 18.829 9.603 22.103 19.707 12.913 39.846 3.239 126.719-37.693 135.417-33.776 7.177-54.719-20.094-63.293-34.681-1.633-2.779-5.824-1.993-6.378 1.182-5.521 31.591-3.66 55.109 1.921 72.604 11.801 36.991 51.595 56.67 88.486 44.557 71.906-23.61 86.348-113.656 87.697-173.426 1.023-45.326-23.456-87.731-63.729-108.554-77.703-40.177-121.914 48.34-133.453 75.87-2.239 5.342-5.605 10.138-9.898 14.027l-12.348 11.183c-2.428 2.199-1.357 6.224 1.846 6.914 10.628 2.29 31.201 4.873 51.062-3.072 28.473-11.391 42.711-40.435 42.711-40.435z" fill="#f37c7c"/><g fill="#ee6161"><path d="m347.271 431.526c-4.577-14.347-6.643-32.756-4.196-56.337-11.32-7.826-19.196-18.92-23.68-26.55-1.633-2.779-5.824-1.993-6.378 1.182-5.521 31.591-3.661 55.109 1.921 72.604 9.197 28.829 35.397 47.137 63.974 48.082-14.545-8.252-26.138-21.732-31.641-38.981z"/><path d="m316.373 284c4.294-3.888 7.659-8.685 9.898-14.027 9.708-23.161 42.56-89.488 99.008-86.03-76.38-37.482-119.909 49.651-131.342 76.929-2.239 5.342-5.605 10.138-9.898 14.027l-12.348 11.183c-2.428 2.199-1.357 6.224 1.846 6.914 7.001 1.508 18.317 3.143 30.902 1.813z"/></g><path d="m313.937 12.388-16.379 17.242c-5.842 6.15-5.717 15.835.28 21.832l17.225 17.225c6.258 6.258 16.456 6.082 22.494-.388l17.362-18.602c6.037-6.468 5.511-16.652-1.159-22.465l-18.208-15.865c-6.315-5.502-15.845-5.052-21.615 1.021z" fill="#f37c7c"/></g><g><path d="m481.216 226.306c-12.006-20.545-29.427-37.132-50.382-47.967-8.138-4.208-16.193-7.223-24.141-9.047 19.045-10.947 33.091-23.407 41.006-31.293 5.837-5.814 6.296-14.99 1.067-21.345l-26.273-31.935c-4.871-5.922-13.287-7.505-20.01-3.767-6.784 3.773-13.622 7.231-20.323 10.279-3.771 1.714-5.438 6.161-3.723 9.932s6.159 5.438 9.932 3.723c7.067-3.214 14.27-6.855 21.405-10.824.392-.218.868-.137 1.135.188l26.273 31.935c.288.35.259.86-.07 1.188-10.41 10.372-35.25 32.114-69.45 42.854-.478.14-.954.284-1.431.433-29.491 8.927-65.784 9.554-105.704-12.121-2.047-4.146-4.392-8.176-7.038-12.059-6.932-10.174-15.438-18.664-24.975-25.356l-2.285-4.896c-4.585-9.826-6.016-20.772-4.177-31.364 17.96 19.901 60.875 53.222 134.951 31.76 3.979-1.152 6.27-5.312 5.117-9.291s-5.317-6.268-9.291-5.116c-71.49 20.71-109.843-15.025-123.015-31.351-2.825-3.501-7.317-5.126-11.724-4.24-4.393.884-7.896 4.109-9.144 8.418-3.337 11.532-3.52 23.653-.67 35.154-27.938-11.118-60.498-9.376-88.014 7.333-3.541 2.15-4.668 6.763-2.518 10.303 2.149 3.541 6.764 4.667 10.303 2.518 38.196-23.195 87.852-12.4 113.044 24.574 12.365 18.147 17.111 40.057 13.364 61.695-3.747 21.637-15.585 40.675-33.332 53.607l-8.586 6.256c-1.976 1.44-3.126 3.753-3.082 6.198.045 2.445 1.278 4.715 3.306 6.082l1.433.966c23.059 15.556 39.369 39.009 45.928 66.041 6.558 27.031 2.808 55.352-10.56 79.744-16.614 30.318-46.945 51.476-81.136 56.596-25.408 3.808-50.967-2.262-71.953-17.088-45.023-31.804-71.903-83.702-71.903-138.826v-14.911l6.86 19.832c15.506 44.826 57.792 74.943 105.224 74.943h29.043c13.019 0 25.416-4.907 34.908-13.818l1.787-1.678c15.059-14.137 20.101-35.766 12.843-55.104-7.964-21.219-29.3-34.751-51.891-32.913l-13.834 1.127-13.041-47.557 47.754-21.903c8.155-3.74 14.268-10.827 16.771-19.443 2.503-8.615 1.14-17.875-3.741-25.403-8.531-13.16-25.561-17.828-39.612-10.861l-63.255 31.37c-.439.22-.975.054-1.215-.378l-25.33-45.626c-.229-.411-.112-.926.271-1.198l34.188-24.3c3.377-2.4 4.168-7.082 1.769-10.458-2.398-3.375-7.08-4.169-10.458-1.768l-34.188 24.3c-6.618 4.704-8.638 13.605-4.696 20.705l25.33 45.626c4.137 7.452 13.356 10.323 20.994 6.536l63.255-31.37c7.224-3.583 15.977-1.182 20.362 5.583 2.509 3.87 3.21 8.629 1.923 13.058s-4.429 8.071-8.621 9.994l-51.866 23.789c-4.327 1.985-6.555 6.757-5.297 11.351l15.405 56.18c1.229 4.482 5.479 7.466 10.115 7.083l18.236-1.486c15.935-1.297 31.007 8.255 36.629 23.233 5.122 13.65 1.563 28.919-9.066 38.898l-1.787 1.678c-6.7 6.29-15.452 9.754-24.642 9.754h-29.043c-41.042 0-77.631-26.06-91.048-64.846l-13.541-39.146c-1.884-5.443-7.164-8.576-12.847-7.624-5.681.955-9.648 5.645-9.648 11.405v35.346c0 59.989 29.252 116.467 78.249 151.078 19.452 13.742 42.309 20.948 65.749 20.947 5.671 0 11.381-.422 17.081-1.276 38.796-5.811 73.214-29.819 92.067-64.222 15.168-27.679 19.424-59.816 11.982-90.489-6.743-27.792-22.57-52.251-44.948-69.731l.207-.151c20.913-15.239 34.862-37.674 39.278-63.171 2.355-13.603 1.861-27.297-1.325-40.361 19.692 8.536 39.599 12.829 59.603 12.829 1.25 0 2.5-.022 3.75-.055-23.402 21.424-37.984 51.442-44.246 66.379-1.815 4.332-4.587 8.262-8.015 11.367l-12.348 11.182c-3.22 2.916-4.522 7.333-3.398 11.528 1.123 4.191 4.456 7.363 8.699 8.278 11.364 2.449 33.681 5.259 55.426-3.44 30.8-12.319 46.028-42.805 46.692-44.162 2.302-4.812 9.31-19.457 22.944-17.135 7.497 1.274 13.714 6.878 16.225 14.625 5.799 17.894 6.581 46.619 1.945 71.48-.759 4.072 1.927 7.988 5.998 8.748 4.069.76 7.989-1.925 8.748-5.999 5.132-27.526 4.182-58.478-2.422-78.853-4.238-13.078-14.96-22.576-27.981-24.789-21.574-3.67-33.689 14.372-38.957 25.386-.13.265-13.263 26.572-38.763 36.772-14.428 5.771-29.437 5.377-39.831 3.92l7.092-6.423c5.047-4.571 9.12-10.341 11.779-16.686 23.876-56.958 54.93-73.449 67.173-77.895.415-.151.835-.274 1.251-.415 1.107-.327 2.213-.669 3.32-1.022 16.137-4.471 33.383-2.064 51.348 7.225 37.211 19.241 60.636 59.169 59.676 101.723-.85 37.635-6.688 71.43-16.885 97.731-13.907 35.874-35.996 59-65.654 68.738-16.179 5.313-33.37 4.008-48.404-3.674-14.715-7.518-25.58-20.316-30.596-36.037-5.138-16.105-6.225-35.833-3.249-58.751 11.379 15.476 33.161 36.115 65.413 29.262 14.512-3.084 26.741-14.416 35.368-32.771 1.762-3.749.15-8.216-3.598-9.978s-8.216-.15-9.979 3.598c-4.569 9.723-12.601 21.862-24.909 24.478-28.593 6.081-46.899-16.906-55.269-31.145-2.351-4-6.816-6.05-11.379-5.225-4.577.829-8.053 4.329-8.854 8.916-5.199 29.749-4.471 55.378 2.163 76.175 6.241 19.561 19.759 35.483 38.062 44.835 11.102 5.672 23.143 8.54 35.298 8.539 8.237 0 16.529-1.318 24.611-3.972 34.132-11.207 59.352-37.304 74.96-77.567 10.974-28.305 16.994-62.897 17.896-102.815.539-23.709-5.478-47.022-17.397-67.42z"/><path d="m309.759 73.99c4.381 4.381 10.173 6.778 16.35 6.778.138 0 .275-.001.413-.004 6.331-.109 12.197-2.719 16.518-7.348l17.362-18.603c4.32-4.628 6.52-10.659 6.193-16.982s-3.135-12.096-7.908-16.255l-18.208-15.863c-9.371-8.167-23.42-7.503-31.979 1.509l-16.38 17.243c-8.711 9.169-8.528 23.357.414 32.301zm-6.764-39.194 16.38-17.243c1.602-1.685 3.747-2.541 5.901-2.541 1.898 0 3.805.665 5.349 2.01l18.208 15.865c1.679 1.463 2.667 3.494 2.782 5.718.114 2.224-.659 4.346-2.179 5.974l-17.363 18.603c-1.52 1.628-3.583 2.546-5.811 2.585-2.21.05-4.32-.808-5.896-2.383l-17.225-17.225c-3.146-3.146-3.21-8.137-.146-11.363z"/></g></g></svg>