<?xml version="1.0" encoding="iso-8859-1"?>
<!-- Generator: Adobe Illustrator 19.0.0, SVG Export Plug-In . SVG Version: 6.00 Build 0)  -->
<svg version="1.1" id="Capa_1" xmlns="http://www.w3.org/2000/svg" xmlns:xlink="http://www.w3.org/1999/xlink" x="0px" y="0px"
	 viewBox="0 0 512 512" style="enable-background:new 0 0 512 512;" xml:space="preserve">
<polygon style="fill:#ED5565;" points="504,160.001 504,192.001 480,177.761 288,64.001 96,177.761 72,192.001 72,160.001 
	288,32.001 "/>
<circle style="fill:#5D9CEC;" cx="288" cy="160.001" r="32"/>
<path style="fill:#E6E9ED;" d="M480,177.761v230.24H320v-128h-64v128h-32c0-5.2-0.96-10.4-2.96-14.32l-17.68-43.36
	c-3.92-7.92-14.4-14.32-23.12-14.32H96v-158.24l192-113.76L480,177.761z M448,304.001v-40v-40h-96v40v40H448z M288,192.001
	c17.68,0,32-14.32,32-32s-14.32-32-32-32s-32,14.32-32,32S270.32,192.001,288,192.001z M224,304.001v-56v-24h-96v24v56H224z"/>
<polygon style="fill:#CCD1D9;" points="448,158.801 448,224.001 448,264.001 448,304.001 448,408.001 480,408.001 480,177.761 "/>
<polygon style="fill:#F5F7FA;" points="448,224.001 448,264.001 400,264.001 352,264.001 352,224.001 "/>
<polygon style="fill:#5D9CEC;" points="400,264.001 448,264.001 448,304.001 352,304.001 352,264.001 "/>
<polygon style="fill:#F5F7FA;" points="224,224.001 224,248.001 176,248.001 128,248.001 128,224.001 "/>
<polygon style="fill:#5D9CEC;" points="176,248.001 224,248.001 224,304.001 128,304.001 128,248.001 "/>
<g>
	<rect x="256" y="280.001" style="fill:#ED5565;" width="64" height="128"/>
	<path style="fill:#ED5565;" d="M221.04,393.681l-17.68-43.36c-3.92-7.92-14.4-14.32-23.12-14.32H96H24c-8.8,0-16,7.2-16,16v112
		c0,8.8,7.2,16,16,16h156.24c8.72,0,19.192-6.4,23.12-14.32l17.68-43.36c2-3.92,2.96-9.12,2.96-14.32S223.04,397.601,221.04,393.681
		z"/>
</g>
<g>
	<path style="fill:#DA4453;" d="M221.04,393.681l-17.68-43.36c-3.92-7.92-14.4-14.32-23.12-14.32h-32c8.72,0,19.192,6.4,23.12,14.32
		l17.68,43.36c2,3.92,2.96,9.12,2.96,14.32s-0.96,10.4-2.96,14.32l-17.68,43.36c-3.92,7.92-14.4,14.32-23.12,14.32h32
		c8.72,0,19.192-6.4,23.12-14.32l17.68-43.36c2-3.92,2.96-9.12,2.96-14.32S223.04,397.601,221.04,393.681z"/>
	<polygon style="fill:#DA4453;" points="472,173.017 480,177.761 504,192.001 504,160.001 472,141.041 	"/>
</g>
<g>
	<polygon style="fill:#87BCF4;" points="381.136,304.001 405.136,304.001 418.472,264.001 400,264.001 394.472,264.001 	"/>
	<polygon style="fill:#87BCF4;" points="178.832,304.001 154.832,304.001 173.168,248.001 197.168,248.001 	"/>
</g>
<path d="M72.008,168.001c-2.736,0-5.4-1.4-6.888-3.92c-2.248-3.8-1-8.712,2.808-10.96l216-128c3.824-2.248,8.72-0.992,10.96,2.808
	c2.248,3.8,1,8.712-2.808,10.96l-216,128C74.8,167.641,73.392,168.001,72.008,168.001z"/>
<path d="M503.992,168.001c-1.384,0-2.792-0.36-4.072-1.12l-216-128c-3.808-2.248-5.056-7.168-2.808-10.96s7.152-5.056,10.96-2.808
	l216,128c3.808,2.248,5.056,7.168,2.808,10.96C509.392,166.601,506.728,168.001,503.992,168.001z"/>
<path d="M72.008,200.001c-2.736,0-5.4-1.4-6.888-3.92c-2.248-3.8-1-8.712,2.808-10.96l216-128c3.824-2.248,8.72-0.992,10.96,2.808
	c2.248,3.8,1,8.712-2.808,10.96l-216,128C74.8,199.641,73.392,200.001,72.008,200.001z"/>
<path d="M503.992,200.001c-1.384,0-2.792-0.36-4.072-1.12l-216-128c-3.808-2.248-5.056-7.168-2.808-10.96s7.152-5.056,10.96-2.808
	l216,128c3.808,2.248,5.056,7.168,2.808,10.96C509.392,198.601,506.728,200.001,503.992,200.001z"/>
<path d="M72,200.001c-4.424,0-8-3.576-8-8v-32c0-4.424,3.576-8,8-8s8,3.576,8,8v32C80,196.425,76.424,200.001,72,200.001z"/>
<path d="M504,200.001c-4.424,0-8-3.576-8-8v-32c0-4.424,3.576-8,8-8s8,3.576,8,8v32C512,196.425,508.424,200.001,504,200.001z"/>
<path d="M96,344.001c-4.424,0-8-3.576-8-8V177.785c0-4.424,3.576-8,8-8s8,3.576,8,8v158.216C104,340.425,100.424,344.001,96,344.001
	z"/>
<path d="M480,416.001c-4.424,0-8-3.576-8-8V177.785c0-4.424,3.576-8,8-8s8,3.576,8,8v230.216
	C488,412.425,484.424,416.001,480,416.001z"/>
<path d="M224,416.025c-4.416,0-8-3.576-8-8c0-4.416,3.576-8,8-8l256-0.024c4.416,0,8,3.576,8,8c0,4.416-3.576,8-8,8L224,416.025z"/>
<path d="M320,416.001h-64c-4.424,0-8-3.576-8-8v-128c0-4.424,3.576-8,8-8h64c4.424,0,8,3.576,8,8v128
	C328,412.425,324.424,416.001,320,416.001z M264,400.001h48v-112h-48V400.001z"/>
<path d="M448,312.001h-96c-4.424,0-8-3.576-8-8v-80c0-4.424,3.576-8,8-8h96c4.424,0,8,3.576,8,8v80
	C456,308.425,452.424,312.001,448,312.001z M360,296.001h80v-64h-80V296.001z"/>
<path d="M448,272.001h-96c-4.424,0-8-3.576-8-8s3.576-8,8-8h96c4.424,0,8,3.576,8,8S452.424,272.001,448,272.001z"/>
<path d="M400,280.001c-4.424,0-8-3.576-8-8v-8c0-4.424,3.576-8,8-8s8,3.576,8,8v8C408,276.425,404.424,280.001,400,280.001z"/>
<path d="M224,312.001h-96c-4.424,0-8-3.576-8-8v-80c0-4.424,3.576-8,8-8h96c4.424,0,8,3.576,8,8v80
	C232,308.425,228.424,312.001,224,312.001z M136,296.001h80v-64h-80V296.001z"/>
<path d="M224,256.001h-96c-4.424,0-8-3.576-8-8s3.576-8,8-8h96c4.424,0,8,3.576,8,8S228.424,256.001,224,256.001z"/>
<path d="M176,264.001c-4.424,0-8-3.576-8-8v-8c0-4.424,3.576-8,8-8s8,3.576,8,8v8C184,260.425,180.424,264.001,176,264.001z"/>
<path d="M288,200.001c-22.056,0-40-17.944-40-40s17.944-40,40-40s40,17.944,40,40S310.056,200.001,288,200.001z M288,136.001
	c-13.232,0-24,10.768-24,24s10.768,24,24,24s24-10.768,24-24S301.232,136.001,288,136.001z"/>
<path d="M288,200.001c-4.424,0-8-3.576-8-8v-64c0-4.424,3.576-8,8-8s8,3.576,8,8v64C296,196.425,292.424,200.001,288,200.001z"/>
<path d="M320,168.001h-64c-4.424,0-8-3.576-8-8s3.576-8,8-8h64c4.424,0,8,3.576,8,8S324.424,168.001,320,168.001z"/>
<path d="M272.24,352.001c-4.424,0-8.04-3.576-8.04-8s3.536-8,7.952-8h0.088c4.416,0,8,3.576,8,8S276.656,352.001,272.24,352.001z"/>
<path d="M180.2,488.001H24c-13.232,0-24-10.768-24-24v-112c0-13.232,10.768-24,24-24h156.2c11.744,0,25.064,8.224,30.312,18.736
	l17.936,43.928c4.848,9.648,4.848,25.024-0.248,35.224l-17.44,42.824C205.264,479.777,191.944,488.001,180.2,488.001z M24,344.001
	c-4.416,0-8,3.584-8,8v112c0,4.416,3.584,8,8,8h156.2c5.792,0,13.416-4.712,16-9.888l17.44-42.824
	c3.064-6.168,3.064-16.408,0.248-22.024l-17.936-43.928c-2.336-4.624-9.96-9.336-15.752-9.336H24z"/>
<path d="M72,408.001c-13.232,0-24-10.768-24-24s10.768-24,24-24s24,10.768,24,24S85.232,408.001,72,408.001z M72,376.001
	c-4.416,0-8,3.584-8,8s3.584,8,8,8s8-3.584,8-8S76.416,376.001,72,376.001z"/>
<path d="M136,456.001c-13.232,0-24-10.768-24-24s10.768-24,24-24s24,10.768,24,24S149.232,456.001,136,456.001z M136,424.001
	c-4.416,0-8,3.584-8,8s3.584,8,8,8s8-3.584,8-8S140.416,424.001,136,424.001z"/>
<path d="M64,456.001c-2.048,0-4.096-0.784-5.656-2.344c-3.128-3.128-3.128-8.184,0-11.312l80-80c3.128-3.128,8.184-3.128,11.312,0
	s3.128,8.184,0,11.312l-80,80C68.096,455.217,66.048,456.001,64,456.001z"/>
<g>
</g>
<g>
</g>
<g>
</g>
<g>
</g>
<g>
</g>
<g>
</g>
<g>
</g>
<g>
</g>
<g>
</g>
<g>
</g>
<g>
</g>
<g>
</g>
<g>
</g>
<g>
</g>
<g>
</g>
</svg>
