<svg id="_x33_0" enable-background="new 0 0 64 64" height="512" viewBox="0 0 64 64" width="512" xmlns="http://www.w3.org/2000/svg"><g><g><g><path d="m29 38c0 .82.5 1.53 1.21 1.84l-2.21 12.16h6v8 1c0 .55-.45 1-1 1h-19c-2.21 0-4-1.79-4-4v-11.35c0-1.5.27-2.97.78-4.36s1.27-2.68 2.25-3.82c1.93-2.26 4.51-3.89 7.38-4.67l3.9-1.07 2.69 6.27 2-1.6z" fill="#b4dd7f"/></g><g><path d="m38.04 49.54-.04 2.46h-2l-2.21-12.16c.71-.31 1.21-1.02 1.21-1.84v-.6l2 1.6 1.14-2.65c-.09.53-.14 1.09-.14 1.65 0 2.76 1.12 5.26 2.93 7.07l-1.72 1.72c-.73.73-1.15 1.72-1.17 2.75z" fill="#b4dd7f"/></g><g><path d="m33.79 39.84 2.21 12.16h-2-6l2.21-12.16c.24.1.51.16.79.16h2c.28 0 .55-.06.79-.16z" fill="#ff826e"/></g><g><path d="m35 38c0 .82-.5 1.53-1.21 1.84-.24.1-.51.16-.79.16h-2c-.28 0-.55-.06-.79-.16-.71-.31-1.21-1.02-1.21-1.84v-.6l3-2.4 3 2.4z" fill="#ff826e"/></g><g><path d="m56.83 46.83-1.76-1.76c-1.81 1.81-4.31 2.93-7.07 2.93s-5.26-1.12-7.07-2.93l-1.72 1.72c-.73.73-1.15 1.72-1.17 2.75l-.04 12.46h20v-12.34c0-1.06-.42-2.08-1.17-2.83z" fill="#cf9e76"/></g><g><path d="m54 52v6h-12.54c.34-.59.54-1.27.54-2s-.2-1.41-.54-2v-2z" fill="#e6e9ed"/></g><g><path d="m32 35-3 2.4-2 1.6-2.69-6.27 2.69-.73z" fill="#a0d468"/></g><g><path d="m39.53 32.69c-.69 1.09-1.17 2.33-1.39 3.66l-1.14 2.65-2-1.6-3-2.4 5-3z" fill="#a0d468"/></g><g><path d="m39.01 13h-.01-2.94c-2.14 0-4.1-1.14-5.17-2.95l-4.47 1.91c-1.47.63-2.42 2.08-2.42 3.68v4.36c0 .69.09 1.36.25 2-1.41-.02-2.7-.79-3.4-2.02l-1.98-3.46c-.57-1-.87-2.12-.87-3.27 0-1.46.49-2.88 1.38-4.03l3.55-4.56c.65-.84 1.48-1.5 2.41-1.96s1.96-.7 3.03-.7 2.13.25 3.09.73l.54.27.54-.27c.96-.48 2.02-.73 3.09-.73 2.13 0 4.13.98 5.44 2.66l3.55 4.56c.89 1.15 1.38 2.57 1.38 4.03 0 1.15-.3 2.27-.87 3.27l-1.98 3.46c-.7 1.23-1.99 2-3.4 2.02.16-.64.25-1.31.25-2v-4.36c0-.99-.36-1.92-.99-2.64z" fill="#656d78"/></g><g><path d="m40 15.64v4.36c0 .69-.09 1.36-.25 2-.54 2.11-1.92 3.87-3.76 4.93-1.17.68-2.54 1.07-3.99 1.07s-2.82-.39-3.99-1.07c-.61-.35-1.17-.78-1.67-1.27-.99-1-1.72-2.25-2.09-3.66-.16-.64-.25-1.31-.25-2v-4.36c0-1.6.95-3.05 2.42-3.68l4.47-1.91c1.07 1.81 3.03 2.95 5.17 2.95h2.94.01c.63.72.99 1.65.99 2.64z" fill="#f0d0b4"/></g><g><path d="m35.99 26.94 1.01 5.06-5 3-5-3 1.01-5.06v-.01c1.17.68 2.54 1.07 3.99 1.07s2.82-.39 3.99-1.07z" fill="#f0d0b4"/></g><g><path d="m38 52c1.48 0 2.77.8 3.46 2 .34.59.54 1.27.54 2s-.2 1.41-.54 2c-.17.3-.39.58-.63.83-.73.72-1.73 1.17-2.83 1.17h-4v-8h2z" fill="#f0d0b4"/></g><g><path d="m48 28c5.52 0 10 4.48 10 10 0 2.76-1.12 5.26-2.93 7.07s-4.31 2.93-7.07 2.93-5.26-1.12-7.07-2.93-2.93-4.31-2.93-7.07c0-.56.05-1.12.14-1.65.22-1.33.7-2.57 1.39-3.66 1.77-2.82 4.9-4.69 8.47-4.69z" fill="#fcd770"/></g></g><g><path d="m47 42.816v2.184h2v-2h2v-3c0-1.654-1.346-3-3-3-.552 0-1-.449-1-1v-1h1c.552 0 1 .449 1 1v1h2v-1c0-1.302-.839-2.402-2-2.816v-2.184h-2v2h-2v3c0 1.654 1.346 3 3 3 .552 0 1 .449 1 1v1h-1c-.552 0-1-.449-1-1v-1h-2v1c0 1.302.839 2.402 2 2.816z"/><path d="m56.448 45.034c1.592-1.909 2.552-4.361 2.552-7.034 0-6.065-4.935-11-11-11-3.651 0-6.882 1.795-8.884 4.54l-1.256-.343-.758-3.791c1.566-1.082 2.769-2.649 3.401-4.48 1.464-.247 2.772-1.139 3.518-2.446l1.982-3.469c.652-1.142.997-2.441.997-3.756 0-1.676-.566-3.327-1.596-4.648l-3.545-4.558c-1.506-1.938-3.778-3.049-6.231-3.049-1.22 0-2.44.288-3.531.833l-.097.049-.097-.048c-1.09-.546-2.311-.834-3.531-.834-2.453 0-4.725 1.111-6.231 3.048l-3.545 4.558c-1.03 1.322-1.596 2.973-1.596 4.649 0 1.315.345 2.614.998 3.756l1.982 3.469c.746 1.307 2.054 2.199 3.518 2.446.632 1.832 1.834 3.398 3.401 4.48l-.758 3.791-5.996 1.635c-3.078.839-5.802 2.563-7.876 4.985-2.108 2.458-3.269 5.596-3.269 8.834v11.349c0 2.757 2.243 5 5 5h19c1.103 0 2-.897 2-2h2v2h22v-13.343c0-1.335-.521-2.591-1.465-3.535zm-8.448-16.034c4.963 0 9 4.038 9 9s-4.037 9-9 9-9-4.038-9-9 4.037-9 9-9zm-10.957 20.527-.026 1.473h-.183l-1.943-10.69c.349-.286.634-.642.826-1.056l1.587 1.27c.397 1.684 1.174 3.223 2.248 4.51l-1.045 1.045c-.922.921-1.442 2.146-1.464 3.448zm-5.043-13.246 2 1.6v.119c0 .551-.448 1-1 1h-2c-.552 0-1-.449-1-1v-.119zm-.984 4.719h1.969l1.818 10h-5.605zm7.041-7.675c-.4.848-.697 1.752-.87 2.7l-.589 1.373-2.851-2.281 3.401-2.04zm6.943-20.07c0 .968-.254 1.923-.734 2.764l-1.982 3.47c-.305.535-.776.935-1.318 1.195.016-.227.034-.453.034-.684v-4.362c0-.685-.153-1.349-.418-1.967 1.42-.614 2.418-2.027 2.418-3.671 0-.655-.174-1.265-.454-1.812l1.28 1.646c.757.973 1.174 2.188 1.174 3.421zm-23.283 6.233-1.982-3.469c-.481-.841-.735-1.796-.735-2.764 0-1.233.417-2.448 1.174-3.421l3.545-4.558c1.125-1.446 2.821-2.276 4.653-2.276.91 0 1.822.215 2.637.623l.991.495.991-.496c.815-.407 1.727-.622 2.637-.622 1.832 0 3.528.83 4.653 2.276l1.348 1.734c-.704-.621-1.618-1.01-2.629-1.01-2.206 0-4 1.794-4 4h2c0-1.103.897-2 2-2s2 .897 2 2-.897 2-2 2h-2.938c-2.057 0-3.879-1.234-4.643-3.143l-.491-1.229-1.857.742.467 1.168-3.507 1.503c-1.842.79-3.031 2.593-3.031 4.597v4.362c0 .231.018.457.035.684-.542-.26-1.013-.661-1.318-1.196zm3.283.512v-4.362c0-1.202.714-2.284 1.818-2.758l3.717-1.593c1.302 1.686 3.314 2.713 5.528 2.713h2.442c.317.485.495 1.051.495 1.638v4.362c0 3.86-3.141 7-7 7s-7-3.14-7-7zm7 9c1.149 0 2.245-.225 3.256-.619l.625 3.124-3.881 2.329-3.881-2.329.625-3.124c1.011.394 2.107.619 3.256.619zm-5.148 4.077 3.401 2.04-2.851 2.281-1.716-4.003zm-12.852 27.923c-1.654 0-3-1.346-3-3v-11.349c0-2.761.989-5.436 2.787-7.532 1.813-2.117 4.193-3.623 6.883-4.356l3.067-.836 2.861 6.675 1.685-1.348c.192.414.477.77.826 1.056l-1.943 10.69h-8.166v-5h-2v5h-2v2h18v8zm21-8h3c1.654 0 3 1.346 3 3s-1.346 3-3 3h-3zm7.465.795v-.795h10.535v4h-10.101c.066-.323.101-.658.101-1 0-.795-.204-1.537-.535-2.205zm14.535 7.205h-18v-.101c1.213-.247 2.253-.946 2.974-1.899h13.026v-8h-14.535v.676c-.448-.257-.928-.464-1.449-.572l.027-1.543c.013-.781.325-1.516.878-2.069l1.045-1.045c1.908 1.592 4.36 2.553 7.034 2.553 2.673 0 5.126-.961 7.034-2.552l1.087 1.088c.559.558.879 1.331.879 2.121z"/></g></g></svg>