<svg id="Layer_1" enable-background="new 0 0 512 512" height="512" viewBox="0 0 512 512" width="512" xmlns="http://www.w3.org/2000/svg"><g><g><path d="m323.334 401.5c44.275 0 80.167-35.892 80.167-80.167v-72.847l-295-2.576v75.423c0 44.275 35.892 80.167 80.167 80.167z" fill="#d19a6e"/><path d="m403.5 248.49v72.84c0 44.28-35.89 80.17-80.17 80.17h-30c44.28 0 80.17-35.89 80.17-80.17v-72.84z" fill="#bc845e"/><path d="m157.5 392.5c-44.183 0-80 35.817-80 80v12c0 11.046 8.954 20 20 20h317c11.046 0 20-8.954 20-20v-12c0-44.183-35.817-80-80-80v78.5h-202.5z" fill="#6f6571"/><path d="m434.5 472.5v12c0 11.05-8.95 20-20 20h-30c11.05 0 20-8.95 20-20v-12c0-33.57-20.68-62.31-50-74.18v-5.82c44.18 0 80 35.82 80 80z" fill="#5d5360"/><g fill="#ecbd83"><path d="m354.5 392.5h-50c-2.761 0-5-2.239-5-5v-56h-87v56c0 2.761-2.239 5-5 5h-50v71h187z"/><path d="m158.5 259.5h-36.5c-16.845 0-30.5-13.655-30.5-30.5 0-16.845 13.655-30.5 30.5-30.5h36.5z"/><path d="m363.5 259.5h26.5c16.845 0 30.5-13.655 30.5-30.5 0-16.845-13.655-30.5-30.5-30.5h-26.5z"/></g><path d="m138.5 138.5v101.5c0 64.893 52.606 117.5 117.5 117.5 64.893 0 117.5-52.606 117.5-117.5v-101.5z" fill="#f6d190"/><path d="m373.5 138.5v101.5c0 32.44-13.15 61.82-34.42 83.08-21.26 21.27-50.64 34.42-83.08 34.42-5.08 0-10.09-.32-15-.95 26.45-3.37 50.15-15.53 68.08-33.47 21.27-21.26 34.42-50.64 34.42-83.08v-101.5z" fill="#ecbd83"/><path d="m256 429.5c-15.188 0-27.5 12.312-27.5 27.5v2.5h55v-2.5c0-15.188-12.312-27.5-27.5-27.5z" fill="#fff"/><path d="m203 429.5c-14.083 0-25.5 11.417-25.5 25.5v4.5h51v-4.5c0-14.083-11.417-25.5-25.5-25.5z" fill="#faf2f3"/><path d="m309 429.5c-14.083 0-25.5 11.417-25.5 25.5v4.5h51v-4.5c0-14.083-11.417-25.5-25.5-25.5z" fill="#faf2f3"/><path d="m403.5 177v24.65c-4.07-2.02-8.65-3.15-13.5-3.15h-31.5c-8.28 0-15-6.72-15-15v-10.5c0-2.76-2.24-5-5-5h-52c-8.28 0-15.78-3.36-21.21-8.79s-8.79-12.93-8.79-21.21c0 16.57-13.43 30-30 30h-53c-2.76 0-5 2.24-5 5v10.5c0 8.28-6.72 15-15 15h-31.5c-4.85 0-9.43 1.13-13.5 3.15v-24.65c0-40.73 16.51-77.6 43.2-104.3 26.7-26.69 63.57-43.2 104.3-43.2 81.46 0 147.5 66.04 147.5 147.5z" fill="#d19a6e"/><path d="m403.5 177v24.65c-4.07-2.02-8.65-3.15-13.5-3.15h-16.5v-21.5c0-76.4-58.08-139.23-132.5-146.75 4.93-.49 9.94-.75 15-.75 81.46 0 147.5 66.04 147.5 147.5z" fill="#bc845e"/><path d="m379.5 396.49v108.01h-247v-108.01c7.87-2.59 16.27-3.99 25-3.99h20v67h157v-67h20c8.73 0 17.13 1.4 25 3.99z" fill="#c3aff0"/><path d="m379.5 396.49v17.91c-12.06-11.41-27.67-19.12-45-21.28v-.62h20c8.73 0 17.13 1.4 25 3.99z" fill="#a69ded"/><path d="m320.5 27.5c-6.249 0-11.988 2.168-16.518 5.785-.38-14.304-12.086-25.785-26.482-25.785-8.854 0-16.688 4.346-21.5 11.017-4.812-6.671-12.646-11.017-21.5-11.017-14.396 0-26.102 11.481-26.482 25.785-4.531-3.618-10.27-5.785-16.518-5.785-14.635 0-26.5 11.865-26.5 26.5 0 .457.012.912.034 1.364.903 17.822 20.912 27.902 36.27 18.816 36.464-21.573 72.927-21.573 109.391 0 15.359 9.086 35.367-.994 36.27-18.816.024-.452.035-.907.035-1.364 0-14.635-11.864-26.5-26.5-26.5z" fill="#71ddf9"/><path d="m303.82 31.09c-3.91-2.29-8.46-3.59-13.32-3.59-6.25 0-11.99 2.17-16.52 5.79-.23-8.77-4.72-16.48-11.48-21.13.88-.6 1.79-1.15 2.74-1.65 3.66-1.92 7.84-3.01 12.26-3.01 13.65 0 24.88 10.32 26.32 23.59z" fill="#23c7f7"/><path d="m347 54c0 .46-.01.91-.03 1.36-.91 17.83-20.92 27.91-36.27 18.82-.94-.56-1.88-1.1-2.82-1.62 5.15-3.91 8.72-9.9 9.09-17.2.02-.45.03-.9.03-1.36 0-9.07-4.55-17.07-11.49-21.84 4.26-2.94 9.42-4.66 14.99-4.66 14.64 0 26.5 11.86 26.5 26.5z" fill="#23c7f7"/></g><g><path d="m298.322 280.531c-2.667-3.17-7.397-3.577-10.567-.911-18.785 15.805-44.89 15.813-63.482.022-3.157-2.683-7.89-2.296-10.572.862-2.681 3.157-2.295 7.89.862 10.571 12.148 10.316 26.74 15.474 41.362 15.474 14.607 0 29.245-5.151 41.487-15.451 3.169-2.666 3.577-7.398.91-10.567z"/><path d="m315.5 251.5c4.142 0 7.5-3.357 7.5-7.5v-15c0-4.143-3.358-7.5-7.5-7.5s-7.5 3.357-7.5 7.5v15c0 4.143 3.358 7.5 7.5 7.5z"/><path d="m196.5 221.5c-4.142 0-7.5 3.357-7.5 7.5v15c0 4.143 3.358 7.5 7.5 7.5s7.5-3.357 7.5-7.5v-15c0-4.143-3.358-7.5-7.5-7.5z"/><path d="m379.488 388.641c19.737-16.494 31.512-41.081 31.512-67.308v-60.683c10.238-6.815 17-18.456 17-31.65s-6.762-24.834-17-31.65v-20.35c0-46.662-20.635-90.206-56.665-119.8.047-.484.096-.967.121-1.456.029-.577.044-1.159.044-1.744 0-18.748-15.252-34-34-34-3.866 0-7.63.639-11.227 1.901-4.967-13.026-17.649-21.901-31.773-21.901-7.892 0-15.44 2.707-21.5 7.666-6.06-4.959-13.608-7.666-21.5-7.666-14.124 0-26.805 8.875-31.773 21.901-3.596-1.262-7.361-1.901-11.227-1.901-18.748 0-34 15.252-34 34 0 .585.015 1.167.044 1.743.025.489.074.972.121 1.456-36.042 29.595-56.665 73.092-56.665 119.801v20.35c-10.237 6.815-17 18.456-17 31.65 0 13.201 6.77 24.847 17.017 31.661-.005.113-.017.224-.017.339v25.333c0 4.143 3.358 7.5 7.5 7.5s7.5-3.357 7.5-7.5v-19.811c1.955.312 3.958.478 6 .478h11.946c8.61 38.949 35.435 71.132 71.054 87.114v30.886h-47.5c-3.542.125-4.75-.479-5.162-.717-22.414-12.966-36.338-37.088-36.338-62.95 0-4.143-3.358-7.5-7.5-7.5s-7.5 3.357-7.5 7.5c0 26.139 11.793 50.798 31.516 67.307-36.112 10.778-62.516 44.291-62.516 83.86v12c0 15.163 12.336 27.5 27.5 27.5h202c4.142 0 7.5-3.357 7.5-7.5s-3.358-7.5-7.5-7.5h-159.5v-94.852c5.608-1.396 11.467-2.148 17.5-2.148h12.5v55 4.5c0 4.143 3.358 7.5 7.5 7.5h157c4.142 0 7.5-3.357 7.5-7.5v-59.5h12.5c6.033 0 11.892.753 17.5 2.148v94.852h-37.5c-4.142 0-7.5 3.357-7.5 7.5s3.358 7.5 7.5 7.5h80c15.164 0 27.5-12.337 27.5-27.5v-12c0-39.568-26.402-73.079-62.512-83.859zm-254.488 108.359h-27.5c-6.893 0-12.5-5.607-12.5-12.5v-12c0-28.295 16.303-52.839 40-64.778zm265-245h-9.579c.378-3.95.579-7.952.579-12v-3.5h9.5c4.142 0 7.5-3.357 7.5-7.5s-3.358-7.5-7.5-7.5h-9.5v-15.5h9c12.682 0 23 10.317 23 23s-10.318 23-23 23zm-198.5-217c2.683 0 5.272.547 7.696 1.626 3.309 1.472 7.091 1.439 10.376-.093 3.253-1.517 5.685-4.356 6.671-7.792 2.323-8.091 9.831-13.741 18.257-13.741 4.85 0 9.467 1.83 13.001 5.153 4.765 4.479 12.231 4.479 16.998-.001 3.534-3.322 8.151-5.152 13-5.152 8.427 0 15.934 5.65 18.256 13.741.986 3.435 3.417 6.274 6.67 7.792 3.285 1.531 7.067 1.564 10.377.093 2.427-1.079 5.016-1.626 7.698-1.626 10.477 0 19 8.523 19 19 0 .329-.008.657-.024.983-.284 5.595-3.334 10.354-8.369 13.06-5.269 2.829-11.471 2.711-16.592-.318-19.416-11.488-38.962-17.229-58.515-17.229-19.548 0-39.103 5.744-58.514 17.229-5.12 3.029-11.323 3.148-16.592.318-5.035-2.705-8.085-7.465-8.369-13.061-.017-.325-.025-.653-.025-.982 0-10.477 8.523-19 19-19zm-75.5 142c0-40.475 17.141-78.286 47.283-104.898 2.697 3.726 6.256 6.868 10.512 9.155 4.776 2.565 9.963 3.845 15.137 3.845 5.589-.001 11.165-1.493 16.192-4.467 34.236-20.254 67.52-20.253 101.753 0 9.681 5.728 21.392 5.96 31.329.622 4.254-2.286 7.812-5.426 10.508-9.148 30.131 26.613 47.286 64.458 47.286 104.891v14.478c-1.955-.312-3.958-.478-6-.478h-31.5c-4.136 0-7.5-3.364-7.5-7.5v-10.5c0-6.893-5.607-12.5-12.5-12.5h-52c-12.407 0-22.5-10.094-22.5-22.5 0-4.143-3.358-7.5-7.5-7.5s-7.5 3.357-7.5 7.5c0 12.406-10.093 22.5-22.5 22.5h-53c-6.893 0-12.5 5.607-12.5 12.5v10.5c0 4.136-3.364 7.5-7.5 7.5h-31.5c-2.042 0-4.045.167-6 .478zm6 75c-12.682 0-23-10.317-23-23s10.318-23 23-23h9v15.5h-9.5c-4.142 0-7.5 3.357-7.5 7.5s3.358 7.5 7.5 7.5h9.5v3.5c0 4.048.201 8.05.579 12zm24-12v-34h7.5c12.407 0 22.5-10.094 22.5-22.5v-8h50.5c12.253 0 23.153-5.907 30-15.023 6.847 9.116 17.747 15.023 30 15.023h49.5v8c0 12.406 10.093 22.5 22.5 22.5h7.5v34c0 60.654-49.346 110-110 110s-110-49.346-110-110zm39.271 212c1.435-8.499 8.828-15 17.729-15s16.294 6.501 17.729 15zm51.387 0c2.229-8.612 10.043-15 19.342-15s17.113 6.388 19.342 15zm54.613 0c1.435-8.499 8.828-15 17.729-15s16.294 6.501 17.729 15zm35.729-24.637c-5.181-3.386-11.362-5.363-18-5.363-10.561 0-19.971 4.992-26.016 12.734-6.424-7.773-16.136-12.734-26.984-12.734s-20.56 4.961-26.984 12.734c-6.045-7.742-15.455-12.734-26.016-12.734-6.638 0-12.819 1.977-18 5.363v-27.363h22.5c6.893 0 12.5-5.607 12.5-12.5v-27.792c11.406 3.437 23.49 5.292 36 5.292 12.511 0 24.594-1.856 36-5.292v27.792c0 6.893 5.607 12.5 12.5 12.5h22.5zm-20-42.363v-30.886c35.619-15.982 62.444-48.165 71.054-87.114h11.946c2.042 0 4.045-.167 6-.478v54.811c0 26.296-14.272 50.615-37.248 63.467-.159.089-1.085.288-1.96.288-1.259-.055-49.792-.088-49.792-.088zm120 99.5c0 6.893-5.607 12.5-12.5 12.5h-27.5v-89.278c23.697 11.938 40 36.483 40 64.778z"/></g></g></svg>