<svg id="Layer_1" enable-background="new 0 0 512.156 512.156" height="512" viewBox="0 0 512.156 512.156" width="512" xmlns="http://www.w3.org/2000/svg"><g><path d="m419.347 392.187c36.958 0 69.89-23.794 81.005-59.041.067-.212.133-.424.2-.636 7.538-24.125 11.604-49.795 11.604-76.432 0-141.385-114.615-256-256-256-58.702 0-111.958 19.512-154.515 51.871-.056.042-.111.085-.167.127-10.025 7.636-15.802 19.604-15.802 32.206v307.905z" fill="#55c7a6"/><path d="m93.031 453.375c1.372 1.135 2.756 2.255 4.152 3.362.801-.094 1.608-.147 2.417-.147h315.687c.658-.523 1.318-1.042 1.973-1.573h.012c38.662-31.355 68.03-73.788 83.256-122.515-70.723 53.604-161.024 64.716-238.81 37.558 0 .004-.001.008-.002.011-.112-.039-1.865-.657-1.974-.696v-.018c-28.204-10.106-54.127-24.998-76.763-43.734l-.191-.001c-45.831-37.954-78.173-91.608-88.851-152.821-7.468-41.887-4.184-83.049 7.716-120.835-73.578 55.948-115.191 150.28-97.664 248.587 10.678 61.213 43.02 114.867 88.851 152.821z" fill="#39ae96"/><path d="m354.983 392.349c.001-.008 0-.017.001-.025-.551-.343-1.117-.663-1.672-1-.617-.375-1.225-.765-1.847-1.132v.029c-28.404-16.803-61.523-26.478-96.916-26.478-.305 0-.609.001-.913.002-46.439.218-83.842 38.235-83.842 84.675v48.708c26.982 9.67 56.053 14.95 86.361 14.95 61.059 0 117.114-21.389 161.112-57.066-15.579-25.432-36.952-46.931-62.284-62.663z" fill="#05cdff"/><path d="m258.3 330.184c-36.465-1.547-68.16 19.585-82.211 50.446-5.945 2.69-11.736 5.661-17.338 8.923v-.023c-.366.213-.721.44-1.085.656-.585.346-1.181.676-1.762 1.028v.036c-25.532 15.47-47.135 36.765-62.988 62.032 23.192 19.219 49.833 34.413 78.852 44.542.265-2.151.558-4.292.894-6.42 1.928-12.225 16.496-17.651 25.9-9.606.121.104.243.207.363.309 6.3 5.329 15.602 4.929 21.438-.906l23.48-23.48c2.973-2.973 7.006-4.644 11.211-4.644s8.236 1.672 11.209 4.646l23.035 23.035c5.879 5.879 15.271 6.21 21.564.775 19.531-16.87 31.41-42.355 29.717-70.555-2.629-43.792-38.447-78.934-82.279-80.794z" fill="#0091c8"/><path d="m254.549 316.286c-47.601 0-86.19 38.588-86.19 86.19 0 31.684 17.107 59.356 42.578 74.333l44.115-44.115 43.748 43.748c25.12-15.061 41.939-42.545 41.939-73.965 0-47.603-38.589-86.191-86.19-86.191z" fill="#fff"/><g><g><path d="m255.108 430.975c-21.98 0-39.798-17.818-39.798-39.798v-89.141h79.596v89.141c0 21.979-17.818 39.798-39.798 39.798z" fill="#ff965a"/></g></g><g><g><path d="m363.071 162.401c0-36.319-23.299-69.531-59.619-69.531h-96.689c-9.242 0-17.79 2.16-25.406 5.965v196.065c0 40.421 32.487 73.572 72.907 73.864.281.002.562.003.843.003 62.402 0 112.988-50.586 112.988-112.988v-35.67z" fill="#ffbe82"/></g></g><path d="m239.876 95.871c-1.913.166-3.805.416-5.669.768h5.89c-.077-.255-.152-.511-.221-.768z" fill="#ff965a"/><path d="m306.793 93.932h-100.35c-36.142 0-65.441 29.299-65.441 65.441v13.272.001 45.897h-17.385c3.712 9.065 9.758 16.923 17.385 22.841v13.278c0 65.214 54.641 117.416 120.23 113.942-36.078-10.478-64.784-39.614-76.466-77.409-5.862-18.965 8.304-38.192 28.154-38.192h121.289c23.194 0 43.052-14.245 51.329-34.458h-17.442v-63.308c0-33.859-27.446-61.305-61.303-61.305zm26.677 142.991h-56.898c-3.013 0-5.586-2.174-6.089-5.145-1.263-7.465-7.729-12.93-15.301-12.93s-14.038 5.464-15.301 12.93c-.503 2.971-3.076 5.145-6.089 5.145h-54.657c.002-22.078-.117-54.548-.13-70.167-.02-24.09 8.119-39.094 16.431-48.131 2.631-2.86 7.238.258 5.53 3.749-.036.074-.072.147-.108.221-.641 1.325.338 2.868 1.809 2.868h90.572c7.549 0 14.585-3.318 19.295-8.803 4.64-5.403 12.316-7.178 18.739-4.102.128.061.256.123.383.185 13.172 6.418 21.305 20.036 21.305 34.689v67.19c0 5.269 2.696 9.905 6.781 12.615-7.088 6.04-16.308 9.686-26.272 9.686z" fill="#ff965a"/><path d="m317.212 30.109h-125.325c-5.839 0-11.442.996-16.664 2.806v71.743c.723-.418 1.458-.82 2.214-1.192 17.615-8.676 33.957-6.504 35.516-6.827-5.749 5.304-10.337 11.839-13.38 19.177h93.669c10.965 0 20.849-7.001 24.094-17.475.02-.065.04-.13.06-.195 5.011 1.095 9.788 2.769 14.264 4.95 13.172 6.418 21.304 20.036 21.304 34.688v67.19c0 8.358 6.776 15.134 15.134 15.134v-139.114c-.002-28.103-22.783-50.885-50.886-50.885z" fill="#783c28"/><path d="m178.69 80.994c0-28.103 22.782-50.885 50.885-50.885h-37.688c-28.103 0-50.885 22.782-50.885 50.885v82.004.003 57.108c8.358 0 15.134-6.776 15.134-15.134v-66.825c0-14.76 8.306-28.365 21.58-34.821.325-.158.65-.313.975-.464v-21.871z" fill="#5a2d19"/><g><g><path d="m368.096 240.651v-67.159c14.631 0 26.492 11.861 26.492 26.492v14.176c0 14.63-11.861 26.491-26.492 26.491z" fill="#ff965a"/></g></g><g><g><path d="m114.51 214.159c0 14.631 11.861 26.492 26.492 26.492v-67.159c-14.631 0-26.492 11.861-26.492 26.492z" fill="#ff965a"/></g></g><g><g><path d="m215.7 230.936c-5.197 0-9.411-4.214-9.411-9.411v-25.737c0-5.197 4.214-9.411 9.411-9.411s9.411 4.214 9.411 9.411v25.737c0 5.197-4.214 9.411-9.411 9.411z" fill="#ff965a"/></g></g><g><g><path d="m292.553 230.936c-5.197 0-9.411-4.214-9.411-9.411v-25.737c0-5.197 4.214-9.411 9.411-9.411s9.411 4.214 9.411 9.411v25.737c0 5.197-4.214 9.411-9.411 9.411z" fill="#ff965a"/></g></g><g><g><path d="m215.7 223.398c-5.197 0-9.411-4.214-9.411-9.411v-25.737c0-5.197 4.214-9.411 9.411-9.411s9.411 4.214 9.411 9.411v25.737c0 5.197-4.214 9.411-9.411 9.411z" fill="#373c41"/></g></g><g><g><path d="m292.553 223.398c-5.197 0-9.411-4.214-9.411-9.411v-25.737c0-5.197 4.214-9.411 9.411-9.411s9.411 4.214 9.411 9.411v25.737c0 5.197-4.214 9.411-9.411 9.411z" fill="#373c41"/></g></g><g><g><g><path d="m228.098 174.134h-27.444c-5.197 0-9.411-4.213-9.411-9.411 0-5.197 4.213-9.411 9.411-9.411h27.444c5.197 0 9.411 4.213 9.411 9.411 0 5.198-4.213 9.411-9.411 9.411z" fill="#783c28"/></g></g></g><g><g><g><path d="m306.52 174.134h-27.444c-5.197 0-9.411-4.213-9.411-9.411 0-5.197 4.213-9.411 9.411-9.411h27.444c5.197 0 9.411 4.213 9.411 9.411-.001 5.198-4.214 9.411-9.411 9.411z" fill="#783c28"/></g></g></g><path d="m289.759 275.459h-9.69l-25.52 5.298-25.52-5.298h-8.572c-2.876 0-5.173 2.51-4.79 5.36.734 5.452 2.572 10.554 5.281 15.074l51.673 15.313c11.67-5.728 20.124-17.003 21.926-30.387.385-2.85-1.913-5.36-4.788-5.36z" fill="#e0248b"/><g><g><path d="m239.86 242.116c-2.339 9.342 1.912 19.518 10.043 22.585 1.636.617 3.386.951 5.205.951s3.569-.334 5.205-.951c8.13-3.067 12.382-13.243 10.043-22.585l-7.755-30.969c-1.952-7.797-13.033-7.797-14.985 0z" fill="#ff965a"/></g></g><g><path d="m350.598 108.673c-1.345 2.412-2.888 4.696-4.572 6.864 4.436 6.413 6.936 14.159 6.936 22.248v67.19c0 8.358 6.776 15.134 15.134 15.134v-57.708-59.867c-6.47-2.714-14.05-.045-17.498 6.139z" fill="#5a2d19"/></g><path d="m209.759 205.351c-1.916 0-3.469-1.553-3.469-3.469v-10.506c0-1.916 1.553-3.469 3.469-3.469 1.916 0 3.469 1.553 3.469 3.469v10.506c0 1.916-1.553 3.469-3.469 3.469z" fill="#fff"/><path d="m286.436 205.351c-1.916 0-3.469-1.553-3.469-3.469v-10.506c0-1.916 1.553-3.469 3.469-3.469 1.916 0 3.469 1.553 3.469 3.469v10.506c0 1.916-1.553 3.469-3.469 3.469z" fill="#fff"/><path d="m220.954 295.891c6.954 11.6 19.646 19.367 34.154 19.367 6.285 0 12.227-1.462 17.512-4.056-2.272-14.252-14.615-25.145-29.507-25.145-8.789-.001-16.691 3.794-22.159 9.834z" fill="#f73c9a"/><path d="m274.455 286.056h-39.812c-3.101 0-5.614-2.513-5.614-5.614v-4.982h51.04v4.982c0 3.1-2.514 5.614-5.614 5.614z" fill="#fff"/><path d="m394.588 218.568c0 4.229-3.429 7.658-7.658 7.658h-265.458c-4.229 0-7.658-3.429-7.658-7.658v-58.362c0-4.229 3.429-7.658 7.658-7.658h265.458c4.229 0 7.658 3.429 7.658 7.658z" fill="#453d49"/><path d="m329.468 234.383h-149.78c-26.501 0-47.984-21.483-47.984-47.984 0-26.501 21.483-47.984 47.984-47.984h149.78c26.501 0 47.984 21.483 47.984 47.984 0 26.5-21.483 47.984-47.984 47.984z" fill="#453d49"/><path d="m353.038 209.956h-149.78c-26.501 0-47.984-21.483-47.984-47.984 0-6.733 1.393-13.139 3.896-18.955-16.235 7.692-27.466 24.223-27.466 43.381 0 26.501 21.483 47.984 47.984 47.984h149.78c19.768 0 36.738-11.957 44.088-29.03-6.222 2.949-13.176 4.604-20.518 4.604z" fill="#2c2630"/><path d="m212.255 146.496h-43.052l-25.613 67.628c-3.389 8.947 3.222 18.519 12.789 18.519h23.249z" fill="#fff"/><path d="m240.162 145.897h-15.862l-32.628 86.148h15.863z" fill="#fff"/><path d="m334.209 133.516h-159.262c-.066 0-.131.005-.196.005v16.078c.066 0 .131-.005.196-.005h159.262c22.028 0 39.89 18.182 39.366 40.326-.508 21.497-18.602 38.428-40.105 38.428h-56.898c-3.013 0-5.586-2.174-6.089-5.145-1.263-7.465-7.729-12.93-15.301-12.93s-14.038 5.464-15.301 12.93c-.503 2.971-3.076 5.145-6.089 5.145h-33.555v16.078h133.97c30.627 0 55.455-24.828 55.455-55.455.002-30.627-24.826-55.455-55.453-55.455z" fill="#b4d7dc"/><g><path d="m206.53 228.348h-30.844c-21.503 0-39.597-16.931-40.105-38.429-.524-22.145 17.338-40.326 39.366-40.326h6.93c4.44 0 8.039-3.599 8.039-8.039 0-4.44-3.599-8.039-8.039-8.039h-6.93c-30.627 0-55.455 24.828-55.455 55.455 0 30.627 24.828 55.455 55.455 55.455h31.583c4.44 0 8.039-3.599 8.039-8.039 0-4.438-3.599-8.038-8.039-8.038z" fill="#e4f2f6"/></g></g></svg>