<svg height="512" viewBox="0 0 60 61" width="512" xmlns="http://www.w3.org/2000/svg"><g id="Page-1" fill="none" fill-rule="evenodd"><g id="033---Pump" fill-rule="nonzero"><g id="Icons" transform="translate(1 1)"><path id="Shape" d="m15 49h16c3.3137085 0 6 2.6862915 6 6v1c0 1.1045695-.8954305 2-2 2h-24c-1.1045695 0-2-.8954305-2-2v-1c0-3.3137085 2.6862915-6 6-6z" fill="#7f8e94"/><rect id="Rectangle-path" fill="#7f8e94" height="12" rx="2" width="18" x="14" y="13"/><path id="Rectangle-path" d="m17 25h12v24h-12z" fill="#607d8b"/><path id="Shape" d="m32 15h12c6.0751322 0 11 4.9248678 11 11v1c0 1.1045695-.8954305 2-2 2h-5c-1.1045695 0-2-.8954305-2-2v-2c0-.5522847-.4477153-1-1-1h-13.27z" fill="#607d8b"/><path id="Shape" d="m57.18 44.13c-.32 4-.67 8.35-1 12.95-.041797.5208219-.4775063.9216745-1 .92h-10.32c-.5224937.0016745-.958203-.3991781-1-.92-.68-8.48-.72-9-.92-11.52 1.1836224.249877 2.4063776.249877 3.59 0 2.67-.52 4.95-2.87 7.74-2.57 1.051652.1243997 2.0536945.5169524 2.91 1.14z" fill="#02a9f4"/><path id="Shape" d="m54.27 43c-.6733069-.0588491-1.3516792.0089882-2 .2.6874222.1861883 1.3371408.4907439 1.92.9-.32 4-.67 8.35-1 12.95-.041797.5208219-.4775063.9216745-1 .9200052l3-.0000052c.5224937.0016745.958203-.3991781 1-.92.37-4.6.72-8.93 1-12.95-.8632203-.6103967-1.8685998-.9891355-2.92-1.1z" fill="#0377bc"/><path id="Shape" d="m58 34.08c-.25 3.09-.53 6.45-.82 10.05-.8573171-.6194846-1.8592826-1.008564-2.91-1.13-2.79-.3-5.07 2-7.74 2.57-1.1836224.249877-2.4063776.249877-3.59 0-.14-1.75-.36-4.45-.93-11.48-.0251902-.2787.0675493-.5552044.2556929-.7623523.1881435-.207148.4544759-.3259854.7343071-.3276477h14c.2796775-.0008965.5469501.1153694.7369662.3205868.1900162.2052175.2854096.4806308.2630338.7594132z" fill="#f5f5f5"/><path id="Shape" d="m57 33-3-.0000361c.2796775-.0008604.5469501.1154055.7369662.3206229.1900162.2052175.2854096.4806308.2630338.7594132-.22 2.77-.47 5.77-.73 9 1.0479291.1125284 2.0496678.4911925 2.91 1.1.29-3.6.57-7 .82-10.05.0376282-.2869107-.0508704-.5760542-.2426392-.7927529-.1917688-.2166988-.4680036-.339704-.7573608-.3372471z" fill="#cfd8dc"/><path id="Shape" d="m27 4c.0052109.07324077.0052109.14675923 0 .22-.0814473 1.62638842-1.1407124 3.04105501-2.6784001 3.577049-1.5376876.53599399-3.2468124.08630901-4.3215999-1.137049l-.06-.08c-.6079497-.72214124-.9409149-1.63602439-.94-2.58-.001784-.47558535.0864343-.94721387.26-1.39.6600638-1.76932698 2.4676308-2.83598683 4.3355645-2.55845146 1.8679337.27753536 3.287298 1.82364884 3.4044355 3.70845146z" fill="#7f8e94"/><path id="Shape" d="m26 6.64v6.36h-6v-6.36c.7593322.86100175 1.8519977 1.35424869 3 1.35424869s2.2406678-.49324694 3-1.35424869z" fill="#607d8b"/><path id="Shape" d="m19.94 6.56c-1.1765711.27424489-2.3010748.73687853-3.33 1.37-.8593029.55895245-1.6810628 1.17360208-2.46 1.84-.73.59-1.49 1.2-2.32 1.76-2.42 1.64-5.53 2.47-9.83 2.47-1.1045695 0-2-.8954305-2-2s.8954305-2 2-2c3.41 0 5.9-.62 7.61-1.78.69-.47 1.35-1 2-1.56.9072297-.76683105 1.8625073-1.47493888 2.86-2.12 1.4705074-.90629665 3.0830121-1.55873565 4.77-1.93-.1667389.44410733-.2481639.91569363-.24 1.39.0037859.93709825.3364663 1.84312163.94 2.56z" fill="#607d8b"/><g fill="#f5f5f5"><path id="Shape" d="m21 32c-.5522847 0-1-.4477153-1-1v-2c0-.5522847.4477153-1 1-1s1 .4477153 1 1v2c0 .5522847-.4477153 1-1 1z"/><path id="Shape" d="m21 46c-.5522847 0-1-.4477153-1-1v-10c0-.5522847.4477153-1 1-1s1 .4477153 1 1v10c0 .5522847-.4477153 1-1 1z"/></g></g><g id="Icons_copy" fill="#000"><path id="Shape" d="m42.54 33.64c-.3854009.4083933-.5813639.9599929-.54 1.52l.49 6 .75 9.3.62 7.75c.0835941 1.0416439.9550126 1.8433489 2 1.84h10.28c1.0449874.0033489 1.9164059-.7983561 2-1.84l.44-5.36c.52-6.55 1-12.45 1.43-17.65.038507-.5566219-.1572531-1.1040252-.54-1.51-.3703781-.4275277-.9044726-.6782251-1.47-.69h-14c-.5543301.0017832-1.0830564.2335537-1.46.64zm13.6 24.36h-10.29l-.62-7.75c-.08-1.09-.14-1.8-.2-2.52h.78c.6414186.0007004 1.2812894-.0629517 1.91-.19 1.1956126-.289126 2.346213-.7399461 3.42-1.34 1.1909316-.7771826 2.5780503-1.2002538 4-1.22.7023436.0793782 1.3820522.2968849 2 .64-.18 2.24-.37 4.56-.57 7zm1.86-23c-.22 2.66-.45 5.51-.69 8.53-.6155647-.2655343-1.2651552-.4439193-1.93-.53-2-.22-3.57.61-5.15 1.41-.9051482.520629-1.8775901.9143165-2.89 1.17-.8135688.1589134-1.6470233.1892822-2.47.09-.09-1.07-.21-2.5-.39-4.77l-.48-5.9z"/><path id="Shape" d="m3 16c4.47 0 7.76-.88 10.36-2.64.89-.6 1.72-1.27 2.39-1.82.7459944-.6393187 1.5344685-1.2273333 2.36-1.76.5971993-.36183911 1.230655-.66013306 1.89-.89v4.11h-3c-1.6568542 0-3 1.3431458-3 3v8c0 1.6568542 1.3431458 3 3 3v22h-1c-3.8659932 0-7 3.1340068-7 7v1c0 1.6568542 1.3431458 3 3 3h24c1.6568542 0 3-1.3431458 3-3v-1c0-3.8659932-3.1340068-7-7-7h-1v-22c.8480832-.0045533 1.6546153-.3678561 2.22-1h12.78v2c0 1.6568542 1.3431458 3 3 3h5c1.6568542 0 3-1.3431458 3-3v-1c0-6.627417-5.372583-12-12-12h-11.18c-.4227483-1.1957287-1.5517451-1.9964356-2.82-2h-3v-5c.572903-.7544367.9196972-1.65610168 1-2.6 0 0 0 0 0-.06s0-.21 0-.32v-.02c.0041614-.0732743.0041614-.1467257 0-.22.0046784-.04654941.0046784-.09345059 0-.14-.2090669-2.20070818-1.8384745-4.00292988-4.0070451-4.43203002s-4.3615387.61677912-5.3929549 2.57203002c-1.6230768.39435122-3.1749534 1.03871736-4.6 1.91-1.0434508.66853851-2.0452984 1.39988721-3 2.19-.7.57-1.32 1.07-2 1.51-1.51 1.05-3.82 1.61-7 1.61-1.65685425 0-3 1.3431458-3 3s1.34314575 3 3 3zm34 40v1c0 .5522847-.4477153 1-1 1h-24c-.5522847 0-1-.4477153-1-1v-1c0-2.7614237 2.2385763-5 5-5h16c2.7614237 0 5 2.2385763 5 5zm-8-7h-10v-22h10zm26-22v1c0 .5522847-.4477153 1-1 1h-5c-.5522847 0-1-.4477153-1-1v-2c0-1.1045695-.8954305-2-2-2h-12v-7h11c5.5228475 0 10 4.4771525 10 10zm-23-11v8c0 .5522847-.4477153 1-1 1h-14c-.5522847 0-1-.4477153-1-1v-8c0-.5522847.4477153-1 1-1h14c.5522847 0 1 .4477153 1 1zm-10-3v-3.42c1.2752523.5565657 2.7247477.5565657 4 0v3.42zm2-11c1.6568542 0 3 1.34314575 3 3s-1.3431458 3-3 3-3-1.34314575-3-3 1.3431458-3 3-3zm-21.71 10.3c.18707144-.1908556.4427541-.2988906.71-.3 3.62 0 6.29-.68 8.16-1.95.72-.49 1.38-1 2.18-1.67.8552102-.72068716 1.7535417-1.38859156 2.69-2 .9315336-.5765924 1.9285937-1.03987284 2.97-1.38-.0023427.6877699.1372331 1.36862756.41 2-.8143697.28081466-1.5956614.64966484-2.33 1.1-.8918897.57966014-1.7468727 1.21421786-2.56 1.9-.67.54-1.43 1.16-2.25 1.71-2.27 1.52-5.2 2.29-9.27 2.29-.40188972-.0016616-.76373692-.2437563-.91862095-.6146054s-.07270769-.7983888.20862095-1.0853946z"/></g></g></g></svg>