<svg id="Capa_1" enable-background="new 0 0 497.001 497.001" height="512" viewBox="0 0 497.001 497.001" width="512" xmlns="http://www.w3.org/2000/svg"><g><path d="m369.41 407.171c-32.2 23.48-71.87 37.33-114.77 37.33h-12.28c-43.35 0-83.4-14.14-115.77-38.07l5.86-100.79c9.22-50.5 63.693-95.626 114.503-95.626 25.4 0 55.286 15.652 73.686 31.132 18.4 15.47 31.698 39.244 36.308 64.494z" fill="#9bb9c3"/><path d="m449.641 146.331v103.17c0 64.8-31.6 122.21-80.23 157.67l-17.82-98.64c-4.61-25.25-17.81-47.03-36.21-62.5-18.4-15.48-41.99-24.64-67.39-24.64-50.81 0-94.38 36.65-103.6 87.15l-17.8 97.89c-48.06-35.51-79.23-92.58-79.23-156.93v-103.17z" fill="#b4d2d7"/><ellipse cx="246.953" cy="332.947" fill="#3c6a73" rx="73.686" ry="74.476"/><path d="m307.841 374.9c-13.26 19.63-35.59 32.52-60.89 32.52-40.69 0-73.68-33.34-73.68-74.47 0-25.85 13.03-48.62 32.8-61.98-8.07 11.95-12.8 26.41-12.8 41.98 0 41.13 32.99 74.47 73.68 74.47 15.13.001 29.19-4.609 40.89-12.52z" fill="#2f535a"/><path d="m87.361 146.331h-40v35.05 68.12c0 64.35 31.17 121.42 79.23 156.93l5.86-32.21c-28.15-33.8-45.09-77.28-45.09-124.72v-58.32c0-2.209 1.791-4 4-4h328.05c10.6 0 20.82-2.04 30.23-5.8v-35.05z" fill="#9bb9c3"/><ellipse cx="246.953" cy="332.947" fill="#e6f7fe" rx="29.913" ry="30.234"/><path d="m273.821 346.241c-4.86 10.03-15.07 16.94-26.87 16.94-16.52 0-29.91-13.54-29.91-30.23 0-12.05 6.97-22.45 17.05-27.31-1.95 4.01-3.05 8.53-3.05 13.31 0 16.69 13.39 30.23 29.91 30.23 4.61 0 8.97-1.05 12.87-2.94z" fill="#d3effd"/><path d="m77.588 167.181c-26.754 0-50.479-17.375-58.811-43.071l-17.735-44.264c-4.372-13.483 5.566-27.345 19.604-27.345h455.709c14.037 0 23.976 13.863 19.604 27.345l-17.734 44.265c-8.332 25.696-32.057 43.071-58.811 43.071h-341.826z" fill="#b4d2d7"/><path d="m495.961 79.851-1.33 3.31h-492.26l-1.33-3.31c-4.37-13.49 5.57-27.35 19.61-27.35h455.7c14.04 0 23.98 13.86 19.61 27.35z" fill="#9bb9c3"/><path d="m97.591 167.181h-20c-26.76 0-50.48-17.37-58.81-43.07l-16.41-40.95-1.33-3.31c-4.37-13.49 5.57-27.35 19.61-27.35h20c-14.04 0-23.98 13.86-19.61 27.35l1.33 3.31 16.41 40.95c8.33 25.7 32.05 43.07 58.81 43.07z" fill="#9bb9c3"/><g><path d="m419.001 142.757c-12.407 0-19.204-5.706-19.204-18.112 0-2.016 6.506-19.695 12.669-21.176 2.103-.505 4.263-.968 6.535-.968 12.407 0 22.5 10.094 22.5 22.5 0 2.272-.339 4.467-.968 6.537-2.807 9.228-11.398 11.219-21.532 11.219z" fill="#dc4955"/></g><g><path d="m358.516 142.757c-12.407 0-17.277-6.234-17.277-18.64 0-10.136 5.627-19.168 11.231-20.65 2.089-.553 4.26-.966 6.53-.966 12.407 0 22.5 10.094 22.5 22.5 0 2.202-.318 4.331-.91 6.344-2.745 9.327-11.87 11.412-22.074 11.412z" fill="#ffd064"/></g><g><path d="m434.001 132.501c-12.41 0-22.5-10.09-22.5-22.5 0-2.27.34-4.46.97-6.53-9.24 2.8-15.97 11.39-15.97 21.53 0 12.41 10.09 22.5 22.5 22.5 10.14 0 18.73-6.73 21.53-15.97-2.07.63-4.26.97-6.53.97z" fill="#d82f3c"/></g><g><path d="m374.001 132.501c-12.41 0-22.5-10.09-22.5-22.5 0-2.27.34-4.46.97-6.53-9.24 2.8-15.97 11.39-15.97 21.53 0 12.41 10.09 22.5 22.5 22.5 10.14 0 18.73-6.73 21.53-15.97-2.07.63-4.26.97-6.53.97z" fill="#ffc250"/></g></g></svg>