<svg id="Layer_1_1_" enable-background="new 0 0 64 64" height="512" viewBox="0 0 64 64" width="512" xmlns="http://www.w3.org/2000/svg"><path d="m54 21c-4.07886 0-7.43781 3.05475-7.93091 7h-9.17554l-4.24451-10.03278c4.1139-.33129 7.35096-3.76806 7.35096-7.96722 0-4.41827-3.58173-8-8-8s-8 3.58173-8 8c0 4.19092 3.22412 7.62323 7.32648 7.966l-3.85919 10.034h-10.92066c.35754-.17236.77667-.34979 1.34253-.45825-.13885-.74994-.38391-1.4613-.7168-2.12262-.58783.29321-1.32458.64337-2.64362.64337-1.36768 0-2.11084-.37061-2.7085-.66846-.51074-.25537-.91455-.45654-1.80273-.45654-.88965 0-1.29248.20215-1.80273.45752-.59326.29736-1.33154.66748-2.68604.66748-1.31903 0-2.05579-.35016-2.64362-.64337-.33295.66144-.578 1.37292-.71686 2.12299.68042.13092 1.15381.36255 1.55579.56335.50977.25537.9126.45703 1.80029.45703s1.29053-.20166 1.80029-.45654c.59521-.29785 1.33594-.66846 2.69629-.66846 1.36182 0 2.10303.37012 2.69873.66797.51123.25537.91504.45703 1.80518.45703.72546 0 1.12866-.13666 1.52948-.32446l9.01062 6.00708-4.57635 11.89856c-.48284-.09095-.9793-.14368-1.48858-.14368-4.41827 0-8 3.58173-8 8s3.58173 8 8 8 8-3.58173 8-8c0-3.48706-2.23499-6.44489-5.34747-7.54022l10.63605-7.39874 11.08447 7.3894c-3.12598 1.08801-5.37305 4.05286-5.37305 7.54956 0 4.41827 3.58173 8 8 8s8-3.58173 8-8-3.58173-8-8-8c-.49023 0-.96783.0509-1.43372.13531l-5.10437-12.06451 6.5636-4.5661c.26172 4.18195 3.72663 7.4953 7.97449 7.4953 4.41827 0 8-3.58173 8-8s-3.58173-8-8-8zm-34 38h-2l-2-7 3-3 3 3zm27-10 4 8h-10l2-5 2.19049 1.82538zm-19-37 4-8 4 8h-3v3h-2v-3zm4.04395 9.6709 2.67773 6.3291h-5.11182zm-9.74122 8.3291h4.39502l-.89697 2.33203zm1.79981 12.31934 2.66797-6.93701 3.72949 2.48632zm8.16211-5.67823-4.7583-3.17188 1.33447-3.46923h6.72705l1.41992 3.35547zm8.51465 5.67676-6.72607-4.48438 3.73096-2.5957zm-2.11377-10.12939-.92578-2.18848h4.07178zm16.83447.81152c-.47876 0-.88055-.06055-1.2218-.17957-.36786.11805-.7923.17957-1.2782.17957-2 0-3-.76398-3-3 0-2 3-5 3-5s.99512.99744 1.83936 2.22437c.62085-.7132 1.16064-1.22437 1.16064-1.22437s2 2.33331 2 4c0 1.66663-.83331 3-2.5 3z"/><path d="m54 31c0-1.10461-1-3-1-3s-1 1.89539-1 3c0 1.00262.44769 2 1 2s1-.99738 1-2z"/><path d="m14.52875 35.0625c-1.36768 0-2.11084-.37061-2.7085-.66846-.51074-.25537-.91455-.45654-1.80273-.45654-.88965 0-1.29248.20215-1.80273.45752-.59326.29736-1.33154.66748-2.68604.66748-.27826 0-.5249-.01868-.75549-.0459 1.40734 1.23096 3.24328 1.9834 5.25549 1.9834s3.84814-.75244 5.25549-1.9834c-.23059.02722-.47729.0459-.75549.0459z"/><path d="m10.02875 21c-2.39783 0-4.54706 1.06573-6.01459 2.74231.39771.18573.79962.32019 1.51459.32019.88135 0 1.28223-.20117 1.79004-.45557.59521-.29834 1.33594-.66943 2.69873-.66943 1.35938 0 2.1001.36963 2.6958.6665.51318.25635.91895.4585 1.81543.4585.71497 0 1.11688-.13452 1.51459-.32019-1.46753-1.67658-3.6167-2.74231-6.01459-2.74231z"/><path d="m17.37244 32.16608c.34906-.80646.5628-1.68225.62756-2.59919-.28259.08264-.51636.19775-.77643.32764-.5957.29785-1.33691.66797-2.69873.66797s-2.10303-.37012-2.69873-.66797c-.51123-.25537-.91504-.45703-1.80518-.45703-.88818 0-1.29102.20166-1.80127.45703-.59472.29736-1.33496.66797-2.69531.66797s-2.10059-.37061-2.6958-.66846c-.25842-.12921-.4906-.24402-.77106-.32654.06482.91675.27856 1.7923.62756 2.59857.41315.12793.74133.28925 1.03802.43744.51221.25635.91699.45898 1.80566.45898.88135 0 1.28223-.20117 1.79004-.45557.59521-.29834 1.33594-.66943 2.69873-.66943 1.35938 0 2.1001.36963 2.6958.6665.51318.25635.91895.4585 1.81543.4585.88867 0 1.29346-.20264 1.80566-.45898.29671-.14819.6249-.3095 1.03805-.43743z"/><path d="m35.50342 56.75049-.27734-1.98047c-1.86914.26221-3.68457.29785-5.52295.11523l-.19727 1.99023c.8335.08253 1.67236.12452 2.49414.12452 1.14453 0 2.32373-.08398 3.50342-.24951z"/><path d="m10.854 45.3291 1.69043-1.06836c-.93701-1.4834-1.70312-3.07471-2.27637-4.72949l-1.88965.6543c.62354 1.7998 1.45655 3.53027 2.47559 5.14355z"/><path d="m20.55859 9.77393c-3.53467 1.82324-6.62451 4.50391-8.93604 7.75146l1.62988 1.15918c2.12695-2.98877 4.97021-5.45557 8.22314-7.1333z"/><path d="m43.44141 9.77393-.91699 1.77734c3.25293 1.67773 6.09619 4.14453 8.22314 7.1333l1.62988-1.15918c-2.31152-3.24756-5.40137-5.92822-8.93603-7.75146z"/><path d="m51.77832 43.73828 1.71875 1.02246c.85742-1.44141 1.57227-2.98047 2.12451-4.5752l-1.88965-.6543c-.50781 1.46632-1.16552 2.88185-1.95361 4.20704z"/></svg>