<svg id="Layer_1_1_" enable-background="new 0 0 64 64" height="512" viewBox="0 0 64 64" width="512" xmlns="http://www.w3.org/2000/svg"><path d="m45.221 47.682-12.932-8.621-12.391 8.62 5.167-13.436-9.368-6.245h11.77l4.489-11.671 4.938 11.671h11.295l-8.727 6.071zm-18.45-12.3-2.668 6.937 6.397-4.451zm7.282 2.451 6.726 4.484-2.995-7.08zm-6.547-4.364 4.758 3.172 4.723-3.286-1.419-3.355h-6.727zm-5.203-3.469 3.498 2.332.897-2.332zm15.437 0 .926 2.188 3.146-2.188zm-8.13-2h5.112l-2.678-6.329z" fill="#223b5a"/><circle id="XMLID_6_" cx="32" cy="10" fill="#ffb554" r="8"/><circle cx="54" cy="29" fill="#ffb554" r="8"/><circle cx="46" cy="54" fill="#5dc4dd" r="8"/><circle id="XMLID_5_" cx="10" cy="29" fill="#5dc4dd" r="8"/><circle cx="19" cy="54" fill="#ffb554" r="8"/><path d="m56 26s-.54.511-1.161 1.224c-.844-1.227-1.839-2.224-1.839-2.224s-3 3-3 5c0 2.236 1 3 3 3 .486 0 .91-.062 1.278-.18.341.119.743.18 1.222.18 1.667 0 2.5-1.333 2.5-3s-2-4-2-4z" fill="#e34e4b"/><path d="m20 59h-2l-2-7 3-3 3 3z" fill="#5dc4dd"/><path d="m47 49-1.81 4.825-2.19-1.825-2 5h10z" fill="#ea5b58"/><path d="m28 12 4-8 4 8z" fill="#93c666"/><path d="m16 52 3 1 3-1-3-3z" fill="#50b6cf"/><path d="m19 53v6h1l2-7z" fill="#3cadc9"/><path d="m19 49v4l-3-1z" fill="#80d7ed"/><path d="m56 30c0 2.209-1 3-3 3s-3-.791-3-3 3-5 3-5 3 2.791 3 5z" fill="#ea5b58"/><path d="m54 31c0 1.003-.448 2-1 2s-1-.997-1-2c0-1.105 1-3 1-3s1 1.895 1 3z" fill="#f26b68"/><path d="m48.636 52.273-3.636 2.727-1-1-3 3h10z" fill="#e34e4b"/><path d="m28 12h8l-1.823-3.647c-1.102 1.474-3.208 2.502-5.667 2.628z" fill="#7caa50"/><path d="m2.989 25.148c.192.067.367.148.561.246.54.27 1.211.606 2.446.606s1.907-.336 2.446-.605c.457-.229.788-.395 1.551-.395.765 0 1.096.166 1.555.395.54.269 1.212.605 2.449.605 1.236 0 1.909-.335 2.448-.605.196-.098.372-.18.566-.247-.333-.606-.747-1.16-1.219-1.657-.08.039-.166.077-.24.115-.459.228-.791.394-1.555.394-.765 0-1.097-.166-1.555-.395-.54-.27-1.213-.605-2.449-.605-1.235 0-1.907.336-2.446.605-.457.229-.788.395-1.551.395s-1.093-.166-1.55-.394c-.074-.037-.158-.076-.238-.114-.473.497-.886 1.051-1.219 1.656z" fill="#50b6cf"/><path d="m15.551 32.605c-.458.229-.79.395-1.554.395-.765 0-1.097-.166-1.555-.395-.54-.27-1.213-.605-2.449-.605-1.235 0-1.907.336-2.446.605-.457.229-.788.395-1.551.395s-1.093-.166-1.55-.394c-.441-.221-.989-.476-1.844-.565.431 1.047 1.08 1.98 1.887 2.748.395.122.876.211 1.507.211 1.235 0 1.907-.336 2.446-.605.457-.229.788-.395 1.551-.395.765 0 1.096.166 1.555.395.54.269 1.212.605 2.449.605.637 0 1.121-.09 1.518-.213.806-.768 1.453-1.699 1.884-2.745-.857.088-1.406.343-1.848.563z" fill="#50b6cf"/><path d="m15.551 28.105c-.458.229-.79.395-1.555.395s-1.097-.166-1.555-.395c-.54-.27-1.212-.605-2.448-.605-1.235 0-1.907.336-2.446.605-.457.229-.788.395-1.551.395s-1.093-.166-1.55-.394c-.516-.258-1.166-.569-2.302-.596-.091.483-.144.98-.144 1.49 0 .169.015.335.025.501.742.004 1.074.167 1.525.393.54.27 1.21.606 2.446.606s1.907-.336 2.446-.605c.457-.229.788-.395 1.551-.395.765 0 1.096.166 1.555.395.54.27 1.212.605 2.449.605 1.236 0 1.909-.335 2.448-.605.453-.226.785-.389 1.53-.393.01-.167.025-.333.025-.502 0-.51-.053-1.007-.144-1.49-1.137.027-1.788.338-2.305.595z" fill="#50b6cf"/><path d="m31 12h2v3h-2z" fill="#cc8c60"/><g fill="#223b5a"><path d="m32 57c-.822 0-1.661-.042-2.494-.125l.197-1.99c1.838.183 3.654.147 5.523-.115l.277 1.98c-1.179.166-2.358.25-3.503.25z"/><path d="m10.854 45.329c-1.019-1.613-1.852-3.344-2.476-5.144l1.89-.654c.573 1.655 1.339 3.246 2.276 4.729z"/><path d="m13.252 18.685-1.63-1.159c2.312-3.248 5.401-5.928 8.936-7.751l.917 1.777c-3.252 1.677-6.096 4.144-8.223 7.133z"/><path d="m50.748 18.685c-2.127-2.989-4.97-5.456-8.223-7.133l.917-1.777c3.535 1.823 6.625 4.504 8.936 7.751z"/><path d="m53.497 44.761-1.719-1.022c.788-1.325 1.446-2.741 1.954-4.207l1.89.654c-.553 1.594-1.268 3.133-2.125 4.575z"/></g></svg>