<svg id="Capa_1" enable-background="new 0 0 512 512" height="512" viewBox="0 0 512 512" width="512" xmlns="http://www.w3.org/2000/svg"><g><path d="m215.322 456.1c0 4.139-3.345 7.512-7.483 7.512-4.167 0-7.512-3.373-7.512-7.512 0-23.443 0-46.914 0-70.357 0-4.167 3.345-7.512 7.512-7.512h31.068c6.917 0 13.181 2.834 17.716 7.37 4.564 4.535 7.371 10.828 7.371 17.717 0 6.917-2.807 13.181-7.371 17.745-2.976 2.976-6.69 5.216-10.856 6.406l16.895 24.378c2.324 3.401 1.474 8.079-1.928 10.403-3.373 2.353-8.051 1.502-10.403-1.899l-22.083-31.947h-12.926zm199.335-320.602c8.022 0 15.307 3.231 20.551 8.504 5.244 5.245 8.504 12.53 8.504 20.552 0 7.994-3.26 15.279-8.504 20.523-3.6 3.6-8.135 6.265-13.209 7.569-1.645 32.4-15.477 61.598-36.964 83.112-21.317 21.289-50.146 35.037-82.178 36.908v17.179h29.197c10.091 0 19.247 4.11 25.88 10.743s10.744 15.789 10.744 25.852v108.936c0 10.091-4.111 19.248-10.744 25.881-6.632 6.633-15.788 10.743-25.879 10.743h-96.578c-4.138 0-7.512-3.345-7.512-7.484 0-4.138 3.374-7.512 7.512-7.512h96.578c5.952 0 11.339-2.438 15.278-6.35 3.912-3.912 6.35-9.326 6.35-15.279v-108.936c0-5.924-2.438-11.339-6.35-15.25-3.939-3.912-9.326-6.35-15.278-6.35h-36.682-153.781-36.681c-5.924 0-11.339 2.438-15.25 6.35-3.94 3.912-6.378 9.326-6.378 15.25v108.936c0 5.953 2.438 11.367 6.378 15.279 3.912 3.912 9.326 6.35 15.25 6.35h96.578c4.139 0 7.512 3.374 7.512 7.512 0 4.139-3.373 7.484-7.512 7.484h-96.578c-10.091 0-19.247-4.11-25.88-10.744-6.633-6.633-10.743-15.789-10.743-25.881v-108.936c0-10.063 4.11-19.219 10.743-25.852s15.789-10.743 25.88-10.743h29.197v-55.419c-10.29-7.001-19.672-15.222-27.894-24.492-2.75-3.089-2.495-7.823.595-10.573s7.824-2.494 10.574.596c12.643 14.229 28.205 25.767 45.723 33.647 16.866 7.569 35.604 11.793 55.39 11.793 37.333 0 71.122-15.138 95.586-39.601 24.463-24.464 39.6-58.253 39.6-95.585 0-9.723-1.02-19.163-2.947-28.233-1.984-9.383-4.933-18.397-8.732-26.873-1.7-3.77 0-8.192 3.771-9.893 3.77-1.672 8.191.028 9.864 3.798 4.252 9.496 7.54 19.503 9.751 29.85 2.154 10.148 3.289 20.636 3.289 31.352 0 41.471-16.811 79.002-43.994 106.187-6.661 6.689-13.975 12.728-21.827 18.057v23.188c27.894-1.843 52.98-13.918 71.575-32.486 18.795-18.822 30.927-44.306 32.543-72.596-4.933-1.361-9.326-3.969-12.841-7.484-5.273-5.244-8.504-12.529-8.504-20.523 0-8.022 3.23-15.307 8.504-20.552 5.245-5.273 12.501-8.504 20.523-8.504zm9.949 19.106c-2.551-2.551-6.065-4.11-9.949-4.11-3.855 0-7.37 1.559-9.921 4.11-2.552 2.551-4.11 6.066-4.11 9.95 0 3.855 1.559 7.37 4.11 9.921s6.037 4.11 9.921 4.11 7.398-1.559 9.949-4.11c2.552-2.551 4.11-6.066 4.11-9.921.001-3.884-1.558-7.399-4.11-9.95zm-275.501 128.808v46.432h138.757v-24.464-21.94c-20.75 10.828-44.334 16.951-69.364 16.951-21.883 0-42.691-4.706-61.484-13.153-2.665-1.19-5.302-2.466-7.909-3.826zm69.392-183.631c13.918 0 26.533 5.641 35.632 14.769 9.128 9.127 14.769 21.713 14.769 35.66 0 13.918-5.641 26.532-14.769 35.632-9.099 9.128-21.713 14.797-35.632 14.797-13.946 0-26.532-5.669-35.66-14.797-9.127-9.1-14.768-21.714-14.768-35.632 0-13.947 5.641-26.533 14.768-35.66 9.128-9.128 21.714-14.769 35.66-14.769zm25.03 25.37c-6.406-6.406-15.25-10.375-25.03-10.375-9.808 0-18.652 3.969-25.058 10.375-6.407 6.406-10.375 15.251-10.375 25.059 0 9.78 3.969 18.623 10.375 25.03s15.251 10.375 25.058 10.375c9.78 0 18.624-3.968 25.03-10.375 6.406-6.406 10.375-15.25 10.375-25.03 0-9.808-3.968-18.652-10.375-25.059zm-144.483 88.442c1.956 3.657.567 8.192-3.09 10.12-3.657 1.956-8.192.567-10.148-3.09-5.641-10.63-10.062-22.053-13.067-34.101-2.92-11.679-4.45-23.839-4.45-36.312 0-41.5 16.809-79.031 43.994-106.215 27.183-27.185 64.715-43.995 106.214-43.995 23.67 0 46.092 5.528 66.076 15.335 20.723 10.177 38.751 24.974 52.754 43.059 2.523 3.26 1.9 7.938-1.361 10.488-3.26 2.523-7.965 1.899-10.487-1.36-12.614-16.3-28.83-29.623-47.481-38.778-17.915-8.788-38.098-13.749-59.5-13.749-37.333 0-71.15 15.137-95.613 39.601-24.465 24.464-39.602 58.281-39.602 95.614 0 11.31 1.389 22.28 3.968 32.712 2.693 10.743 6.662 21.034 11.793 30.671zm73.928 172.15c0-4.167 3.374-7.512 7.512-7.512s7.483 3.345 7.483 7.512v70.357c0 4.139-3.345 7.512-7.483 7.512-4.139 0-7.512-3.373-7.512-7.512zm149.672-7.512c4.167 0 7.512 3.345 7.512 7.512 0 4.139-3.345 7.483-7.512 7.483h-31.296v20.183h16.839c4.139 0 7.512 3.374 7.512 7.512s-3.373 7.483-7.512 7.483h-16.839v20.211h31.296c4.167 0 7.512 3.345 7.512 7.484s-3.345 7.512-7.512 7.512h-38.808c-4.139 0-7.483-3.373-7.483-7.512v-70.357c0-4.167 3.345-7.512 7.483-7.512h38.808zm-200.838 77.869c0 4.139-3.345 7.512-7.483 7.512s-7.512-3.373-7.512-7.512v-70.357c0-4.167 3.374-7.512 7.512-7.512h38.807c4.139 0 7.483 3.345 7.483 7.512 0 4.139-3.345 7.483-7.483 7.483h-31.324v20.183h16.838c4.139 0 7.512 3.374 7.512 7.512s-3.373 7.483-7.512 7.483h-16.838zm117.101-62.873h-23.585v20.183h23.585c2.778 0 5.273-1.134 7.115-2.948 1.843-1.843 2.977-4.365 2.977-7.144 0-2.75-1.134-5.273-2.977-7.115-1.842-1.843-4.337-2.976-7.115-2.976z"/></g></svg>