<svg id="Capa_1" enable-background="new 0 0 512 512" height="512" viewBox="0 0 512 512" width="512" xmlns="http://www.w3.org/2000/svg"><path d="m481.095 109.199c17.069 0 30.905 13.837 30.905 30.905v293.602c0 17.069-13.837 30.905-30.905 30.905h-450.19c-17.068.001-30.905-13.836-30.905-30.905v-293.601c0-17.069 13.837-30.905 30.905-30.905h450.19z" fill="#e8e8e8"/><path d="m512 140.105v293.602c0 17.07-13.835 30.905-30.905 30.905h-30.905c17.07 0 30.905-13.835 30.905-30.905v-293.602c0-17.07-13.835-30.905-30.905-30.905h30.905c17.07-.001 30.905 13.835 30.905 30.905z" fill="#c9c9c9"/><path d="m445.038 237.972h-217.368c-11.379 0-20.604-9.225-20.604-20.604v-149.376c0-11.379 9.225-20.604 20.604-20.604h217.368c11.379 0 20.604 9.225 20.604 20.604v149.376c0 11.379-9.225 20.604-20.604 20.604z" fill="#b7b7b7"/><path d="m429.586 207.066h-186.463c-2.845 0-5.151-2.306-5.151-5.151v-118.47c0-2.845 2.306-5.151 5.151-5.151h186.463c2.845 0 5.151 2.306 5.151 5.151v118.471c-.001 2.844-2.307 5.15-5.151 5.15z" fill="#bde0f2"/><path d="m165.859 237.972h-124.652c-2.845 0-5.151-2.306-5.151-5.151v-82.414c0-2.845 2.306-5.151 5.151-5.151h124.652c2.845 0 5.151 2.306 5.151 5.151v82.414c0 2.845-2.306 5.151-5.151 5.151z" fill="#b7b7b7"/><path d="m165.859 304.934h-124.652c-2.845 0-5.151-2.306-5.151-5.151v-20.604c0-2.845 2.306-5.151 5.151-5.151h124.652c2.845 0 5.151 2.306 5.151 5.151v20.604c0 2.844-2.306 5.151-5.151 5.151z" fill="#fcd87e"/><path d="m171.01 279.179v20.604c0 2.843-2.308 5.151-5.151 5.151h-30.905c2.843 0 5.151-2.308 5.151-5.151v-20.604c0-2.843-2.308-5.151-5.151-5.151h30.905c2.843 0 5.151 2.308 5.151 5.151z" fill="#e8bb56"/><g fill="#7f7f93"><path d="m253.94 304.934h-20.604c-2.845 0-5.151-2.306-5.151-5.151v-20.604c0-2.845 2.306-5.151 5.151-5.151h20.604c2.845 0 5.151 2.306 5.151 5.151v20.604c0 2.844-2.307 5.151-5.151 5.151z"/><path d="m315.75 304.934h-20.604c-2.845 0-5.151-2.306-5.151-5.151v-20.604c0-2.845 2.306-5.151 5.151-5.151h20.604c2.845 0 5.151 2.306 5.151 5.151v20.604c0 2.844-2.306 5.151-5.151 5.151z"/><path d="m377.561 304.934h-20.604c-2.845 0-5.151-2.306-5.151-5.151v-20.604c0-2.845 2.306-5.151 5.151-5.151h20.604c2.845 0 5.151 2.306 5.151 5.151v20.604c0 2.844-2.306 5.151-5.151 5.151z"/><path d="m439.372 304.934h-20.604c-2.845 0-5.151-2.306-5.151-5.151v-20.604c0-2.845 2.306-5.151 5.151-5.151h20.604c2.845 0 5.151 2.306 5.151 5.151v20.604c0 2.844-2.306 5.151-5.151 5.151z"/><path d="m253.94 366.744h-20.604c-2.845 0-5.151-2.306-5.151-5.151v-20.603c0-2.845 2.306-5.151 5.151-5.151h20.604c2.845 0 5.151 2.306 5.151 5.151v20.604c0 2.844-2.307 5.15-5.151 5.15z"/><path d="m315.75 366.744h-20.604c-2.845 0-5.151-2.306-5.151-5.151v-20.603c0-2.845 2.306-5.151 5.151-5.151h20.604c2.845 0 5.151 2.306 5.151 5.151v20.604c0 2.844-2.306 5.15-5.151 5.15z"/><path d="m377.561 366.744h-20.604c-2.845 0-5.151-2.306-5.151-5.151v-20.603c0-2.845 2.306-5.151 5.151-5.151h20.604c2.845 0 5.151 2.306 5.151 5.151v20.604c0 2.844-2.306 5.15-5.151 5.15z"/><path d="m439.372 366.744h-20.604c-2.845 0-5.151-2.306-5.151-5.151v-20.603c0-2.845 2.306-5.151 5.151-5.151h20.604c2.845 0 5.151 2.306 5.151 5.151v20.604c0 2.844-2.306 5.15-5.151 5.15z"/><path d="m253.94 428.555h-20.604c-2.845 0-5.151-2.306-5.151-5.151v-20.604c0-2.845 2.306-5.151 5.151-5.151h20.604c2.845 0 5.151 2.306 5.151 5.151v20.604c0 2.845-2.307 5.151-5.151 5.151z"/><path d="m315.75 428.555h-20.604c-2.845 0-5.151-2.306-5.151-5.151v-20.604c0-2.845 2.306-5.151 5.151-5.151h20.604c2.845 0 5.151 2.306 5.151 5.151v20.604c0 2.845-2.306 5.151-5.151 5.151z"/></g><path d="m439.372 397.65h-82.414c-2.845 0-5.151 2.306-5.151 5.151v20.604c0 2.845 2.306 5.151 5.151 5.151h82.414c2.845 0 5.151-2.306 5.151-5.151v-20.604c0-2.845-2.306-5.151-5.151-5.151z" fill="#f49595"/><path d="m444.523 402.801v20.604c0 2.843-2.308 5.151-5.151 5.151h-30.905c2.843 0 5.151-2.308 5.151-5.151v-20.604c0-2.843-2.308-5.151-5.151-5.151h30.905c2.844 0 5.151 2.307 5.151 5.151z" fill="#e86767"/><path d="m165.859 366.744h-124.652c-2.845 0-5.151-2.306-5.151-5.151v-20.603c0-2.845 2.306-5.151 5.151-5.151h124.652c2.845 0 5.151 2.306 5.151 5.151v20.604c0 2.844-2.306 5.15-5.151 5.15z" fill="#90d399"/><path d="m171.01 340.99v20.604c0 2.843-2.308 5.151-5.151 5.151h-30.905c2.843 0 5.151-2.308 5.151-5.151v-20.604c0-2.843-2.308-5.151-5.151-5.151h30.905c2.843 0 5.151 2.308 5.151 5.151z" fill="#70ba70"/><path d="m70.567 214.793h-4.121c-4.268 0-7.726-3.459-7.726-7.726s3.459-7.726 7.726-7.726h4.121c4.268 0 7.726 3.459 7.726 7.726.001 4.266-3.458 7.726-7.726 7.726z" fill="#727272"/><path d="m70.567 183.887h-4.121c-4.268 0-7.726-3.459-7.726-7.726s3.459-7.726 7.726-7.726h4.121c4.268 0 7.726 3.459 7.726 7.726s-3.458 7.726-7.726 7.726z" fill="#727272"/><path d="m105.594 214.793h-4.121c-4.268 0-7.726-3.459-7.726-7.726s3.459-7.726 7.726-7.726h4.121c4.268 0 7.726 3.459 7.726 7.726 0 4.266-3.459 7.726-7.726 7.726z" fill="#727272"/><path d="m105.594 183.887h-4.121c-4.268 0-7.726-3.459-7.726-7.726s3.459-7.726 7.726-7.726h4.121c4.268 0 7.726 3.459 7.726 7.726s-3.459 7.726-7.726 7.726z" fill="#727272"/><path d="m140.62 214.793h-4.121c-4.268 0-7.726-3.459-7.726-7.726s3.459-7.726 7.726-7.726h4.121c4.268 0 7.726 3.459 7.726 7.726 0 4.266-3.459 7.726-7.726 7.726z" fill="#727272"/><path d="m140.62 183.887h-4.121c-4.268 0-7.726-3.459-7.726-7.726s3.459-7.726 7.726-7.726h4.121c4.268 0 7.726 3.459 7.726 7.726s-3.459 7.726-7.726 7.726z" fill="#727272"/><path d="m365.817 139.323c19.268 10.467 32.348 30.881 32.348 54.351v13.392h-123.622v-13.392c0-22.693 12.229-42.529 30.456-53.279 0 0 21.912-10.592 31.355-10.42 9.443.171 29.463 9.348 29.463 9.348z" fill="#83c8db"/><path d="m398.165 193.674v13.392h-30.905v-13.392c0-14.33-4.873-27.516-13.063-37.993 6.5-3.08 12.074-7.788 16.205-13.598 16.73 11.053 27.763 30.04 27.763 51.591z" fill="#56a9b7"/><path d="m336.354 159.678c-23.043 0-41.722-18.68-41.722-41.722v-39.662h83.445v39.662c-.001 23.042-18.68 41.722-41.723 41.722z" fill="#fff"/><path d="m378.076 78.294v39.662c0 8.983-2.843 17.307-7.675 24.127-4.131 5.81-9.704 10.518-16.205 13.598-5.408 2.565-11.466 3.997-17.843 3.997-5.46 0-10.673-1.051-15.453-2.957 7.531-2.998 13.969-8.128 18.595-14.639 2.287-3.224 4.121-6.779 5.419-10.58 1.463-4.244 2.256-8.808 2.256-13.547v-39.661z" fill="#e0e0e0"/></svg>