<svg id="Capa_1" enable-background="new 0 0 512 512" height="512" viewBox="0 0 512 512" width="512" xmlns="http://www.w3.org/2000/svg"><g><path d="m343.3 345.496h-184.913c-4.132 0-7.481 3.35-7.481 7.481 0 4.132 3.35 7.481 7.481 7.481h184.913c4.132 0 7.481-3.35 7.481-7.481 0-4.132-3.349-7.481-7.481-7.481z"/><path d="m501.865 374.691v-6.571c0-14.239-11.584-25.823-25.823-25.823h-1.788v-41.246c0-9.625-7.831-17.456-17.456-17.456h-45.969v-18.33c6.943-6.757 22.891-23.872 22.891-38.508 0-10.694-8.7-19.394-19.393-19.394-1.189 0-2.357.12-3.498.328v-22.5c7.403 6.302 16.985 10.117 27.447 10.117 16.348 0 30.892-9.145 38.01-23.583 19.86-1.577 35.541-18.23 35.541-38.488 0-21.296-17.326-38.622-38.622-38.622s-38.622 17.326-38.622 38.622c0 16.696 10.65 30.948 25.512 36.328-5.095 6.708-13.051 10.781-21.818 10.781-15.135 0-27.447-12.312-27.447-27.447v-30.861c14.479-2.837 26.311-13.765 29.992-28.509 1-4.009-1.438-8.07-5.446-9.071-4.011-1-8.071 1.437-9.071 5.446-2.632 10.541-12.071 17.903-22.956 17.903-13.046 0-23.66-10.614-23.66-23.66s10.614-23.66 23.66-23.66c5.431 0 10.537 1.788 14.766 5.172 3.227 2.581 7.934 2.058 10.516-1.168 2.581-3.226 2.058-7.934-1.168-10.516-6.812-5.45-15.376-8.451-24.114-8.451-21.296 0-38.622 17.326-38.622 38.622 0 18.737 13.413 34.394 31.141 37.889v30.863c0 15.135-12.312 27.447-27.447 27.447-8.768 0-16.723-4.073-21.819-10.781 14.862-5.38 25.513-19.632 25.513-36.328 0-21.296-17.326-38.622-38.622-38.622s-38.622 17.326-38.622 38.622c0 20.258 15.681 36.911 35.541 38.488 7.118 14.439 21.661 23.583 38.01 23.583 10.462 0 20.044-3.815 27.447-10.117v22.5c-1.141-.208-2.308-.328-3.498-.328-10.694 0-19.393 8.7-19.393 19.394 0 14.636 15.948 31.751 22.891 38.508v18.33h-129.21c-3.958-12.694-11.678-24.106-22.109-32.521-11.945-9.638-26.992-14.945-42.368-14.945-4.446 0-8.89.44-13.242 1.31-8.5-28.465-34.767-48.147-64.679-48.147-10.552 0-20.661 2.369-30.046 7.042-3.699 1.842-5.204 6.333-3.363 10.032 1.842 3.699 6.333 5.205 10.032 3.363 7.295-3.632 15.16-5.474 23.377-5.474 23.894 0 44.799 16.13 50.835 39.225 1.734 6.64 8.318 10.604 14.984 9.023 3.954-.937 8.026-1.412 12.103-1.412 21.723 0 40.648 13.005 48.612 32.503h-121.061c-9.625 0-17.456 7.831-17.456 17.456v41.246h-2.009c-14.239 0-25.823 11.584-25.823 25.823v6.677c-5.855 2.821-9.916 8.797-9.916 15.719v23.245c0 9.625 7.831 17.456 17.456 17.456h18.542v13.893h-83.097c-6.875 0-12.469-5.593-12.469-12.469v-121.043c0-26.691 19.959-49.133 46.427-52.203 5.59-.648 10.085-4.992 10.933-10.563 1.008-6.622 3.246-12.908 6.652-18.682 2.099-3.558.916-8.145-2.643-10.244s-8.146-.915-10.244 2.643c-4.069 6.899-6.843 14.366-8.256 22.222-33.098 4.749-57.831 33.157-57.831 66.827v121.046c0 15.126 12.306 27.431 27.431 27.431h83.185c.525 3.619 3.631 6.401 7.395 6.401s6.87-2.783 7.395-6.401h77.8c20.701 0 39.859-9.391 52.563-25.763.628-.81 1.482-1.889 2.36-3.092h202.911v27.775c0 4.132 3.35 7.481 7.481 7.481 4.132 0 7.481-3.35 7.481-7.481v-27.775h18.542c9.625 0 17.456-7.831 17.456-17.456v-23.245c0-7.009-4.162-13.05-10.135-15.826zm-52.321-241.454c0-13.046 10.614-23.66 23.66-23.66s23.66 10.614 23.66 23.66-10.614 23.66-23.66 23.66c-13.047 0-23.66-10.614-23.66-23.66zm-139.713 0c0-13.046 10.614-23.66 23.66-23.66s23.66 10.614 23.66 23.66-10.614 23.66-23.66 23.66c-13.047 0-23.66-10.614-23.66-23.66zm78.106 93.52c0-2.444 1.988-4.431 4.431-4.431 1.787 0 3.391 1.064 4.086 2.711 1.17 2.771 3.885 4.572 6.892 4.572 3.008 0 5.723-1.801 6.892-4.572.695-1.647 2.299-2.711 4.086-2.711 2.443 0 4.431 1.988 4.431 4.431 0 6.186-7.894 16.833-15.41 24.777-7.515-7.946-15.408-18.592-15.408-24.777zm88.105 130.503c5.988 0 10.86 4.872 10.86 10.86v4.94h-12.649v-15.8zm-348.801-27.943h332.05v16.178h-78.838c-4.132 0-7.481 3.35-7.481 7.481 0 4.132 3.35 7.481 7.481 7.481h78.838v12.602h-332.05v-43.742zm2.493-30.76h327.063c1.375 0 2.494 1.119 2.494 2.494v13.304h-332.05v-13.304c0-1.375 1.118-2.494 2.493-2.494zm-19.465 58.703h2.009v15.8h-12.869v-4.94c0-5.989 4.872-10.86 10.86-10.86zm92.936 87.851h-77.713v-13.893h112.905c-9.482 8.902-21.924 13.893-35.192 13.893zm293.832-31.349c0 1.375-1.119 2.494-2.494 2.494h-402.556c-1.375 0-2.494-1.119-2.494-2.494v-23.245c0-1.375 1.119-2.494 2.494-2.494h402.556c1.375 0 2.494 1.119 2.494 2.494z"/></g></svg>