<svg id="Capa_1" enable-background="new 0 0 512 512" height="512" viewBox="0 0 512 512" width="512" xmlns="http://www.w3.org/2000/svg"><g><g><path d="m379.543 329.1-66.248-20.627-17.016-20.886h-80.558l-17.016 20.886-66.248 20.627c-12.664 17.064-20.158 38.194-20.158 61.076v101.402c0 11.279 9.143 20.423 20.422 20.423h246.558c11.279 0 20.422-9.144 20.422-20.423v-101.402c0-22.882-7.494-44.012-20.158-61.076z" fill="#698ed5"/></g><g><path d="m399.593 385.57c-.842-20.276-7.932-40.201-20.05-56.47 0 0 0 0 0-.001l-41.536-12.933c19.444 18.669 31.55 44.924 31.55 74.008v101.402c0 11.279-9.143 20.422-20.422 20.422h30.144c4.935 0 9.46-1.75 12.99-4.664.504-.416.988-.856 1.45-1.318 3.696-3.696 5.982-8.801 5.982-14.441v-101.399c0-1.545-.046-3.072-.108-4.606z" fill="#4073c8"/></g><path d="m297.113 287.587h-.834v41.513h83.264c-18.694-25.187-48.654-41.513-82.43-41.513z" fill="#f6e266"/><path d="m349.399 329.1h30.144c-4.499-5.58-23.198-39.664-83.264-41.513v4.256c21.51 6.403 40.064 19.665 53.12 37.257z" fill="#ffd064"/><path d="m215.721 329.1v-41.513h-.834c-33.776 0-63.737 16.325-82.43 41.513z" fill="#f6e266"/><path d="m215.767 512h80.466l-40.233-190.609z" fill="#544f57"/><path d="m256 321.391-8.705 41.242 31.528 149.367h17.41z" fill="#454045"/><path d="m290.855 370.875-28.806 28.806c-3.341 3.341-8.757 3.341-12.098 0l-28.806-28.806 34.855-34.855z" fill="#afaab4"/><path d="m256 359.382 51.141-126.682h-102.282z" fill="#544f57"/><path d="m256 359.382-34.094-84.455-22.49 18.43c-6.742 5.525-9.028 14.838-5.609 22.856l26.332 61.762c1.161 2.722 4.54 3.675 6.952 1.96z" fill="#f6f1f1"/><path d="m256 359.382 34.094-84.455 22.49 18.43c6.742 5.525 9.028 14.838 5.609 22.856l-26.332 61.762c-1.161 2.722-4.54 3.675-6.952 1.96z" fill="#f6f1f1"/><path d="m256 303.357c-50.876 0-92.119-41.243-92.119-92.119v-73.555h184.238v73.555c0 50.876-41.243 92.119-92.119 92.119z" fill="#f1d0a5"/><path d="m326.583 137.683c-54.234 0-108.468 0-162.702 0v25.829c46.429 21.658 92.858 26.93 139.287 15.837 11.931-2.851 23.415 6.085 23.415 18.352v13.536c0 47.233-35.55 86.156-81.351 91.489 3.533.411 7.125.63 10.768.63 50.876 0 92.119-41.243 92.119-92.119v-73.554z" fill="#f1b986"/><g fill="#e2a770"><path d="m163.881 215.363h-7.638c-11.568 0-20.946-9.378-20.946-20.946v-4.345c0-11.568 9.378-20.946 20.946-20.946h7.638z"/><path d="m348.119 215.363h7.638c11.568 0 20.946-9.378 20.946-20.946v-4.345c0-11.568-9.378-20.946-20.946-20.946h-7.638z"/></g><g><path d="m297.922 216.96c-4.273 0-7.735-3.463-7.735-7.735v-9.354c0-4.273 3.463-7.735 7.735-7.735s7.735 3.463 7.735 7.735v9.354c0 4.273-3.463 7.735-7.735 7.735z" fill="#454045"/></g><g><path d="m214.078 216.96c-4.273 0-7.735-3.463-7.735-7.735v-9.354c0-4.273 3.463-7.735 7.735-7.735s7.735 3.463 7.735 7.735v9.354c.001 4.273-3.462 7.735-7.735 7.735z" fill="#454045"/></g><g><path d="m256 260.747c-7.431 0-14.862-2.741-22.087-8.224-3.403-2.583-4.068-7.435-1.486-10.838 2.583-3.402 7.436-4.067 10.838-1.486 8.807 6.684 16.661 6.684 25.468 0 3.403-2.583 8.256-1.918 10.838 1.486 2.582 3.403 1.918 8.255-1.486 10.838-7.223 5.484-14.654 8.224-22.085 8.224z" fill="#da4a54"/></g><path d="m352.871 146.396c-64.581 31.679-129.162 31.679-193.742 0-2.908-1.426-4.76-4.381-4.76-7.62v-17.55h203.262v17.55c0 3.24-1.852 6.194-4.76 7.62z" fill="#544f57"/><path d="m342.349 121.227v17.55c0 3.239-1.852 6.193-4.76 7.62-29.744 14.59-59.487 22.443-89.231 23.594 34.837 1.348 69.675-6.505 104.512-23.594 2.908-1.427 4.76-4.381 4.76-7.62v-17.55z" fill="#454045"/><path d="m360.897 43.307c-35.725 5.268-71.51-9.167-93.582-37.748-5.723-7.411-16.907-7.411-22.63 0-22.071 28.581-57.857 43.016-93.582 37.748l-9.005-1.328c-7.742-1.142-13.2 7.328-9.014 13.941 8.955 14.147 13.833 30.668 13.833 47.715v17.592h109.083v-.001.001h109.084v-17.592c0-17.047 4.878-33.568 13.833-47.715 4.186-6.613-1.272-15.083-9.014-13.941z" fill="#698ed5"/><g fill="#4073c8"><path d="m154.282 43.721c-1.06-.122-2.12-.258-3.179-.414l-9.005-1.328c-2.841-.419-5.369.464-7.231 2.067 6.526.53 13.025.407 19.415-.325z"/><path d="m334.983 43.721c-26.428-3.026-50.972-16.542-67.668-38.162-5.723-7.411-16.907-7.411-22.63 0-.017.022-.035.043-.052.065 21.42 27.69 55.72 42.076 90.35 38.097z"/><path d="m369.902 41.979-9.005 1.328c-2.167.32-4.334.564-6.499.739 3.212 2.765 4.433 7.688 1.783 11.874-8.955 14.147-13.833 30.668-13.833 47.715v17.592h22.735v-17.592c0-17.047 4.878-33.568 13.833-47.715 4.186-6.613-1.271-15.083-9.014-13.941z"/><path d="m233.265 121.227v-.001z"/></g><g><path d="m372.967 128.962h-233.933c-4.273 0-7.735-3.463-7.735-7.735s3.463-7.735 7.735-7.735h233.933c4.273 0 7.735 3.463 7.735 7.735s-3.463 7.735-7.735 7.735z" fill="#eadfda"/></g><path d="m254.019 92.764c1.182.858 2.782.858 3.963 0l8.161-5.93c8.545-6.209 12.121-17.214 8.857-27.26l-3.655-11.249c-.131-.402-.505-.674-.928-.674h-28.834c-.423 0-.797.272-.928.674l-3.655 11.25c-3.264 10.046.312 21.051 8.857 27.26z" fill="#f6e266"/><path d="m266.143 86.834c8.545-6.209 12.121-17.214 8.857-27.26l-3.655-11.249c-.131-.402-.505-.674-.928-.674h-13.369l3.204 9.861c3.264 10.046-.312 21.051-8.857 27.26l-4.188 3.043 6.812 4.949c1.182.858 2.782.858 3.963 0z" fill="#ffd064"/><path d="m347.044 377.057 5.418 10.978c.417.845 1.223 1.431 2.156 1.566l12.115 1.76c2.349.341 3.286 3.227 1.587 4.884l-8.766 8.545c-.675.658-.983 1.606-.823 2.534l2.069 12.066c.401 2.339-2.054 4.123-4.154 3.018l-10.836-5.697c-.834-.439-1.831-.439-2.665 0l-10.836 5.697c-2.101 1.104-4.556-.679-4.154-3.018l2.069-12.066c.159-.929-.149-1.877-.823-2.534l-8.766-8.545c-1.699-1.657-.762-4.543 1.587-4.884l12.115-1.76c.933-.136 1.739-.721 2.156-1.566l5.418-10.978c1.048-2.128 4.082-2.128 5.133 0z" fill="#f6e266"/><path d="m198.767 426.077h-54.227c-3.086 0-5.587-2.501-5.587-5.587v-14.212c0-3.086 2.501-5.587 5.587-5.587h54.228c3.086 0 5.587 2.501 5.587 5.587v14.212c-.001 3.085-2.502 5.587-5.588 5.587z" fill="#f6f1f1"/></g></svg>