<svg id="Layer_1" enable-background="new 0 0 512 512" height="512" viewBox="0 0 512 512" width="512" xmlns="http://www.w3.org/2000/svg"><g><path d="m0 254.455h512v154.527h-512z" fill="#2accf4"/><path d="m481.095 254.455h30.905v154.527h-30.905z" fill="#22b3eb"/><path d="m512 254.455h-512v-26.905c0-2.209 1.791-4 4-4h504c2.209 0 4 1.791 4 4z" fill="#8aeeff"/><path d="m481.095 223.549v30.905h30.905v-26.905c0-2.209-1.791-4-4-4z" fill="#63e5ff"/><path d="m114.865 404.346h-30.905v-265.787c0-8.534 6.918-15.453 15.453-15.453 8.534 0 15.453 6.918 15.453 15.453v265.787z" fill="#f1f1f1"/><path d="m234.366 404.346h-30.905v-265.787c0-8.534 6.918-15.453 15.453-15.453 8.534 0 15.453 6.918 15.453 15.453v265.787z" fill="#f1f1f1"/><path d="m512 348.201c-21.337 0-21.337 17.865-42.673 17.865s-21.337-17.865-42.673-17.865c-21.334 0-21.334 17.865-42.667 17.865-21.334 0-21.334-17.865-42.669-17.865-21.333 0-21.333 17.865-42.667 17.865-21.333 0-21.333-17.865-42.666-17.865-21.33 0-21.33 17.865-42.661 17.865-21.333 0-21.333-17.865-42.665-17.865-21.333 0-21.333 17.865-42.667 17.865-21.333 0-21.333-17.865-42.666-17.865-21.332 0-21.332 17.865-42.664 17.865-21.331 0-21.331-17.865-42.663-17.865v106.109c.001 31.861 25.83 57.69 57.691 57.69h396.62c31.861 0 57.69-25.829 57.69-57.69z" fill="#b9f5ff"/><g fill="#8aeeff"><path d="m267.746 366.066c6.906 0 11.571-1.876 15.453-4.408-8.111-5.29-12.786-13.457-27.213-13.457-6.905 0-11.57 1.876-15.452 4.409 8.11 5.29 12.785 13.456 27.212 13.456z"/><path d="m353.081 366.066c6.905 0 11.57-1.876 15.452-4.408-8.111-5.29-12.787-13.457-27.216-13.457-6.905 0-11.57 1.876-15.452 4.408 8.112 5.29 12.788 13.457 27.216 13.457z"/><path d="m182.42 366.066c6.905 0 11.57-1.876 15.452-4.409-8.11-5.29-12.785-13.456-27.212-13.456-6.906 0-11.571 1.876-15.453 4.408 8.11 5.29 12.785 13.457 27.213 13.457z"/><path d="m438.422 366.066c6.905 0 11.571-1.875 15.453-4.406-8.114-5.29-12.789-13.458-27.22-13.458-6.905 0-11.57 1.876-15.452 4.407 8.112 5.289 12.788 13.457 27.219 13.457z"/><path d="m481.095 363.696v90.613c0 31.861-25.829 57.69-57.69 57.69h30.905c31.861 0 57.69-25.829 57.69-57.69v-106.108c-16.471 0-20.234 10.64-30.905 15.495z"/><path d="m11.758 366.066c6.906 0 11.571-1.876 15.453-4.409-8.109-5.29-12.784-13.456-27.21-13.456v15.499c3.149 1.432 6.896 2.366 11.757 2.366z"/><path d="m97.087 366.066c6.906 0 11.571-1.876 15.453-4.408-8.111-5.29-12.786-13.457-27.213-13.457-6.905 0-11.57 1.876-15.452 4.408 8.11 5.29 12.785 13.457 27.212 13.457z"/></g><g fill="#d0d0d0"><path d="m114.865 151.437h88.596v30.905h-88.596z"/><path d="m114.865 223.549h88.596v30.905h-88.596z"/><path d="m114.865 295.662h88.596v30.905h-88.596z"/></g><circle cx="402.286" cy="93.52" fill="#ffd54f" r="49.449"/><path d="m402.286 44.071c-5.398 0-10.589.877-15.453 2.476 19.739 6.491 33.996 25.061 33.996 46.972s-14.257 40.482-33.996 46.972c4.863 1.599 10.054 2.476 15.453 2.476 27.31 0 49.449-22.139 49.449-49.449-.001-27.308-22.14-49.447-49.449-49.447z" fill="#ffc128"/><g fill="#ffc128"><path d="m402.286 29.422c4.142 0 7.5-3.358 7.5-7.5v-14.422c0-4.142-3.358-7.5-7.5-7.5s-7.5 3.358-7.5 7.5v14.422c0 4.142 3.358 7.5 7.5 7.5z"/><path d="m402.801 156.587c-4.142 0-7.5 3.358-7.5 7.5v14.423c0 4.142 3.358 7.5 7.5 7.5s7.5-3.358 7.5-7.5v-14.423c0-4.142-3.358-7.5-7.5-7.5z"/><path d="m366.028 15.206c-2.071-3.587-6.659-4.817-10.245-2.745-3.587 2.071-4.816 6.658-2.745 10.245l7.211 12.49c1.389 2.406 3.91 3.751 6.502 3.751 1.272 0 2.562-.324 3.743-1.006 3.587-2.071 4.816-6.658 2.745-10.245z"/><path d="m444.768 150.557c-2.071-3.587-6.659-4.816-10.245-2.745-3.587 2.071-4.816 6.658-2.745 10.245l7.211 12.49c1.389 2.406 3.91 3.751 6.502 3.751 1.272 0 2.562-.324 3.743-1.006 3.587-2.071 4.816-6.658 2.745-10.245z"/><path d="m344.477 50.969-12.49-7.211c-3.588-2.072-8.175-.843-10.245 2.745-2.071 3.587-.842 8.174 2.745 10.245l12.49 7.211c1.181.682 2.471 1.006 3.743 1.006 2.592 0 5.113-1.345 6.502-3.751 2.071-3.587.842-8.174-2.745-10.245z"/><path d="m480.343 128.816-12.49-7.211c-3.588-2.072-8.174-.843-10.245 2.745-2.071 3.587-.842 8.174 2.745 10.245l12.49 7.211c1.181.682 2.471 1.006 3.743 1.006 2.592 0 5.113-1.345 6.502-3.751 2.071-3.586.842-8.173-2.745-10.245z"/><path d="m338.703 93.005c0-4.142-3.358-7.5-7.5-7.5h-14.422c-4.142 0-7.5 3.358-7.5 7.5s3.358 7.5 7.5 7.5h14.422c4.142 0 7.5-3.358 7.5-7.5z"/><path d="m487.791 84.99h-14.422c-4.142 0-7.5 3.358-7.5 7.5s3.358 7.5 7.5 7.5h14.422c4.142 0 7.5-3.358 7.5-7.5s-3.358-7.5-7.5-7.5z"/><path d="m336.977 122.051-12.49 7.211c-3.587 2.071-4.816 6.658-2.745 10.245 1.389 2.406 3.91 3.751 6.502 3.751 1.272 0 2.562-.324 3.743-1.006l12.49-7.211c3.587-2.071 4.816-6.658 2.745-10.245-2.071-3.588-6.659-4.817-10.245-2.745z"/><path d="m463.594 64.519c1.272 0 2.562-.324 3.743-1.006l12.49-7.211c3.587-2.071 4.816-6.658 2.745-10.245-2.071-3.588-6.659-4.817-10.245-2.745l-12.49 7.211c-3.587 2.071-4.816 6.658-2.745 10.245 1.389 2.406 3.91 3.751 6.502 3.751z"/><path d="m370.495 148.069c-3.587-2.072-8.174-.842-10.245 2.745l-7.211 12.49c-2.071 3.587-.842 8.174 2.745 10.245 1.181.682 2.471 1.006 3.743 1.006 2.592 0 5.113-1.345 6.502-3.751l7.211-12.49c2.071-3.586.842-8.173-2.745-10.245z"/><path d="m433.631 37.684c1.181.682 2.471 1.006 3.743 1.006 2.592 0 5.113-1.346 6.502-3.751l7.211-12.491c2.071-3.587.842-8.174-2.745-10.245-3.587-2.072-8.174-.842-10.245 2.745l-7.211 12.491c-2.072 3.587-.843 8.174 2.745 10.245z"/></g><g fill="#55e2ff"><path d="m115.896 400.967h-30.906c-4.142 0-7.5 3.358-7.5 7.5s3.358 7.5 7.5 7.5h30.906c4.142 0 7.5-3.358 7.5-7.5s-3.358-7.5-7.5-7.5z"/><path d="m427.01 446.295h-41.208c-4.142 0-7.5 3.358-7.5 7.5s3.358 7.5 7.5 7.5h41.208c4.142 0 7.5-3.358 7.5-7.5s-3.358-7.5-7.5-7.5z"/><path d="m338.415 416.419h-86.535c-4.142 0-7.5 3.358-7.5 7.5s3.358 7.5 7.5 7.5h86.535c4.142 0 7.5-3.358 7.5-7.5s-3.358-7.5-7.5-7.5z"/><path d="m198.31 439.083h-57.69c-4.142 0-7.5 3.358-7.5 7.5s3.358 7.5 7.5 7.5h57.69c4.142 0 7.5-3.358 7.5-7.5s-3.358-7.5-7.5-7.5z"/></g></g></svg>