<svg id="Flat" height="512" viewBox="0 0 512 512" width="512" xmlns="http://www.w3.org/2000/svg"><path d="m488 496v-208l-72-40h-320l-72 40v208z" fill="#686869"/><path d="m96 159.987h320v336.013h-320z" fill="#808080"/><path d="m176 288h160v208h-160z" fill="#b2b1b4"/><g fill="#e9ae48"><path d="m208 442.584-32 12.8-32-12.8v-10.584h-16v10.584l-32 12.8-32-12.8v-10.584h-16v64h16v-36.184l29.029 11.612a8 8 0 0 0 5.942 0l29.029-11.612v36.184h16v-36.184l29.029 11.612a8 8 0 0 0 5.942 0l29.029-11.612v36.184h16v-64h-16z"/><path d="m208 400h16v16h-16z"/><path d="m128 400h16v16h-16z"/><path d="m48 400h16v16h-16z"/><path d="m288 400h16v16h-16z"/><path d="m368 400h16v16h-16z"/><path d="m448 442.584-32 12.8-32-12.8v-10.584h-16v10.584l-32 12.8-32-12.8v-10.584h-16v64h16v-36.184l29.029 11.612a8 8 0 0 0 5.942 0l29.029-11.612v36.184h16v-36.184l29.029 11.612a8 8 0 0 0 5.942 0l29.029-11.612v36.184h16v-64h-16z"/><path d="m448 400h16v16h-16z"/></g><path d="m248 320h16v176h-16z" fill="#959494"/><path d="m160 256h192v64h-192z" fill="#e53d5d"/><path d="m248 280h16v16h-16z" fill="#f8bc1e"/><path d="m280 280h16v16h-16z" fill="#f8bc1e"/><path d="m312 280h16v16h-16z" fill="#f8bc1e"/><path d="m216 280h16v16h-16z" fill="#f8bc1e"/><path d="m184 280h16v16h-16z" fill="#f8bc1e"/><path d="m96 160h320v32h-320z" fill="#686869"/><path d="m80 144h352v32h-352z" fill="#e53d5d"/><path d="m352 256v-24l-32-8v-48l56-48v-24h-144v24l56 48v48l-32 8v24z" fill="#e53d5d"/><circle cx="328" cy="96" fill="#e53d5d" r="24"/><path d="m376 96h-16.016a32.011 32.011 0 0 0 -4.416-16.254l6.374-6.373a8 8 0 0 0 0-11.314 8 8 0 0 0 -11.314 0l-6.373 6.374a31.983 31.983 0 0 0 -48.239 27.567h-64.016a8 8 0 0 0 -8 8v24a8 8 0 0 0 2.794 6.074l53.206 45.606v38.074l-25.94 6.485a8 8 0 0 0 -6.06 7.761v16a8 8 0 0 0 8 8 8 8 0 0 0 8-8v-9.754l25.94-6.485a8 8 0 0 0 6.06-7.761v-48a8 8 0 0 0 -2.794-6.074l-53.206-45.606v-12.32h60.291a32.022 32.022 0 0 0 50.336 6.628 31.958 31.958 0 0 0 5.083-6.628h12.29v12.32l-53.206 45.606a8 8 0 0 0 -2.794 6.074v48a8 8 0 0 0 6.06 7.761l25.94 6.485v9.754a8 8 0 0 0 8 8 8 8 0 0 0 8-8v-16a8 8 0 0 0 -6.06-7.761l-25.94-6.485v-38.074l53.206-45.606a8 8 0 0 0 2.794-6.074v-24a8 8 0 0 0 -8-8zm-36.686 11.313a15.992 15.992 0 1 1 0-22.627 16.018 16.018 0 0 1 0 22.627z" fill="#57c3c1"/></svg>