<svg id="Outline" height="512" viewBox="0 0 512 512" width="512" xmlns="http://www.w3.org/2000/svg"><path d="m208 400h16v16h-16z"/><path d="m128 400h16v16h-16z"/><path d="m48 400h16v16h-16z"/><path d="m288 400h16v16h-16z"/><path d="m368 400h16v16h-16z"/><path d="m448 400h16v16h-16z"/><path d="m496 488v-200a8 8 0 0 0 -4.115-6.993l-67.885-37.714v-59.293h8a8 8 0 0 0 8-8v-32a8 8 0 0 0 -8-8h-40v16h32v16h-64v16h48v256h16v-178.4l56 31.111v195.289h-16v-56h-16v10.584l-32 12.8-32-12.8v-10.584h-16v10.584l-32 12.8-32-12.8v-10.584h-16v56h-24v-160h64v112h16v-112h8a8 8 0 0 0 8-8v-88a8 8 0 0 0 -6.06-7.761l-25.94-6.485v-38.074l53.206-45.606a8 8 0 0 0 2.794-6.074v-24a8 8 0 0 0 -8-8h-16.016a32.011 32.011 0 0 0 -4.416-16.254l12.032-12.03-11.316-11.316-12.03 12.031a31.983 31.983 0 0 0 -48.238 27.569h-64.016a8 8 0 0 0 -8 8v24a8 8 0 0 0 2.794 6.074l53.206 45.606v38.074l-25.94 6.485a8 8 0 0 0 -6.06 7.761v16h-88a8 8 0 0 0 -8 8v64a8 8 0 0 0 8 8h8v112h16v-112h64v160h-24v-56h-16v10.584l-32 12.8-32-12.8v-10.584h-16v10.584l-32 12.8-32-12.8v-10.584h-16v56h-16v-195.293l56-31.107v178.4h16v-256h144v-16h-160v-16h128v-16h-136a8 8 0 0 0 -8 8v32a8 8 0 0 0 8 8h8v59.293l-67.885 37.714a8 8 0 0 0 -4.115 6.993v200h-16v16h512v-16zm-179.314-403.313a16 16 0 1 1 0 22.627 15.948 15.948 0 0 1 0-22.627zm-52.686 153.559 25.94-6.485a8 8 0 0 0 6.06-7.761v-48a8 8 0 0 0 -2.794-6.074l-53.206-45.606v-12.32h60.291a32.022 32.022 0 0 0 50.336 6.628 31.958 31.958 0 0 0 5.083-6.628h12.29v12.32l-53.206 45.606a8 8 0 0 0 -2.794 6.074v48a8 8 0 0 0 6.06 7.761l25.94 6.485v9.754h-80zm-96 25.754h176v48h-176zm245.029 207.428a8 8 0 0 0 5.942 0l29.029-11.612v28.184h-64v-28.184zm-109.029-11.612 29.029 11.612a8 8 0 0 0 5.942 0l29.029-11.612v28.184h-64zm-130.971 11.612a8 8 0 0 0 5.942 0l29.029-11.612v28.184h-64v-28.184zm-109.029-11.612 29.029 11.612a8 8 0 0 0 5.942 0l29.029-11.612v28.184h-64z"/><path d="m248 280h16v16h-16z"/><path d="m280 280h16v16h-16z"/><path d="m312 280h16v16h-16z"/><path d="m216 280h16v16h-16z"/><path d="m184 280h16v16h-16z"/></svg>