<svg id="Capa_1" enable-background="new 0 0 512 512" height="512" viewBox="0 0 512 512" width="512" xmlns="http://www.w3.org/2000/svg"><g><path d="m458.51 212.229c0-12.45-6.795-23.856-17.733-29.768-9.66-5.222-21.301-5.419-31.14-.525l-76.849 38.279c-12.231 6.09-23.641 13.774-33.908 22.839-10.238 9.028-19.28 19.395-26.875 30.812-6.763 10.171-12.121 21.074-16.005 32.46-3.884-11.386-9.242-22.289-16.005-32.46-7.594-11.417-16.636-21.783-26.871-30.809-10.271-9.067-21.68-16.752-33.91-22.841l-76.854-38.283c-7.532-3.745-16.118-4.496-24.07-2.301v-95.493c.103-21.798-18.467-39.602-40.044-39.128-21.089.463-38.246 18.299-38.246 39.758v140.26c0 26.03 9.012 51.517 25.377 71.766l42.917 53.095c2.618 3.238 7.347 3.707 10.548 1.118 3.221-2.604 3.722-7.326 1.118-10.548l-42.917-53.094c-14.215-17.59-22.043-39.727-22.043-62.338v-140.259c0-13.369 10.576-24.476 23.577-24.762 13.291-.293 24.79 10.731 24.713 24.132v104.226c-13.646 13.482-12.861 36.956 2.047 49.525l77.03 65.83c3.149 2.692 7.883 2.32 10.574-.828 2.691-3.149 2.32-7.884-.829-10.574l-77.032-65.834c-8.885-7.471-8.595-21.74.381-28.917 5.705-4.562 13.662-5.48 20.216-2.206l76.851 38.281c11.061 5.507 21.379 12.457 30.672 20.661 9.258 8.164 17.436 17.54 24.305 27.868 13.735 20.655 20.995 44.687 20.995 69.497v152.83c0 4.143 3.358 7.5 7.5 7.5s7.5-3.357 7.5-7.5v-152.83c0-24.811 7.26-48.842 20.995-69.497 6.87-10.328 15.048-19.704 24.309-27.871 9.29-8.201 19.608-15.151 30.67-20.659l76.846-38.277c5.473-2.722 11.949-2.613 17.324.293 6.178 3.338 9.866 9.533 9.866 16.571 0 5.565-2.34 10.629-6.592 14.259l-77.03 65.83c-3.149 2.69-3.52 7.425-.829 10.574 2.69 3.147 7.425 3.519 10.574.828l77.027-65.827c7.53-6.428 11.85-15.783 11.85-25.663zm15.243-167.22c-21.992-.492-40.044 17.135-40.043 39.13v69.057c0 4.143 3.358 7.5 7.5 7.5s7.5-3.357 7.5-7.5v-69.057c-.07-13.4 11.337-24.433 24.708-24.134 13.003.291 23.582 11.401 23.582 24.766v140.259c0 22.613-7.829 44.751-22.044 62.337l-89.853 111.157c-9.462 11.705-14.673 26.441-14.673 41.493v64.481c0 4.143 3.358 7.5 7.5 7.5s7.5-3.357 7.5-7.5v-64.481c0-11.632 4.026-23.019 11.338-32.063l89.853-111.157c16.366-20.245 25.379-45.733 25.379-71.767v-140.259c0-21.454-17.157-39.291-38.247-39.762zm-307.753 128.78c8.517 0 16.893-1.622 24.703-4.747 5.884 30.689 32.918 53.957 65.297 53.957s59.413-23.267 65.297-53.957c7.81 3.124 16.186 4.747 24.703 4.747 36.668 0 66.5-29.832 66.5-66.5 0-11.781-7.157-40.665-55.096-101.748-2.771-3.521-6.927-5.54-11.404-5.54s-8.633 2.02-11.409 5.547c-11.358 14.47-36.012 47.371-48.059 74.852-5.514-7.842-11.845-16.368-19.121-25.642-2.769-3.529-6.927-5.553-11.411-5.553s-8.642 2.023-11.41 5.552c-7.276 9.274-13.607 17.801-19.121 25.643-12.047-27.481-36.702-60.383-48.065-74.859-2.771-3.521-6.927-5.54-11.404-5.54s-8.633 2.02-11.41 5.547c-47.933 61.076-55.09 89.96-55.09 101.741 0 36.668 29.832 66.5 66.5 66.5zm180-158.482c24.972 31.891 51.5 72.646 51.5 91.982 0 28.397-23.103 51.5-51.5 51.5-8.291 0-16.402-1.986-23.687-5.765-.986-9.766-6.327-27.482-25.55-57.433 3.341-10.109 14.377-35.789 49.237-80.284zm-90 49.209c24.973 31.901 51.5 72.662 51.5 91.983 0 28.397-23.103 51.5-51.5 51.5s-51.5-23.103-51.5-51.5c0-19.321 26.527-60.081 51.5-91.983zm-90-49.209c34.859 44.496 45.895 70.176 49.236 80.284-19.223 29.951-24.564 47.668-25.55 57.433-7.284 3.779-15.396 5.765-23.687 5.765-28.397 0-51.5-23.103-51.5-51.5.001-19.337 26.534-60.099 51.501-91.982zm-63.973 352.454c-2.605-3.221-7.327-3.723-10.548-1.118s-3.722 7.326-1.118 10.548l24.867 30.765c7.313 9.042 11.341 20.429 11.341 32.063v64.48c0 4.143 3.358 7.5 7.5 7.5s7.5-3.357 7.5-7.5v-64.48c0-15.057-5.213-29.794-14.677-41.495z"/></g></svg>