<?xml version="1.0"?>
<svg xmlns="http://www.w3.org/2000/svg" id="Capa_1" enable-background="new 0 0 512 512" height="512px" viewBox="0 0 512 512" width="512px" class=""><g><g><path d="m224.539 101.278c0 33.069-26.808 59.877-59.877 59.877s-59.877-26.808-59.877-59.877c0-26.829 39.412-79.597 54.286-98.556 2.847-3.629 8.335-3.629 11.183 0 14.873 18.959 54.285 71.727 54.285 98.556z" fill="#ecf5ff" data-original="#ECF5FF" class="" data-old_color="#ecf5ff" style="fill:#8BBDF6"/><path d="m170.253 2.722c-2.847-3.629-8.335-3.629-11.183 0-2.582 3.291-5.905 7.603-9.632 12.62 17.74 23.88 44.654 63.764 44.654 85.936 0 27.808-18.959 51.183-44.654 57.919 4.861 1.274 9.962 1.958 15.223 1.958 33.069 0 59.877-26.808 59.877-59.877.001-26.829-39.411-79.597-54.285-98.556z" fill="#dceafc" data-original="#DCEAFC" class="active-path" data-old_color="#dceafc" style="fill:#3E91FA"/><path d="m407.215 101.278c0 33.069-26.808 59.877-59.877 59.877s-59.877-26.808-59.877-59.877c0-26.829 39.412-79.597 54.286-98.556 2.847-3.629 8.336-3.629 11.183 0 14.873 18.959 54.285 71.727 54.285 98.556z" fill="#ecf5ff" data-original="#ECF5FF" class="" data-old_color="#ecf5ff" style="fill:#8BBDF6"/><path d="m352.929 2.722c-2.847-3.629-8.336-3.629-11.183 0-2.582 3.291-5.905 7.603-9.632 12.62 17.74 23.88 44.654 63.764 44.654 85.936 0 27.808-18.959 51.183-44.654 57.919 4.861 1.274 9.962 1.958 15.223 1.958 33.069 0 59.877-26.808 59.877-59.877.001-26.829-39.411-79.597-54.285-98.556z" fill="#dceafc" data-original="#DCEAFC" class="active-path" data-old_color="#dceafc" style="fill:#3E91FA"/><g><g><path d="m443.963 186.938v-109.159c0-8.87 3.593-16.887 9.408-22.703 5.976-5.976 14.288-9.604 23.449-9.4 17.551.393 31.374 15.188 31.374 32.744v142.344c0 24.768-8.494 48.787-24.064 68.049l-91.188 112.809c-8.54 10.565-13.199 23.74-13.199 37.325v62.903c0 5.605-4.544 10.149-10.149 10.149h-84.026l58.509-204.738z" fill="#f1d0a4" data-original="#F1D0A4" class=""/><path d="m266.149 512c-5.605 0-10.149-4.544-10.149-10.149v-152.565c0-26.6 7.855-52.6 22.581-74.745 7.358-11.062 16.096-21.069 25.97-29.776 9.875-8.718 20.886-16.157 32.77-22.073l77.992-38.849c7.774-3.867 16.948-3.714 24.59.416 9.185 4.963 14.005 14.198 14.005 23.514 0 7.408-3.045 14.868-9.357 20.257l-71.156 60.81c-4.464 3.815-7.079 9.36-7.184 15.231l-3.696 207.929z" fill="#f1d0a4" data-original="#F1D0A4" class=""/><g fill="#edbb87"><path d="m373.396 288.84 71.156-60.81c6.312-5.389 9.357-12.848 9.357-20.257 0-9.316-4.821-18.552-14.005-23.514-7.642-4.131-16.816-4.283-24.59-.416l-3.603 1.795c7.71 5.179 11.752 13.618 11.752 22.136 0 7.409-3.045 14.868-9.357 20.257l-47.095 40.247c-4.601 3.932-4.623 11.037-.046 14.997z" data-original="#EDBB87" class="" style="fill:#DE9C57" data-old_color="#EDBB87"/><path d="m477.295 45.691c-5.997-.22-11.639 1.207-16.521 3.86 10.146 5.571 16.974 16.535 16.974 28.87v142.344c0 24.768-8.494 48.787-24.064 68.049l-91.188 112.81c-8.54 10.565-13.199 23.74-13.199 37.325v73.051h20.297c5.605 0 10.149-4.544 10.149-10.149v-62.903c0-13.585 4.659-26.76 13.199-37.325l91.189-112.81c15.57-19.262 24.064-43.281 24.064-68.049v-142.336c-.001-17.374-13.537-32.098-30.9-32.737z" data-original="#EDBB87" class="" style="fill:#DE9C57" data-old_color="#EDBB87"/></g></g><g><path d="m68.037 186.938v-109.159c0-8.87-3.593-16.887-9.408-22.703-5.978-5.978-14.289-9.601-23.453-9.398-17.548.387-31.37 15.183-31.37 32.741v142.345c0 24.773 8.494 48.785 24.062 68.047l91.186 112.813c8.545 10.565 13.203 23.738 13.203 37.327v62.901c0 5.605 4.544 10.149 10.149 10.149h96.451l-50.081-182.207z" fill="#f1d0a4" data-original="#F1D0A4" class=""/><path d="m170.265 307.891-102.228-120.953v-109.159c0-8.87-3.593-16.887-9.408-22.703-5.978-5.978-14.289-9.601-23.454-9.398-5.219.115-10.104 1.512-14.399 3.871 2.731 1.483 5.226 3.346 7.407 5.527 5.815 5.815 9.408 13.833 9.408 22.703v104.749c0 2.934-.273 5.861-.814 8.744-3.731 19.859 3.575 40.182 19.097 53.12l78.769 65.655c6.848 5.708 16.386 6.925 24.448 3.119z" fill="#edbb87" data-original="#EDBB87" class="" style="fill:#DE9C57" data-old_color="#edbb87"/><path d="m145.722 304.71c-.063-6.272-2.836-12.21-7.604-16.284l-70.67-60.396c-6.313-5.389-9.357-12.848-9.357-20.257 0-7.835 3.41-15.609 9.946-20.835 1.238-.984 2.598-1.888 4.06-2.679 7.642-4.131 16.816-4.283 24.59-.416l77.992 38.849c11.884 5.917 22.895 13.356 32.77 22.073 9.875 8.708 18.613 18.714 25.97 29.776 14.726 22.145 22.581 48.146 22.581 74.745v152.565c0 5.605-4.544 10.149-10.149 10.149h-98.041z" fill="#f1d0a4" data-original="#F1D0A4" class=""/><path d="m233.419 274.542c-7.358-11.062-16.096-21.069-25.97-29.776-9.875-8.718-20.886-16.157-32.77-22.073l-77.992-38.849c-7.774-3.867-16.948-3.714-24.59.416-.786.426-1.537.889-2.261 1.374l74.398 37.058c11.884 5.917 22.895 13.356 32.77 22.073 9.875 8.708 18.613 18.714 25.97 29.776 14.726 22.144 22.581 48.145 22.581 74.745v162.714h20.297c5.605 0 10.149-4.544 10.149-10.149v-152.565c-.001-26.599-7.856-52.6-22.582-74.744z" fill="#edbb87" data-original="#EDBB87" class="" style="fill:#DE9C57" data-old_color="#edbb87"/></g></g><path d="m315.877 151.215c0 33.069-26.808 59.877-59.877 59.877s-59.877-26.808-59.877-59.877c0-26.829 39.412-79.597 54.286-98.556 2.847-3.629 8.335-3.629 11.183 0 14.873 18.959 54.285 71.727 54.285 98.556z" fill="#ecf5ff" data-original="#ECF5FF" class="" data-old_color="#ecf5ff" style="fill:#8BBDF6"/><path d="m261.591 52.659c-2.847-3.629-8.336-3.629-11.183 0-2.582 3.291-5.905 7.603-9.632 12.62 17.74 23.88 44.654 63.764 44.654 85.936 0 27.808-18.959 51.183-44.654 57.919 4.861 1.274 9.962 1.959 15.223 1.959 33.069 0 59.877-26.808 59.877-59.877.001-26.83-39.411-79.598-54.285-98.557z" fill="#dceafc" data-original="#DCEAFC" class="active-path" data-old_color="#dceafc" style="fill:#3E91FA"/></g></g> </svg>
