<?xml version="1.0" encoding="iso-8859-1"?>
<!-- Generator: Adobe Illustrator 19.0.0, SVG Export Plug-In . SVG Version: 6.00 Build 0)  -->
<svg version="1.1" id="Capa_1" xmlns="http://www.w3.org/2000/svg" xmlns:xlink="http://www.w3.org/1999/xlink" x="0px" y="0px"
	 viewBox="0 0 512.001 512.001" style="enable-background:new 0 0 512.001 512.001;" xml:space="preserve">
<path style="fill:#FF6D3A;" d="M100.929,155.253l50.393,199.037l302.981,0.53c6.181,0.011,11.582-4.171,13.12-10.157l44.144-171.829
	c2.195-8.545-4.249-16.87-13.072-16.886L100.929,155.253z"/>
<path style="fill:#ED5729;" d="M498.496,155.948l-43.346-0.076c6.941,2.182,12.023,9.742,10.169,16.961l-38.271,148.966
	c-2.526,9.833-11.399,16.702-21.551,16.684l-254.173-0.444L105.047,155.26l-4.116-0.007l50.393,199.037l302.981,0.53
	c6.181,0.011,11.582-4.171,13.12-10.157l44.145-171.829C513.763,164.288,507.318,155.964,498.496,155.948z"/>
<g>
	<path style="fill:#FFB125;" d="M202.73,325.633c-3.352,0-6.405-2.263-7.265-5.661l-32.03-126.508
		c-1.017-4.016,1.414-8.095,5.43-9.111c4.019-1.018,8.095,1.415,9.111,5.43l32.03,126.508c1.017,4.016-1.414,8.095-5.43,9.111
		C203.958,325.558,203.339,325.633,202.73,325.633z"/>
	<path style="fill:#FFB125;" d="M271.667,325.753c-3.86,0-7.14-2.962-7.466-6.878l-10.529-126.471
		c-0.344-4.127,2.724-7.752,6.852-8.096c4.13-0.342,7.753,2.723,8.097,6.852l10.529,126.471c0.343,4.127-2.725,7.752-6.853,8.096
		C272.086,325.744,271.876,325.753,271.667,325.753z"/>
	<path style="fill:#FFB125;" d="M340.626,325.873c-0.218,0-0.437-0.009-0.657-0.029c-4.127-0.358-7.182-3.994-6.823-8.12
		l10.972-126.433c0.358-4.126,4.008-7.181,8.12-6.823c4.127,0.358,7.182,3.994,6.823,8.12l-10.972,126.433
		C347.75,322.927,344.475,325.873,340.626,325.873z"/>
	<path style="fill:#FFB125;" d="M409.563,325.995c-0.617,0-1.245-0.077-1.871-0.238c-4.012-1.031-6.429-5.119-5.397-9.13
		l32.472-126.396c1.03-4.011,5.114-6.429,9.13-5.398c4.012,1.031,6.429,5.119,5.397,9.13l-32.472,126.396
		C415.953,323.745,412.905,325.995,409.563,325.995z"/>
</g>
<path style="fill:#CCCCCC;" d="M481.156,431.468l-314.264-0.549c-6.879-0.012-12.874-4.687-14.563-11.355L72.565,104.526
	L9.504,79.506C1.778,76.44-2,67.692,1.065,59.967c3.065-7.726,11.814-11.504,19.539-8.44l70.213,27.858
	c4.491,1.781,7.854,5.611,9.039,10.294l78.781,311.16l302.571,0.529c8.312,0.015,15.038,6.764,15.023,15.076
	C496.217,424.756,489.467,431.482,481.156,431.468z"/>
<path style="fill:#B3B3B3;" d="M496.232,416.444c0.001-0.361-0.028-0.715-0.052-1.069l-330.04-0.505L86.858,101.01
	c-1.186-4.683-4.548-8.513-9.039-10.294L7.606,62.859c-2.349-0.932-4.792-1.223-7.143-0.97c-0.771,3.085-0.517,6.241,0.575,9.064
	c0.031,0.081,0.059,0.164,0.092,0.244c0.123,0.303,0.262,0.599,0.405,0.893c0.061,0.126,0.12,0.254,0.185,0.378
	c0.135,0.261,0.282,0.515,0.433,0.768c0.09,0.151,0.18,0.301,0.276,0.449c0.146,0.226,0.299,0.448,0.457,0.666
	c0.119,0.164,0.242,0.326,0.367,0.486c0.155,0.197,0.313,0.39,0.478,0.579c0.148,0.17,0.303,0.335,0.459,0.499
	c0.162,0.17,0.325,0.338,0.495,0.501c0.179,0.171,0.367,0.333,0.555,0.495c0.166,0.143,0.33,0.288,0.503,0.424
	c0.214,0.169,0.439,0.326,0.663,0.483c0.165,0.116,0.325,0.236,0.496,0.346c0.264,0.17,0.541,0.324,0.819,0.479
	c0.146,0.082,0.286,0.171,0.436,0.248c0.435,0.224,0.883,0.43,1.346,0.615l63.062,25.019l79.763,315.037
	c1.688,6.669,7.684,11.343,14.563,11.355l314.265,0.549C489.467,431.482,496.217,424.756,496.232,416.444z"/>
<circle style="fill:#1D4859;" cx="173.62" cy="419.259" r="41.85"/>
<path style="fill:#193D4B;" d="M203.268,389.714c-0.017-0.017-0.036-0.033-0.053-0.051l-59.183,59.183
	c16.319,16.32,42.778,16.351,59.132,0.053C219.536,432.585,219.583,406.087,203.268,389.714z"/>
<path style="fill:#F3E8D6;" d="M173.598,433.693c-7.961-0.014-14.427-6.502-14.413-14.463s6.502-14.426,14.463-14.412
	s14.426,6.502,14.412,14.463C188.047,427.241,181.559,433.707,173.598,433.693z"/>
<circle style="fill:#1D4859;" cx="419.04" cy="419.689" r="41.85"/>
<path style="fill:#193D4B;" d="M448.686,390.144c-0.035-0.035-0.071-0.066-0.106-0.101l-59.183,59.183
	c16.315,16.372,42.813,16.419,59.185,0.103C464.955,433.014,465.001,406.516,448.686,390.144z"/>
<path style="fill:#F3E8D6;" d="M419.017,434.122c-7.961-0.014-14.427-6.502-14.413-14.463s6.502-14.426,14.463-14.412
	s14.426,6.502,14.412,14.463C433.466,427.671,426.978,434.136,419.017,434.122z"/>
<g>
</g>
<g>
</g>
<g>
</g>
<g>
</g>
<g>
</g>
<g>
</g>
<g>
</g>
<g>
</g>
<g>
</g>
<g>
</g>
<g>
</g>
<g>
</g>
<g>
</g>
<g>
</g>
<g>
</g>
</svg>
