<svg height="473pt" viewBox="0 -1 473.75068 473" width="473pt" xmlns="http://www.w3.org/2000/svg"><path d="m414.21875 215.679688c-7.015625-6.78125-16.882812-9.734376-26.46875-7.921876v-7.679687h43.25c3.363281-.078125 6.335938-2.203125 7.496094-5.363281 1.15625-3.15625.265625-6.703125-2.25-8.9375l-211.226563-183.433594c-3-2.613281-7.46875-2.625-10.480469-.027344l-211.773437 183.386719c-2.53125 2.253906-3.425781 5.824219-2.261719 9.003906 1.152344 3.167969 4.132813 5.304688 7.5 5.371094h39.746094v224.207031c.050781 4.410156 3.625 7.96875 8.035156 8l256.964844 2.382813v6.910156c0 16.671875 13.46875 30.5 30.140625 30.5h100.375c16.789063-.121094 30.367187-13.707031 30.484375-30.5v-155.867187c-.027344-8.226563-3.390625-16.09375-9.316406-21.800782zm-21.140625 7.550781c3.679687 0 7.214844 1.429687 9.863281 3.984375l50.308594 48.230468c2.824219 2.675782 4.445312 6.378907 4.5 10.265626v114.367187h-129v-114.367187c-.007812-3.867188 1.550781-7.570313 4.324219-10.265626l50.164062-48.226562c2.636719-2.558594 6.164063-3.988281 9.839844-3.988281zm-173.308594-203.957031 189.8125 164.804687h-380.125zm45.980469 398.957031-91-.839844v-101.3125h91zm16 .148437v-110.683594c-.023438-2.085937-.894531-4.074218-2.410156-5.507812-1.511719-1.4375-3.546875-2.195312-5.628906-2.109375h-106.695313c-4.417969 0-8.265625 3.199219-8.265625 7.617187v109.546876l-95-.882813v-216.28125h308v16.328125l-49.574219 47.5c-5.957031 5.695312-9.355469 13.558594-9.425781 21.800781v132.960938zm161.515625 37.699219h-100.375c-7.890625-.140625-14.195313-6.609375-14.140625-14.5v-25.5h129v25.5c-.105469 7.957031-6.527344 14.386719-14.484375 14.5zm0 0"/><path d="m363.261719 296.351562c0 15.488282 12.558593 28.046876 28.050781 28.046876 15.488281 0 28.046875-12.558594 28.046875-28.046876 0-15.492187-12.558594-28.050781-28.046875-28.050781-15.484375.019531-28.03125 12.566407-28.050781 28.050781zm28.050781-12.050781c6.652344 0 12.046875 5.394531 12.046875 12.050781 0 6.652344-5.394531 12.046876-12.046875 12.046876-6.65625 0-12.050781-5.394532-12.050781-12.046876.007812-6.652343 5.398437-12.042968 12.050781-12.050781zm0 0"/></svg>