<svg id="_x33_0" enable-background="new 0 0 64 64" height="512" viewBox="0 0 64 64" width="512" xmlns="http://www.w3.org/2000/svg"><g><path d="m47 42.816v2.184h2v-2h2v-3c0-1.654-1.346-3-3-3-.552 0-1-.449-1-1v-1h1c.552 0 1 .449 1 1v1h2v-1c0-1.302-.839-2.402-2-2.816v-2.184h-2v2h-2v3c0 1.654 1.346 3 3 3 .552 0 1 .449 1 1v1h-1c-.552 0-1-.449-1-1v-1h-2v1c0 1.302.839 2.402 2 2.816z"/><path d="m56.448 45.034c1.592-1.909 2.552-4.361 2.552-7.034 0-6.065-4.935-11-11-11-3.651 0-6.882 1.795-8.884 4.54l-1.256-.343-.758-3.791c1.566-1.082 2.769-2.649 3.401-4.48 1.464-.247 2.772-1.139 3.518-2.446l1.982-3.469c.652-1.142.997-2.441.997-3.756 0-1.676-.566-3.327-1.596-4.648l-3.545-4.558c-1.506-1.938-3.778-3.049-6.231-3.049-1.22 0-2.44.288-3.531.833l-.097.049-.097-.048c-1.09-.546-2.311-.834-3.531-.834-2.453 0-4.725 1.111-6.231 3.048l-3.545 4.558c-1.03 1.322-1.596 2.973-1.596 4.649 0 1.315.345 2.614.998 3.756l1.982 3.469c.746 1.307 2.054 2.199 3.518 2.446.632 1.832 1.834 3.398 3.401 4.48l-.758 3.791-5.996 1.635c-3.078.839-5.802 2.563-7.876 4.985-2.108 2.458-3.269 5.596-3.269 8.834v11.349c0 2.757 2.243 5 5 5h19c1.103 0 2-.897 2-2h2v2h22v-13.343c0-1.335-.521-2.591-1.465-3.535zm-8.448-16.034c4.963 0 9 4.038 9 9s-4.037 9-9 9-9-4.038-9-9 4.037-9 9-9zm-10.957 20.527-.026 1.473h-.183l-1.943-10.69c.349-.286.634-.642.826-1.056l1.587 1.27c.397 1.684 1.174 3.223 2.248 4.51l-1.045 1.045c-.922.921-1.442 2.146-1.464 3.448zm-5.043-13.246 2 1.6v.119c0 .551-.448 1-1 1h-2c-.552 0-1-.449-1-1v-.119zm-.984 4.719h1.969l1.818 10h-5.605zm7.041-7.675c-.4.848-.697 1.752-.87 2.7l-.589 1.373-2.851-2.281 3.401-2.04zm6.943-20.07c0 .968-.254 1.923-.734 2.764l-1.982 3.47c-.305.535-.776.935-1.318 1.195.016-.227.034-.453.034-.684v-4.362c0-.685-.153-1.349-.418-1.967 1.42-.614 2.418-2.027 2.418-3.671 0-.655-.174-1.265-.454-1.812l1.28 1.646c.757.973 1.174 2.188 1.174 3.421zm-23.283 6.233-1.982-3.469c-.481-.841-.735-1.796-.735-2.764 0-1.233.417-2.448 1.174-3.421l3.545-4.558c1.125-1.446 2.821-2.276 4.653-2.276.91 0 1.822.215 2.637.623l.991.495.991-.496c.815-.407 1.727-.622 2.637-.622 1.832 0 3.528.83 4.653 2.276l1.348 1.734c-.704-.621-1.618-1.01-2.629-1.01-2.206 0-4 1.794-4 4h2c0-1.103.897-2 2-2s2 .897 2 2-.897 2-2 2h-2.938c-2.057 0-3.879-1.234-4.643-3.143l-.491-1.229-1.857.742.467 1.168-3.507 1.503c-1.842.79-3.031 2.593-3.031 4.597v4.362c0 .231.018.457.035.684-.542-.26-1.013-.661-1.318-1.196zm3.283.512v-4.362c0-1.202.714-2.284 1.818-2.758l3.717-1.593c1.302 1.686 3.314 2.713 5.528 2.713h2.442c.317.485.495 1.051.495 1.638v4.362c0 3.86-3.141 7-7 7s-7-3.14-7-7zm7 9c1.149 0 2.245-.225 3.256-.619l.625 3.124-3.881 2.329-3.881-2.329.625-3.124c1.011.394 2.107.619 3.256.619zm-5.148 4.077 3.401 2.04-2.851 2.281-1.716-4.003zm-12.852 27.923c-1.654 0-3-1.346-3-3v-11.349c0-2.761.989-5.436 2.787-7.532 1.813-2.117 4.193-3.623 6.883-4.356l3.067-.836 2.861 6.675 1.685-1.348c.192.414.477.77.826 1.056l-1.943 10.69h-8.166v-5h-2v5h-2v2h18v8zm21-8h3c1.654 0 3 1.346 3 3s-1.346 3-3 3h-3zm7.465.795v-.795h10.535v4h-10.101c.066-.323.101-.658.101-1 0-.795-.204-1.537-.535-2.205zm14.535 7.205h-18v-.101c1.213-.247 2.253-.946 2.974-1.899h13.026v-8h-14.535v.676c-.448-.257-.928-.464-1.449-.572l.027-1.543c.013-.781.325-1.516.878-2.069l1.045-1.045c1.908 1.592 4.36 2.553 7.034 2.553 2.673 0 5.126-.961 7.034-2.552l1.087 1.088c.559.558.879 1.331.879 2.121z"/></g></svg>