<svg id="ART" xmlns="http://www.w3.org/2000/svg" xmlns:xlink="http://www.w3.org/1999/xlink" viewBox="0 0 48 48"><defs><style>.cls-1{fill:url(#linear-gradient);}.cls-2{fill:url(#linear-gradient-2);}.cls-3{fill:url(#linear-gradient-3);}.cls-4{fill:url(#linear-gradient-4);}.cls-5{fill:url(#linear-gradient-5);}.cls-6{fill:url(#linear-gradient-6);}.cls-7{fill:url(#linear-gradient-7);}.cls-8{fill:url(#linear-gradient-8);}</style><linearGradient id="linear-gradient" x1="24" y1="11.25" x2="24" y2="33.19" gradientUnits="userSpaceOnUse"><stop offset="0" stop-color="#273a9b"/><stop offset="0.56" stop-color="#202f65"/><stop offset="1" stop-color="#021e2f"/></linearGradient><linearGradient id="linear-gradient-2" x1="24" y1="49" x2="24" y2="4.56" gradientUnits="userSpaceOnUse"><stop offset="0" stop-color="#f3c57a"/><stop offset="0.49" stop-color="#f39369"/><stop offset="1" stop-color="#e94867"/></linearGradient><linearGradient id="linear-gradient-3" y1="56.88" x2="24" y2="14.36" xlink:href="#linear-gradient-2"/><linearGradient id="linear-gradient-4" x1="24" y1="43.75" x2="24" y2="0.61" gradientUnits="userSpaceOnUse"><stop offset="0" stop-color="#27e9de"/><stop offset="0.52" stop-color="#03a4ec"/><stop offset="1" stop-color="#2547a8"/></linearGradient><linearGradient id="linear-gradient-5" x1="24" y1="23.42" x2="24" y2="14.75" xlink:href="#linear-gradient-4"/><linearGradient id="linear-gradient-6" x1="24" y1="31.13" x2="24" y2="7.98" xlink:href="#linear-gradient-4"/><linearGradient id="linear-gradient-7" x1="24" y1="27.31" x2="24" y2="14.66" xlink:href="#linear-gradient-4"/><linearGradient id="linear-gradient-8" x1="24" y1="16.97" x2="24" y2="1.22" gradientUnits="userSpaceOnUse"><stop offset="0" stop-color="#fff"/><stop offset="0.52" stop-color="#cce2e6"/><stop offset="1" stop-color="#8fa1bb"/></linearGradient></defs><title>funnel, filter, settings, options, preferences</title><rect class="cls-1" x="6" y="15" width="36" height="6" rx="1.26" ry="1.26"/><path class="cls-2" d="M9,21l9.74,11.13a3.08,3.08,0,0,1,.76,2V40.5a1,1,0,0,0,.57.93L27,44.89A1,1,0,0,0,28.5,44V34.16a3.08,3.08,0,0,1,.76-2L39,21Z"/><path class="cls-3" d="M26.38,21H9l1.31,1.5H17A4.31,4.31,0,0,1,20.29,24L23,27.26a4.47,4.47,0,0,1,1,2.86V43.39l3,1.5A1,1,0,0,0,28.5,44V34.16a3.08,3.08,0,0,1,.76-2L39,21Z"/><path class="cls-4" d="M30,12h0a2,2,0,0,1,.59-1.43L32,9.21A1,1,0,0,0,32.11,8L31.48,7a1,1,0,0,0-1.09-.45L28.54,7A2,2,0,0,1,27,6.76h0a2,2,0,0,1-.9-1.18l-.51-1.86A1,1,0,0,0,24.63,3H23.37a1,1,0,0,0-.94.71l-.51,1.86A2,2,0,0,1,21,6.76h0A2,2,0,0,1,19.46,7L17.61,6.5A1,1,0,0,0,16.52,7L15.89,8A1,1,0,0,0,16,9.21l1.4,1.41A1.91,1.91,0,0,1,18,12h0a1.91,1.91,0,0,1-.52,1.37L16,14.79A1,1,0,0,0,15.89,16L16.52,17a1,1,0,0,0,1.09.45L19.54,17a1.88,1.88,0,0,1,1.45.23l0,0a1.87,1.87,0,0,1,.87,1.11l.53,1.93a1,1,0,0,0,.94.71h1.26a1,1,0,0,0,.94-.71l.51-1.87A2,2,0,0,1,27,17.25l.1-.06a1.82,1.82,0,0,1,1.39-.2l1.94.51A1,1,0,0,0,31.48,17L32.11,16A1,1,0,0,0,32,14.79l-1.33-1.35A2,2,0,0,1,30,12Z"/><path class="cls-5" d="M25.57,20.29l.51-1.87A2,2,0,0,1,27,17.25l.1-.06a1.82,1.82,0,0,1,1.39-.2l1.94.51A1,1,0,0,0,31.48,17L32.11,16a1,1,0,0,0,0-1H15.89a1,1,0,0,0,0,1L16.52,17a1,1,0,0,0,1.09.45L19.54,17a1.88,1.88,0,0,1,1.45.23l0,0a1.87,1.87,0,0,1,.87,1.11l.53,1.93a1,1,0,0,0,.94.71h1.26A1,1,0,0,0,25.57,20.29Z"/><path class="cls-6" d="M21.81,18.17a1.69,1.69,0,0,1,.09.19l.53,1.93a1,1,0,0,0,.94.71h1.26a1,1,0,0,0,.94-.71l.51-1.87a1.9,1.9,0,0,1,.11-.22V12H21.81Z"/><path class="cls-7" d="M26.08,18.42a2,2,0,0,1,.11-.29V15H21.81v3.11a1.73,1.73,0,0,1,.09.24l.53,1.93a1,1,0,0,0,.94.71h1.26a1,1,0,0,0,.94-.71l.51-1.87Z"/><circle class="cls-8" cx="24" cy="12" r="2.2"/></svg>