<svg xmlns="http://www.w3.org/2000/svg" viewBox="0 0 512 512"><title>Artboard 155</title><g id="Data_Filter" data-name="Data Filter"><path d="M426.66667,21.33333H85.33333A21.33272,21.33272,0,0,0,64,42.66667h0A21.33355,21.33355,0,0,0,85.33333,64l128,256V490.66667a85.33339,85.33339,0,0,0,85.33334-85.33334V320l128-256A21.33355,21.33355,0,0,0,448,42.66667h0A21.33272,21.33272,0,0,0,426.66667,21.33333Z" style="fill:#e80035"/><path d="M362.66667,64h-256A21.33334,21.33334,0,0,1,85.33333,42.66667h0a21.33334,21.33334,0,0,1,21.33334-21.33334h256A21.33334,21.33334,0,0,1,384,42.66667h0A21.33333,21.33333,0,0,1,362.66667,64Z" style="fill:#fb7c8a"/><path d="M213.33333,64H106.66667A21.33334,21.33334,0,0,1,85.33333,42.66667h0a21.33334,21.33334,0,0,1,21.33334-21.33334H213.33333a21.33334,21.33334,0,0,1,21.33334,21.33334h0A21.33334,21.33334,0,0,1,213.33333,64Z" style="fill:#fdb8bf"/><path d="M328.148,106.66667H141.18537a21.33333,21.33333,0,0,0-19.08114,30.87383L213.33333,320V426.66667a21.33334,21.33334,0,0,0,42.66667,0V320l91.22911-182.4595A21.33333,21.33333,0,0,0,328.148,106.66667Z" style="fill:#fa4659"/><path d="M213.35417,234.66667A21.33553,21.33553,0,0,1,194.25,222.875l-42.66667-85.33333A21.33582,21.33582,0,0,1,189.75,118.45833l42.66667,85.33334a21.33134,21.33134,0,0,1-19.0625,30.875Z" style="fill:#fb7c8a"/></g></svg>