<svg xmlns="http://www.w3.org/2000/svg" viewBox="0 0 48 48"><defs><style>.cls-1{fill:#dad7e5;}.cls-2{fill:#edebf2;}.cls-3{fill:#6fabe6;}.cls-4{fill:#82bcf4;}.cls-5{fill:#425b72;}.cls-6{fill:#7c7d7d;}.cls-7{fill:#919191;}.cls-8{fill:#db5669;}.cls-9{fill:#f26674;}.cls-10{fill:#ffde76;}</style></defs><title>Warning Setting Web</title><g id="Warning_Setting_Web" data-name="Warning Setting Web"><path class="cls-1" d="M47,9c0,37.11.15,34.52-.36,35.64A4,4,0,0,1,43,47H5a4,4,0,0,1-4-4V9Z"/><path class="cls-2" d="M47,9c0,37.11.15,34.52-.36,35.64A3.93,3.93,0,0,1,45,45H11a8,8,0,0,1-8-8V9Z"/><path class="cls-3" d="M47,5V9H1V5A4,4,0,0,1,3.36,1.36C4.48.85,1.45,1,43,1A4,4,0,0,1,47,5Z"/><path class="cls-4" d="M47,5V7H6A3,3,0,0,1,3,4a5.45,5.45,0,0,1,.36-2.64A3.93,3.93,0,0,1,5,1H43A4,4,0,0,1,47,5Z"/><path class="cls-5" d="M43,6a1,1,0,1,1,.38-1.92A1,1,0,0,1,43,6Z"/><path class="cls-5" d="M39,6a1,1,0,0,1-.83-1.56,1,1,0,0,1,1.54-.15A1,1,0,0,1,39,6Z"/><path class="cls-5" d="M35,6a1,1,0,1,1,.92-1.38A1,1,0,0,1,35,6Z"/><path class="cls-5" d="M23,6H5A1,1,0,0,1,5,4H23A1,1,0,0,1,23,6Z"/><path class="cls-6" d="M39,29.46a2.2,2.2,0,0,1-1.75,2.11,2.14,2.14,0,0,0-1.36,3.29,1.93,1.93,0,0,1,.3.69c.41,1.55-.87,2.35-2.61,4.09a2.15,2.15,0,0,1-2.71.26c-.62-.62-2.6-.74-3.31,1.38A2.16,2.16,0,0,1,25.46,43c-3.07,0-4.31.4-5-1.75a2.15,2.15,0,0,0-3.3-1.35,2.15,2.15,0,0,1-2.71-.26l-2.06-2.06a2.15,2.15,0,0,1-.26-2.71,2.15,2.15,0,0,0-1.35-3.3A2.16,2.16,0,0,1,9,29.46c0-3.07-.41-4.31,1.75-5a2.15,2.15,0,0,0,1.35-3.3,2.15,2.15,0,0,1,.26-2.71l2.06-2.06a2.16,2.16,0,0,1,2.71-.26,2.15,2.15,0,0,0,3.3-1.35A2.16,2.16,0,0,1,22.54,13c3,0,4.31-.41,5,1.75a2.14,2.14,0,0,0,3.29,1.36,2.13,2.13,0,0,1,2.72.25l2.06,2.06a2.15,2.15,0,0,1,.26,2.71,2.15,2.15,0,0,0,1.35,3.3C39.42,25.15,39,26.51,39,29.46Z"/><path class="cls-7" d="M39,29.46a2.2,2.2,0,0,1-1.75,2.11,2.14,2.14,0,0,0-1.36,3.29,1.93,1.93,0,0,1,.3.69A14,14,0,0,1,16.45,15.81a1.94,1.94,0,0,1,.68.29,2.15,2.15,0,0,0,3.3-1.35c.72-2.17,2.08-1.75,5-1.75a2.2,2.2,0,0,1,2.11,1.75,2.14,2.14,0,0,0,3.29,1.36,2.13,2.13,0,0,1,2.72.25l2.06,2.06a2.15,2.15,0,0,1,.26,2.71,2.15,2.15,0,0,0,1.35,3.3C39.42,25.15,39,26.51,39,29.46Z"/><path class="cls-8" d="M32,32.43A1.57,1.57,0,0,1,30.43,34H17.57a1.58,1.58,0,0,1-1.36-2.37c7-12,6.4-11.63,7.89-11.63a1.59,1.59,0,0,1,1.36.78C32.21,32.35,32,31.8,32,32.43Z"/><path class="cls-9" d="M31.94,32H19.57A1.57,1.57,0,0,1,18,30.43c0-.62-.25,0,5.83-10.43h.27a1.59,1.59,0,0,1,1.36.78C32.36,32.61,31.88,31.73,31.94,32Z"/><path class="cls-10" d="M24.38,30.08a1,1,0,0,0-1.09,1.63,1,1,0,0,0,1.42,0A1,1,0,0,0,24.38,30.08Z"/><path class="cls-10" d="M23,25v3a1,1,0,0,0,2,0V25A1,1,0,0,0,23,25Z"/></g></svg>