<svg xmlns="http://www.w3.org/2000/svg" viewBox="0 0 512 512">
  <defs>
    <style>
      .cls-1 {
        fill: #559aff;
      }

      .cls-2 {
        fill: #1172ff;
      }

      .cls-3 {
        fill: #19e77c;
      }

      .cls-4 {
        fill: #00cd6c;
      }

      .cls-5 {
        fill: #f6edff;
      }

      .cls-6 {
        fill: #8cf3be;
      }
    </style>
  </defs>
  <title>E Commerce_512px</title>
  <g id="Price_Tag_Dollar" data-name="Price Tag Dollar">
    <g>
      <path class="cls-1" d="M394.66667,21.33333a96,96,0,1,0,96,96A95.99975,95.99975,0,0,0,394.66667,21.33333Zm0,170.66667a74.66667,74.66667,0,1,1,74.66666-74.66667A74.667,74.667,0,0,1,394.66667,192Z"/>
      <path class="cls-2" d="M394.66667,21.33333a95.99976,95.99976,0,0,0-96,96v.07792l.00008.03435.00008.04471v.03107l.00008.047.00016.03653.00008.04159.00017.042.00016.03612.00016.03725.00017.04222.00016.03228.00024.04627.00017.03092.00032.04744.00016.03317.00033.04537.00024.0291.00041.0507.00016.02617.00049.05163.00025.02892.00048.04859.00033.03411.00041.04361.0004.03506.00041.04262.00049.03862.00049.03944.0004.03708.00049.0408.00057.0406.00049.03715.00057.03963.00049.03849.00065.04333.00049.0327.00073.04395.00049.03556.00073.04367.00057.03367.00073.04188.00065.03873.00065.03729.00082.04255.00057.03351.00089.044.00065.03622.0009.04291.00065.03271.0009.0451.00073.03563.00089.04183.00082.034.001.0452.00074.03452.00105.04359.00074.03222.00114.04647.00073.03322.00114.0449.00081.03152.00114.046.0009.03445.00113.0433.0009.033.00122.045.0009.0343.0013.04528.00081.03058.00139.04689.00089.03306.00147.04877.00081.02578.00163.05475.00073.02385.00179.05838.00057.018.00179.05552.00081.02526.00179.055.00065.02127.002.0587.00065.01952.00488.14259.00049.0133q.02784.78323.0682,1.5631l.00024.00517q.00805.15453.01644.30871l.00008.00045a96.05748,96.05748,0,0,0,1.87989,14.3658,10.66665,10.66665,0,0,0,20.88321-4.359,74.75228,74.75228,0,0,1,73.09034-90.02282,10.66667,10.66667,0,0,0,0-21.33334Z"/>
      <path class="cls-3" d="M362.66667,106.66667H252.33984a42.66962,42.66962,0,0,0-30.17057,12.49609L33.83073,307.5026a42.666,42.666,0,0,0,0,60.33985L144.15755,478.16927a42.666,42.666,0,0,0,60.33985,0L392.83594,289.82943a42.66237,42.66237,0,0,0,12.49739-30.16927V149.33333A42.66627,42.66627,0,0,0,362.66667,106.66667Zm-32,106.66666a32,32,0,1,1,32-32A31.99991,31.99991,0,0,1,330.66667,213.33333Z"/>
      <path class="cls-4" d="M330.66667,128a53.33334,53.33334,0,1,1-10.12224,105.70325A10.66663,10.66663,0,1,1,324.579,212.755l.00334.00066a32.05906,32.05906,0,0,0,4.53108.54064l.00106.00007.04509.00211.00374.00019.043.00195.006.00026.04045.00179.0096.00041.03556.00153.01538.00063.03386.00138.01538.00063.03345.00132.01562.00061.03394.00129.01668.00063.03092.00114.01945.00069.03117.00108.01734.00059.03182.00107.01749.00057.03247.001.01815.00057.03019.00092.0188.00055c.05355.00156.10767.003.16122.00433l.01855.00045.028.00065.02091.00049.0271.00059.02425.0005.02433.00049.02491.00049.02539.00049.026.00047.02278.00038.02718.00045.02328.00037.02726.0004.0232.00035.02636.00035.0236.0003.02792.00033.02246.00024.027.00029.02327.00022.02734.00024.02328.00019.02645.0002.02352.00014.02978.00017.0201.00012.03117.00012.01945.00006.03141.00008.01913,0,.05,0h0a31.99992,31.99992,0,0,0,32-32h0a31.99993,31.99993,0,0,0-32-32,10.66667,10.66667,0,1,1,0-21.33333Z"/>
      <path class="cls-4" d="M394.66675,161.12717a10.66675,10.66675,0,0,0-10.66667,10.66665v87.86625a21.19029,21.19029,0,0,1-6.24918,15.08458L189.41235,463.08427a21.33233,21.33233,0,0,1-30.16984,0l-10.307-10.30676a10.66664,10.66664,0,0,0-15.0848,15.085l10.3068,10.3068a42.666,42.666,0,0,0,60.33985,0h0l.11995-.12.0026-.00265.08326-.08321.162-.162.00424-.00427c.10148-.1014.22192-.22184.3636-.36357l.02515-.02518.46533-.46529.10051-.10051.02205-.02209.02165-.02165.101-.101.70475-.70472.03093-.031.0262-.02621.09644-.09643.02034-.02031,1.94149-1.94156.05062-.05062.19466-.19462.03141-.03142.09123-.09118.112-.112.01058-.01058.10783-.10779.01481-.01485.19637-.19641.04883-.04883.19889-.19889.04639-.04635.04826-.0483.07438-.0743.05338-.05339.06918-.06925.09285-.09281.02979-.02979.06876-.06872.05388-.05388.04557-.04565.32226-.32223.01652-.01656c27.419-27.41907,136.90983-136.91074,171.5236-171.52472l.16154-.16152.08366-.08372.05526-.05519.19-.19.039-.039.20622-.20626.0197-.01963c.32568-.32568.65006-.65012.96126-.9613l.03808-.03809.6976-.69761.19864-.19865.04664-.04659.11018-.11023.01237-.01237.104-.104.01863-.01862.05835-.05839.06429-.06423.01229-.01233.11027-.11029.22852-.22847.1394-.13939.19011-.19014.05509-.05508.47388-.47391.0166-.01656.32218-.32223.04566-.04563.05387-.05388.06877-.06872.02978-.02981.09278-.09281.06925-.06924.05339-.05338.0743-.07432.04834-.0483.0463-.04635.1989-.19889.04882-.04883.19646-.19641.01481-.01483.10774-.10777.01066-.01062.112-.112.09123-.0912.03141-.03142.19458-.19462.05062-.05062,1.94157-1.94155.02026-.02032.09644-.09644.0262-.02618.031-.031.70467-.70473.101-.101.02165-.02163.02214-.02209.1005-.10053.46525-.46529.02523-.02516.36353-.36359.00431-.00427.162-.162.08317-.08321.00268-.00265.12-.12a42.66285,42.66285,0,0,0,12.49747-30.16938V171.79382a10.66669,10.66669,0,0,0-10.66666-10.66665Z"/>
      <g>
        <path class="cls-5" d="M294.2487,272.91536l-46.32715-46.32714a45.25483,45.25483,0,0,0-64,64l37.49023,37.49023a15.08494,15.08494,0,0,1-21.33333,21.33333l-46.32666-46.32666a15.08495,15.08495,0,0,0-21.33333,21.33334l46.32666,46.32666a45.25483,45.25483,0,0,0,64-64l-37.49024-37.49024a15.08495,15.08495,0,0,1,21.33334-21.33333l46.32714,46.32715a15.08495,15.08495,0,1,0,21.33334-21.33334Z"/>
        <rect class="cls-5" x="235.20269" y="227.1242" width="69.17633" height="30.16989" rx="15.08493" ry="15.08493" transform="translate(-92.24781 261.71236) rotate(-45)"/>
        <rect class="cls-5" x="123.2027" y="342.24839" width="62.92793" height="30.16989" rx="15.08493" ry="15.08493" transform="translate(-207.37199 214.02632) rotate(-44.99999)"/>
      </g>
      <rect class="cls-6" x="31.24195" y="283.58172" width="108.18276" height="30.16989" rx="15.08493" ry="15.08493" transform="translate(-186.19568 147.81724) rotate(-45)"/>
      <rect class="cls-6" x="107.73873" y="176.91506" width="168.52254" height="30.16989" rx="15.08493" ry="15.08493" transform="translate(-79.529 191.99999) rotate(-45)"/>
      <path class="cls-1" d="M394.66667,192a74.35433,74.35433,0,0,1-52.14714-21.33333H320v6.32682c17.59245,21.98307,44.32161,36.33984,74.66667,36.33984A95.51821,95.51821,0,0,0,448,197.1224V170.66667h-1.1862A74.35432,74.35432,0,0,1,394.66667,192Z"/>
    </g>
  </g>
</svg>
