<?xml version="1.0" encoding="utf-8"?>
<!-- Generator: Adobe Illustrator 18.0.0, SVG Export Plug-In . SVG Version: 6.00 Build 0)  -->
<!DOCTYPE svg PUBLIC "-//W3C//DTD SVG 1.1//EN" "http://www.w3.org/Graphics/SVG/1.1/DTD/svg11.dtd">
<svg version="1.1" id="ecommerce_1_" xmlns="http://www.w3.org/2000/svg" xmlns:xlink="http://www.w3.org/1999/xlink" x="0px"
	 y="0px" viewBox="0 0 115 115" style="enable-background:new 0 0 115 115;" xml:space="preserve">
<style type="text/css">
	.st0{fill:#FFEEAD;}
	.st1{fill:#C9B77D;}
	.st2{fill:#99734A;}
	.st3{fill:#FF6F69;}
	.st4{fill:#96CEB4;}
	.st5{fill:none;}
	.st6{fill:#AA9865;}
	.st7{fill:#71A58A;}
	.st8{fill:#FFCC5C;}
	.st9{fill:#825E3B;}
	.st10{fill:#639376;}
	.st11{fill:#E05858;}
	.st12{fill:#C1821E;}
	.st13{fill:#D6A041;}
	.st14{fill:#B28559;}
	.st15{fill:#BF4343;}
	.st16{fill:#D3C089;}
	.st17{fill:#7C5C3C;}
	.st18{fill:#FDCC5C;}
	.st19{fill:#FFFFFF;}
</style>
<g id="sold_out_1_">
	<g>
		<g>
			<g>
				<path class="st1" d="M0,12.889v92.759c0,4.738,3.841,8.579,8.579,8.579h97.843c4.738,0,8.579-3.841,8.579-8.579V12.889H0z"/>
			</g>
		</g>
		<g>
			<g>
				<path class="st2" d="M47.057,12.889v16.723h0.774c0.151-0.68,0.755-1.189,1.48-1.189c0.725,0,1.329,0.509,1.481,1.189h1.133
					c0.151-0.68,0.755-1.189,1.48-1.189s1.329,0.509,1.48,1.189h1.133c0.151-0.68,0.755-1.189,1.48-1.189
					c0.725,0,1.33,0.509,1.481,1.189h1.133c0.151-0.68,0.755-1.189,1.48-1.189c0.725,0,1.329,0.509,1.481,1.189h1.133
					c0.151-0.68,0.755-1.189,1.48-1.189c0.725,0,1.329,0.509,1.48,1.189h0.774V12.889H47.057z"/>
			</g>
		</g>
		<g>
			<g>
				<path class="st0" d="M108.112,3.651c-1.273-1.729-4.567-2.877-8.251-2.877H15.139c-3.684,0-6.978,1.149-8.251,2.877L0,12.889
					h114.914L108.112,3.651z"/>
			</g>
		</g>
		<g>
			<g>
				<polygon class="st1" points="66.015,0.773 49.037,0.773 47.046,12.889 67.954,12.889 				"/>
			</g>
		</g>
		<g>
			<g>
				<path class="st2" d="M67.169,97.504c-0.151,0.68-0.755,1.189-1.48,1.189c-0.725,0-1.33-0.509-1.481-1.189h-1.133
					c-0.151,0.68-0.755,1.189-1.48,1.189c-0.725,0-1.33-0.509-1.481-1.189H58.98c-0.151,0.68-0.755,1.189-1.48,1.189
					c-0.725,0-1.329-0.509-1.48-1.189h-1.133c-0.151,0.68-0.755,1.189-1.48,1.189c-0.725,0-1.33-0.509-1.481-1.189h-1.133
					c-0.151,0.68-0.755,1.189-1.48,1.189c-0.725,0-1.33-0.509-1.481-1.189h-0.774v16.723h20.886V97.504H67.169z"/>
			</g>
		</g>
	</g>
	<g>
		<g>
			<g>
				<circle class="st11" cx="58.16" cy="62.976" r="45.756"/>
			</g>
		</g>
		<g>
			<g>
				<circle class="st1" cx="58.16" cy="62.976" r="42.72"/>
			</g>
		</g>
		<g>
			<g>
				<circle class="st11" cx="58.16" cy="62.976" r="27.409"/>
			</g>
		</g>
		<g>
			<g>
				<g>
					<path class="st1" d="M108.049,46.659l-8.05-14.426c-1.468-2.631-4.792-3.574-7.423-2.106L10.998,75.649
						c-2.631,1.468-3.574,4.792-2.106,7.423l8.05,14.426c1.468,2.631,4.792,3.574,7.423,2.106l81.578-45.521
						C108.574,52.614,109.517,49.291,108.049,46.659z"/>
				</g>
			</g>
			<g>
				<g>
					<g>
						<path class="st11" d="M109.385,45.913l-8.05-14.426c-1.876-3.363-6.14-4.572-9.504-2.695L10.253,74.313
							c-3.364,1.877-4.573,6.141-2.697,9.503l8.05,14.426c1.877,3.364,6.141,4.574,9.504,2.696l81.578-45.521
							C110.052,53.54,111.262,49.277,109.385,45.913z M105.198,52.746L23.62,98.267c-1.891,1.055-4.287,0.376-5.343-1.516
							l-8.05-14.426c-1.055-1.89-0.375-4.286,1.516-5.341l81.578-45.521c1.891-1.055,4.287-0.376,5.342,1.514l8.05,14.426
							C107.769,49.295,107.089,51.691,105.198,52.746z"/>
					</g>
				</g>
			</g>
		</g>
		<g>
			<g>
				<g>
					<g>
						<path class="st11" d="M19.762,88.823c-0.204-0.252-0.579-0.385-0.907-0.202c-0.458,0.255-0.269,0.75-0.077,1.094l1.763,3.159
							c0.046,0.082,0.384,0.688,0.891,0.404c0.41-0.229,0.059-0.741,0.583-1.034c0.59-0.329,1.219,0.07,2.662-0.692l-0.53-0.95
							C22.542,91.113,20.723,90.004,19.762,88.823z M23.325,80.439c0.232,0.3,0.553,0.528,0.945,0.309
							c0.475-0.265,0.311-0.711,0.102-1.087l-1.562-2.799c-0.073-0.131-0.351-0.705-0.858-0.422
							c-0.425,0.237-0.064,0.809-0.489,1.046c-0.18,0.1-1.624,0.09-2.663,0.65l0.529,0.948
							C20.761,78.651,22.469,79.328,23.325,80.439z M27.582,84.374c-0.841-1.507-2.354-2.679-5.871-2.175
							c-2.367,0.334-3.084,0.089-3.531-0.713c-0.374-0.671-0.09-1.43,0.413-1.991l-0.529-0.948c-2.36,1.423-3.302,3.967-1.915,6.455
							c1.434,2.569,3.869,2.434,6.415,2.15c0.978-0.096,2.426-0.345,2.969,0.704c0.47,0.918-0.001,1.653-0.65,2.336l0.53,0.95
							C27.808,89.742,28.997,86.91,27.582,84.374z"/>
					</g>
				</g>
			</g>
			<g>
				<g>
					<g>
						<path class="st11" d="M34.043,83.536l-4.73-8.477c-0.229-0.409-0.437-0.936,0.177-1.645l-0.529-0.948
							c-3.296,2.246-3.354,5.949-1.538,9.205c1.817,3.257,4.999,5.152,8.642,3.526l-0.53-0.95
							C34.611,84.399,34.272,83.945,34.043,83.536z M38.339,75.58c-1.817-3.255-4.999-5.151-8.641-3.525l0.529,0.948
							c0.924-0.149,1.264,0.304,1.493,0.714l4.73,8.477c0.229,0.41,0.436,0.937-0.178,1.644l0.53,0.95
							C40.098,82.54,40.157,78.837,38.339,75.58z"/>
					</g>
				</g>
			</g>
			<g>
				<g>
					<g>
						<path class="st11" d="M49.856,72.417c-0.174-0.312-0.38-0.604-0.755-0.394c-0.344,0.192-0.485,0.399-0.367,0.805
							c0.506,1.713,0.391,3.279-0.833,4.199l0.53,0.95l3.453-1.927L49.856,72.417z M41.95,66.785
							c0.175-0.185,0.241-0.413,0.113-0.643c-0.265-0.475-0.823-0.206-0.888-0.17l-4.632,2.585c-0.065,0.036-0.587,0.37-0.322,0.845
							c0.128,0.23,0.357,0.293,0.607,0.241c0.673-0.14,0.712-0.033,1.05,0.572l4.785,8.576c0.338,0.605,0.408,0.694-0.064,1.194
							c-0.176,0.184-0.241,0.414-0.113,0.643c0.265,0.475,0.823,0.206,0.888,0.169l4.32-2.411l-5.808-10.408
							C41.548,67.374,41.477,67.284,41.95,66.785z"/>
					</g>
				</g>
			</g>
			<g>
				<g>
					<g>
						<path class="st11" d="M46.213,63.161c-0.327,0.183-0.709,0.461-0.472,0.886c0.228,0.408,0.567,0.284,0.959,0.216
							c0.365-0.075,0.579,0.385,0.716,0.63l4.785,8.576c0.338,0.605,0.408,0.694-0.064,1.194c-0.176,0.184-0.241,0.414-0.113,0.643
							c0.265,0.475,0.693,0.279,1.053,0.078l4.157-2.32l-6.831-12.241L46.213,63.161z M59.857,63.573
							c-2.553-4.112-5.954-4.745-8.718-3.16l0.53,0.95c1.072-0.427,1.641,0.479,1.988,1.101l3.89,6.972
							c0.347,0.622,0.819,1.582-0.107,2.269l0.53,0.95C60.686,71.137,62.183,67.319,59.857,63.573z"/>
					</g>
				</g>
			</g>
			<g>
				<g>
					<g>
						<path class="st11" d="M72.906,61.85l-4.73-8.477c-0.229-0.409-0.437-0.936,0.177-1.645l-0.529-0.948
							c-3.296,2.247-3.354,5.949-1.538,9.205c1.817,3.257,4.999,5.152,8.642,3.526l-0.53-0.95
							C73.473,62.714,73.134,62.26,72.906,61.85z M77.202,53.894c-1.817-3.256-4.999-5.151-8.641-3.525l0.529,0.948
							c0.924-0.15,1.264,0.304,1.493,0.713l4.73,8.477c0.229,0.41,0.436,0.937-0.178,1.644l0.53,0.95
							C78.961,60.854,79.019,57.151,77.202,53.894z"/>
					</g>
				</g>
			</g>
			<g>
				<g>
					<g>
						<path class="st11" d="M85.207,54.128l-4.392-7.872c-0.338-0.605-0.409-0.693,0.063-1.193c0.175-0.185,0.241-0.414,0.113-0.643
							c-0.265-0.475-0.823-0.206-0.888-0.17l-4.632,2.584c-0.065,0.036-0.587,0.371-0.322,0.845
							c0.128,0.229,0.357,0.293,0.607,0.241c0.673-0.139,0.712-0.033,1.05,0.572l4.328,7.757c0.457,0.819,1,1.332,2.929,1.328
							c1.477-0.008,2.485-0.55,3.777-1.271l-0.539-0.965C85.872,55.667,85.299,54.292,85.207,54.128z M89.636,50.413l-3.443-6.171
							c-0.879-2.192,0.524-2.138,0.132-2.841c-0.283-0.507-0.935-0.101-1.115,0l-1.867,1.041c-0.18,0.101-0.869,0.442-0.585,0.95
							c0.392,0.703,1.084-0.519,2.487,1.38l3.424,6.137c0.714,1.512,0.601,2.692-0.65,3.991l0.539,0.965
							C89.612,55.255,91.012,53.186,89.636,50.413z"/>
					</g>
				</g>
			</g>
			<g>
				<g>
					<g>
						<path class="st11" d="M97.962,38.877c0.25,0.332,0.569,0.713,1.028,0.456c0.49-0.274,0.312-0.709,0.275-0.776l-2.127-3.813
							L94.78,36.06l0.53,0.95C96.498,37.14,97.33,38.092,97.962,38.877z M101.507,47.694c-0.128-0.23-0.358-0.295-0.607-0.241
							c-0.673,0.139-0.712,0.033-1.05-0.572l-5.808-10.408l-4.009,2.237l5.808,10.408c0.338,0.605,0.409,0.693-0.063,1.193
							c-0.176,0.184-0.241,0.414-0.113,0.643c0.265,0.474,0.823,0.206,0.888,0.169l4.632-2.584
							C101.251,48.502,101.772,48.168,101.507,47.694z M89.828,40.069l-0.53-0.95l-2.357,1.315l2.127,3.813
							c0.037,0.067,0.314,0.447,0.805,0.174c0.458-0.255,0.303-0.727,0.151-1.114C89.688,42.357,89.314,41.149,89.828,40.069z"/>
					</g>
				</g>
			</g>
		</g>
		<g>
			<g>
				<path class="st11" d="M46.185,34.812l-1.725-2.138c-0.112-0.138-0.148-0.323-0.097-0.493l0.784-2.633
					c0.128-0.429-0.292-0.818-0.71-0.658l-2.567,0.98c-0.166,0.063-0.353,0.041-0.499-0.06l-2.262-1.559
					c-0.368-0.254-0.868,0.025-0.846,0.472l0.139,2.744c0.009,0.178-0.07,0.348-0.211,0.456l-2.182,1.67
					c-0.355,0.272-0.245,0.833,0.187,0.95l2.653,0.716c0.172,0.046,0.309,0.174,0.368,0.342l0.914,2.591
					c0.149,0.422,0.717,0.49,0.961,0.115l1.501-2.302c0.097-0.149,0.261-0.24,0.439-0.245l2.747-0.069
					C46.225,35.68,46.466,35.16,46.185,34.812z"/>
			</g>
		</g>
		<g>
			<g>
				<path class="st11" d="M71.289,30.05l-2.483-1.177c-0.161-0.076-0.273-0.226-0.302-0.402l-0.438-2.712
					c-0.071-0.442-0.618-0.61-0.926-0.285l-1.887,1.997c-0.122,0.129-0.3,0.19-0.475,0.163l-2.715-0.422
					c-0.442-0.069-0.771,0.399-0.557,0.792l1.317,2.412c0.085,0.156,0.088,0.344,0.008,0.502l-1.24,2.452
					c-0.202,0.399,0.142,0.857,0.581,0.774l2.7-0.507c0.175-0.033,0.354,0.022,0.48,0.147l1.948,1.937
					c0.317,0.316,0.859,0.13,0.916-0.313l0.352-2.725c0.023-0.176,0.131-0.33,0.289-0.411l2.444-1.255
					C71.702,30.814,71.693,30.242,71.289,30.05z"/>
			</g>
		</g>
		<g>
			<g>
				<path class="st11" d="M30.332,51.912c0.301-0.331,0.092-0.864-0.354-0.902l-2.738-0.232c-0.177-0.015-0.335-0.116-0.423-0.27
					l-1.361-2.387c-0.222-0.389-0.793-0.355-0.967,0.058l-1.067,2.532c-0.069,0.164-0.214,0.283-0.388,0.319l-2.691,0.557
					c-0.438,0.091-0.582,0.644-0.244,0.937l2.078,1.797c0.134,0.116,0.203,0.291,0.183,0.468l-0.302,2.731
					c-0.049,0.445,0.433,0.753,0.816,0.522l2.351-1.421c0.152-0.092,0.34-0.103,0.502-0.03l2.504,1.131
					c0.408,0.184,0.85-0.179,0.748-0.615l-0.625-2.675c-0.04-0.173,0.007-0.355,0.126-0.486L30.332,51.912z"/>
			</g>
		</g>
		<g>
			<g>
				<path class="st11" d="M79.403,92.899l-2.653-0.716c-0.172-0.046-0.309-0.174-0.368-0.342l-0.914-2.591
					c-0.149-0.422-0.717-0.49-0.961-0.115l-1.501,2.301c-0.097,0.149-0.261,0.24-0.439,0.245L69.82,91.75
					c-0.447,0.011-0.688,0.531-0.407,0.879l1.725,2.138c0.112,0.138,0.148,0.323,0.097,0.493l-0.784,2.634
					c-0.128,0.429,0.292,0.818,0.71,0.658l2.567-0.98c0.166-0.063,0.353-0.041,0.499,0.06l2.262,1.559
					c0.368,0.254,0.868-0.025,0.846-0.472l-0.139-2.744c-0.009-0.178,0.07-0.348,0.211-0.456l2.182-1.67
					C79.945,93.578,79.835,93.016,79.403,92.899z"/>
			</g>
		</g>
		<g>
			<g>
				<path class="st11" d="M54.091,99.436l-1.317-2.411c-0.085-0.156-0.088-0.344-0.008-0.502l1.24-2.452
					c0.202-0.399-0.142-0.857-0.581-0.774l-2.7,0.507c-0.175,0.033-0.354-0.023-0.48-0.148l-1.948-1.937
					c-0.317-0.315-0.859-0.13-0.916,0.314l-0.352,2.725c-0.023,0.176-0.131,0.33-0.289,0.411l-2.444,1.255
					c-0.398,0.204-0.389,0.776,0.015,0.968l2.483,1.177c0.161,0.076,0.273,0.227,0.302,0.402l0.438,2.712
					c0.071,0.442,0.618,0.61,0.925,0.285l1.887-1.998c0.122-0.129,0.3-0.19,0.475-0.163l2.715,0.422
					C53.976,100.297,54.305,99.829,54.091,99.436z"/>
			</g>
		</g>
		<g>
			<g>
				<path class="st11" d="M95.497,74.917l-2.078-1.797c-0.134-0.116-0.203-0.291-0.183-0.468l0.302-2.731
					c0.049-0.445-0.433-0.753-0.816-0.521l-2.351,1.421c-0.152,0.092-0.34,0.103-0.502,0.03l-2.504-1.131
					c-0.408-0.185-0.85,0.179-0.748,0.615l0.625,2.675c0.04,0.173-0.007,0.355-0.126,0.486l-1.849,2.032
					c-0.301,0.331-0.092,0.864,0.354,0.901l2.738,0.232c0.177,0.015,0.335,0.116,0.423,0.27l1.361,2.387
					c0.222,0.389,0.793,0.355,0.967-0.058l1.067-2.532c0.069-0.164,0.214-0.283,0.388-0.319l2.691-0.557
					C95.692,75.764,95.836,75.21,95.497,74.917z"/>
			</g>
		</g>
	</g>
</g>
</svg>
