<svg xmlns="http://www.w3.org/2000/svg" viewBox="0 0 48 48"><defs><style>.cls-1{fill:#374f68;}.cls-2{fill:#425b72;}.cls-3{fill:#dad7e5;}.cls-4{fill:#edebf2;}.cls-5{fill:#f16f39;}.cls-6{fill:#f8834b;}</style></defs><title>Search</title><g id="Search"><path class="cls-1" d="M26,30.24A16,16,0,1,1,17,1C32.72,1,39,21.38,26,30.24Z"/><path class="cls-2" d="M17,1A16,16,0,0,0,3.48,8.48,16,16,0,0,1,25.53,30.53C39,22,33,1,17,1Z"/><circle class="cls-3" cx="17" cy="17" r="12"/><path class="cls-4" d="M17,5a12,12,0,0,0-9.85,5.15,12,12,0,0,1,16.7,16.7C33.44,20.16,28.74,5,17,5Z"/><path class="cls-1" d="M34.1,30.05c-.37.16-.32.17-3.69,3.54a1.63,1.63,0,0,0-.36.51L26,30.24A16.21,16.21,0,0,0,30.24,26Z"/><path class="cls-5" d="M47,41l-6,6L30.41,36.41a2,2,0,0,1,0-2.82c3.47-3.47,3.34-3.39,3.69-3.54a2,2,0,0,1,2.31.36Z"/><path class="cls-6" d="M36.41,30.41a2,2,0,0,0-2.82,0c-6.34,6.34-1.34,1.29-1,1.14a2,2,0,0,1,2.31.36L45.5,42.5,47,41Z"/><polygon class="cls-3" points="19.8 21.13 13.8 21.13 12.8 16.13 20.8 16.13 19.8 21.13"/><path class="cls-5" d="M21.8,15.13c-.62,0-.18.42-2.16-2.55A1,1,0,0,0,18,13.69l1,1.44H14.67l1-1.44A1,1,0,0,0,14,12.58c-2,3-1.55,2.55-2.17,2.55a1,1,0,1,0,.18,2l.84,4.2a1,1,0,0,0,1,.8h6a1,1,0,0,0,1-.8c1-4.8.77-4.2,1-4.2A1,1,0,0,0,21.8,15.13Zm-2.82,5H14.62l-.6-3h5.56Z"/></g></svg>