<?xml version="1.0"?>
<svg xmlns="http://www.w3.org/2000/svg" xmlns:xlink="http://www.w3.org/1999/xlink" version="1.1" id="Capa_1" x="0px" y="0px" viewBox="0 0 512 512" style="enable-background:new 0 0 512 512;" xml:space="preserve" width="512px" height="512px" class=""><g><circle style="fill:#FFDC00" cx="256" cy="256" r="256" data-original="#FFDC00" class=""/><path style="fill:#FFDC00" d="M209.087,410.085l97.002,97.002C423.491,483.797,512,380.241,512,256  c0-2.596-0.051-5.179-0.127-7.756L404.602,140.973L209.087,410.085z" data-original="#FFC000" class="active-path" data-old_color="#FFC000"/><polygon style="fill:#005C83;" points="404.602,140.973 255.667,140.973 107.398,140.973 107.398,194.875 107.398,194.875   209.087,320.454 302.913,320.454 404.602,194.875 404.602,194.875 " data-original="#005C83" class=""/><rect x="107.4" y="140.97" style="fill:#0074A3;" width="297.2" height="53.902" data-original="#0074A3"/><rect x="255.67" y="140.97" style="fill:#005C83;" width="148.94" height="53.902" data-original="#005C83" class=""/><polygon style="fill:#00263F" points="404.602,194.875 255.667,194.875 255.667,320.454 302.913,320.454 " data-original="#00263F" class="" data-old_color="#00263F"/><polygon style="fill:#0074A3;" points="209.087,410.085 302.913,443.9 302.913,320.454 209.087,320.454 " data-original="#0074A3"/><polygon style="fill:#005C83;" points="302.913,320.454 255.667,320.454 255.667,426.872 302.913,443.9 " data-original="#005C83" class=""/></g> </svg>
